<svg width="146" height="86" viewBox="0 0 146 86" fill="none" xmlns="http://www.w3.org/2000/svg">
<path d="M4.44 65H6.36V24.74H25.14V65H27.06V23H4.44V65ZM35.4834 73.28H37.2834V57.62C38.4234 61.34 41.3634 65.48 46.1034 65.48C51.6234 65.48 56.0634 59.36 56.0634 49.7V49.16C56.0634 39.56 51.6234 33.44 46.1034 33.44C41.3634 33.44 38.4234 37.7 37.2834 41.36V33.92H35.4834V73.28ZM45.9234 63.8C41.1234 63.8 37.2234 57.92 37.2234 49.82V49.16C37.2234 41.06 40.9434 35.12 45.9234 35.12C50.7834 35.12 54.1434 40.82 54.1434 49.22V49.7C54.1434 58.22 50.7834 63.8 45.9234 63.8ZM71.6738 65.48C77.7338 65.48 82.2938 59.06 82.2938 49.64V49.28C82.2938 39.86 77.7338 33.44 71.6738 33.44C65.6738 33.44 61.0538 39.86 61.0538 49.28V49.64C61.0538 59.06 65.6138 65.48 71.6738 65.48ZM71.6738 63.8C66.7538 63.8 62.9138 57.86 62.9138 49.64V49.28C62.9138 41.06 66.7538 35.12 71.6738 35.12C76.7138 35.12 80.4338 41.06 80.4338 49.28V49.64C80.4338 57.86 76.7138 63.8 71.6738 63.8ZM122.964 65H124.704L139.764 37.28V65H141.504V33.92H139.704L124.704 61.52V33.92H122.964V65Z" fill="#FFE601"/>
<path d="M4.44 65H3.44V66H4.44V65ZM6.36 65V66H7.36V65H6.36ZM6.36 24.74V23.74H5.36V24.74H6.36ZM25.14 24.74H26.14V23.74H25.14V24.74ZM25.14 65H24.14V66H25.14V65ZM27.06 65V66H28.06V65H27.06ZM27.06 23H28.06V22H27.06V23ZM4.44 23V22H3.44V23H4.44ZM4.44 66H6.36V64H4.44V66ZM7.36 65V24.74H5.36V65H7.36ZM6.36 25.74H25.14V23.74H6.36V25.74ZM24.14 24.74V65H26.14V24.74H24.14ZM25.14 66H27.06V64H25.14V66ZM28.06 65V23H26.06V65H28.06ZM27.06 22H4.44V24H27.06V22ZM3.44 23V65H5.44V23H3.44ZM35.4834 73.28H34.4834V74.28H35.4834V73.28ZM37.2834 73.28V74.28H38.2834V73.28H37.2834ZM37.2834 57.62L38.2395 57.327L36.2834 57.62H37.2834ZM37.2834 41.36H36.2834L38.2382 41.6574L37.2834 41.36ZM37.2834 33.92H38.2834V32.92H37.2834V33.92ZM35.4834 33.92V32.92H34.4834V33.92H35.4834ZM35.4834 74.28H37.2834V72.28H35.4834V74.28ZM38.2834 73.28V57.62H36.2834V73.28H38.2834ZM36.3273 57.913C37.511 61.7755 40.69 66.48 46.1034 66.48V64.48C42.0368 64.48 39.3359 60.9045 38.2395 57.327L36.3273 57.913ZM46.1034 66.48C49.2743 66.48 52.0489 64.7124 53.989 61.7619C55.9224 58.8215 57.0634 54.6715 57.0634 49.7H55.0634C55.0634 54.3885 53.9845 58.1285 52.3179 60.6631C50.6579 63.1876 48.4526 64.48 46.1034 64.48V66.48ZM57.0634 49.7V49.16H55.0634V49.7H57.0634ZM57.0634 49.16C57.0634 44.2174 55.9219 40.0822 53.9883 37.1495C52.0483 34.2072 49.2739 32.44 46.1034 32.44V34.44C48.453 34.44 50.6586 35.7328 52.3186 38.2505C53.985 40.7778 55.0634 44.5026 55.0634 49.16H57.0634ZM46.1034 32.44C43.4037 32.44 41.2376 33.6617 39.624 35.3329C38.0223 36.9918 36.9339 39.1195 36.3287 41.0626L38.2382 41.6574C38.773 39.9405 39.7246 38.1082 41.0628 36.7221C42.3892 35.3483 44.0631 34.44 46.1034 34.44V32.44ZM38.2834 41.36V33.92H36.2834V41.36H38.2834ZM37.2834 32.92H35.4834V34.92H37.2834V32.92ZM34.4834 33.92V73.28H36.4834V33.92H34.4834ZM45.9234 62.8C43.9715 62.8 42.0743 61.6074 40.6178 59.3118C39.1641 57.0204 38.2234 53.7205 38.2234 49.82H36.2234C36.2234 54.0195 37.2328 57.7096 38.929 60.3832C40.6226 63.0526 43.0753 64.8 45.9234 64.8V62.8ZM38.2234 49.82V49.16H36.2234V49.82H38.2234ZM38.2234 49.16C38.2234 45.2502 39.1231 41.9342 40.5552 39.6304C41.9852 37.33 43.8792 36.12 45.9234 36.12V34.12C42.9877 34.12 40.5317 35.88 38.8567 38.5746C37.1837 41.2658 36.2234 44.9698 36.2234 49.16H38.2234ZM45.9234 36.12C47.901 36.12 49.6694 37.2622 50.9927 39.5248C52.3245 41.8019 53.1434 45.1372 53.1434 49.22H55.1434C55.1434 44.9028 54.2824 41.188 52.7191 38.5152C51.1475 35.8278 48.8059 34.12 45.9234 34.12V36.12ZM53.1434 49.22V49.7H55.1434V49.22H53.1434ZM53.1434 49.7C53.1434 53.8451 52.3236 57.1783 50.9941 59.4379C49.6754 61.679 47.9091 62.8 45.9234 62.8V64.8C48.7978 64.8 51.1415 63.131 52.7178 60.4521C54.2833 57.7917 55.1434 54.0749 55.1434 49.7H53.1434ZM71.6738 66.48C75.0972 66.48 78.0371 64.6553 80.0824 61.6559C82.1188 58.6697 83.2937 54.5001 83.2937 49.64H81.2937C81.2937 54.1999 80.1887 57.9503 78.4301 60.5291C76.6805 63.0947 74.3103 64.48 71.6738 64.48V66.48ZM83.2937 49.64V49.28H81.2937V49.64H83.2937ZM83.2937 49.28C83.2937 44.4199 82.1188 40.2503 80.0824 37.2641C78.0371 34.2647 75.0972 32.44 71.6738 32.44V34.44C74.3103 34.44 76.6805 35.8253 78.4301 38.3909C80.1887 40.9697 81.2937 44.7201 81.2937 49.28H83.2937ZM71.6738 32.44C68.2784 32.44 65.3398 34.2665 63.2886 37.2626C61.2449 40.2476 60.0537 44.4172 60.0537 49.28H62.0537C62.0537 44.7228 63.1726 40.9724 64.9389 38.3924C66.6977 35.8235 69.0691 34.44 71.6738 34.44V32.44ZM60.0537 49.28V49.64H62.0537V49.28H60.0537ZM60.0537 49.64C60.0537 54.5001 61.2287 58.6697 63.2651 61.6559C65.3104 64.6553 68.2503 66.48 71.6738 66.48V64.48C69.0372 64.48 66.6671 63.0947 64.9174 60.5291C63.1588 57.9503 62.0537 54.1999 62.0537 49.64H60.0537ZM71.6738 62.8C69.6606 62.8 67.7502 61.5911 66.296 59.2714C64.8419 56.9517 63.9137 53.6063 63.9137 49.64H61.9137C61.9137 53.8937 62.9056 57.6283 64.6015 60.3336C66.2973 63.0389 68.7669 64.8 71.6738 64.8V62.8ZM63.9137 49.64V49.28H61.9137V49.64H63.9137ZM63.9137 49.28C63.9137 45.3137 64.8419 41.9683 66.296 39.6486C67.7502 37.3289 69.6606 36.12 71.6738 36.12V34.12C68.7669 34.12 66.2973 35.8811 64.6015 38.5864C62.9056 41.2917 61.9137 45.0263 61.9137 49.28H63.9137ZM71.6738 36.12C73.7514 36.12 75.6591 37.3337 77.0942 39.645C78.533 41.9623 79.4338 45.3077 79.4338 49.28H81.4338C81.4338 45.0323 80.4745 41.2977 78.7933 38.59C77.1084 35.8763 74.6362 34.12 71.6738 34.12V36.12ZM79.4338 49.28V49.64H81.4338V49.28H79.4338ZM79.4338 49.64C79.4338 53.6123 78.533 56.9577 77.0942 59.275C75.6591 61.5863 73.7514 62.8 71.6738 62.8V64.8C74.6362 64.8 77.1084 63.0437 78.7933 60.33C80.4745 57.6223 81.4338 53.8877 81.4338 49.64H79.4338ZM122.964 65H121.964V66H122.964V65ZM124.704 65V66H125.299L125.583 65.4774L124.704 65ZM139.764 37.28H140.764L138.885 36.8026L139.764 37.28ZM139.764 65H138.764V66H139.764V65ZM141.504 65V66H142.504V65H141.504ZM141.504 33.92H142.504V32.92H141.504V33.92ZM139.704 33.92V32.92H139.109L138.825 33.4425L139.704 33.92ZM124.704 61.52H123.704L125.583 61.9975L124.704 61.52ZM124.704 33.92H125.704V32.92H124.704V33.92ZM122.964 33.92V32.92H121.964V33.92H122.964ZM122.964 66H124.704V64H122.964V66ZM125.583 65.4774L140.643 37.7574L138.885 36.8026L123.825 64.5226L125.583 65.4774ZM138.764 37.28V65H140.764V37.28H138.764ZM139.764 66H141.504V64H139.764V66ZM142.504 65V33.92H140.504V65H142.504ZM141.504 32.92H139.704V34.92H141.504V32.92ZM138.825 33.4425L123.825 61.0425L125.583 61.9975L140.583 34.3975L138.825 33.4425ZM125.704 61.52V33.92H123.704V61.52H125.704ZM124.704 32.92H122.964V34.92H124.704V32.92ZM121.964 33.92V65H123.964V33.92H121.964Z" fill="#FFE601"/>
<path d="M100.332 31.62C100.06 30.6227 99.72 29.6253 99.312 28.628C98.904 27.5853 98.3827 26.6787 97.748 25.908C97.1587 25.092 96.4333 24.4347 95.572 23.936C94.7107 23.4373 93.7133 23.188 92.58 23.188C91.3107 23.188 90.2227 23.5053 89.316 24.14C88.4093 24.7293 87.6613 25.5227 87.072 26.52C86.4827 27.472 86.052 28.56 85.78 29.784C85.508 31.008 85.372 32.2093 85.372 33.388C85.372 35.836 85.5987 37.944 86.052 39.712C86.5053 41.48 87.072 42.9987 87.752 44.268C88.432 45.5373 89.18 46.648 89.996 47.6C90.8573 48.552 91.696 49.436 92.512 50.252C93.1013 50.8413 93.7587 51.4533 94.484 52.088C95.2547 52.7227 95.9573 53.4027 96.592 54.128C97.2267 54.8533 97.748 55.6467 98.156 56.508C98.6093 57.3693 98.836 58.344 98.836 59.432C98.836 59.84 98.7453 60.316 98.564 60.86C98.428 61.404 98.1787 61.9253 97.816 62.424C97.4533 62.9227 96.9547 63.3533 96.32 63.716C95.7307 64.0333 94.96 64.192 94.008 64.192C93.328 64.192 92.7613 64.0107 92.308 63.648C91.8547 63.2853 91.6053 62.8547 91.56 62.356C91.4693 61.9027 91.6507 61.4493 92.104 60.996C92.5573 60.5427 93.0787 60.316 93.668 60.316C94.212 60.316 94.6653 60.4973 95.028 60.86C95.436 61.2227 95.6853 61.6533 95.776 62.152C96.2747 61.9253 96.6373 61.5173 96.864 60.928C97.0907 60.3387 97.204 59.8173 97.204 59.364C97.2493 58.5027 97.068 57.7093 96.66 56.984C96.252 56.2587 95.708 55.5787 95.028 54.944C94.3933 54.264 93.6907 53.6293 92.92 53.04C92.1947 52.4507 91.5147 51.8387 90.88 51.204C89.928 50.3427 88.9307 49.3907 87.888 48.348C86.8907 47.3053 85.984 46.104 85.168 44.744C84.352 43.3387 83.672 41.7293 83.128 39.916C82.584 38.0573 82.312 35.8813 82.312 33.388C82.312 31.9373 82.516 30.4867 82.924 29.036C83.332 27.5853 83.944 26.2933 84.76 25.16C85.6213 23.9813 86.6867 23.0293 87.956 22.304C89.2707 21.5787 90.812 21.216 92.58 21.216C93.5773 21.216 94.484 21.3973 95.3 21.76C96.1613 22.0773 96.9093 22.4853 97.544 22.984C98.224 23.4827 98.7907 24.0493 99.244 24.684C99.6973 25.3187 100.06 25.908 100.332 26.452V19.448C100.332 19.176 100.264 18.972 100.128 18.836C100.037 18.6547 99.8107 18.5187 99.448 18.428C99.1307 18.3373 98.632 18.2693 97.952 18.224C97.3173 18.1787 96.4787 18.156 95.436 18.156V17.136H108.016V18.156C106.792 18.156 105.84 18.2013 105.16 18.292C104.48 18.3373 103.981 18.428 103.664 18.564C103.347 18.6547 103.165 18.7907 103.12 18.972C103.075 19.108 103.052 19.2667 103.052 19.448V26.656C103.279 26.112 103.619 25.5227 104.072 24.888C104.525 24.2533 105.069 23.664 105.704 23.12C106.384 22.576 107.155 22.1227 108.016 21.76C108.877 21.3973 109.829 21.216 110.872 21.216C112.64 21.216 114.159 21.5787 115.428 22.304C116.743 23.0293 117.808 23.9813 118.624 25.16C119.485 26.2933 120.12 27.5853 120.528 29.036C120.936 30.4867 121.14 31.9373 121.14 33.388C121.14 35.8813 120.868 38.0573 120.324 39.916C119.78 41.7293 119.1 43.3387 118.284 44.744C117.468 46.104 116.539 47.3053 115.496 48.348C114.499 49.3907 113.524 50.3427 112.572 51.204C111.937 51.8387 111.235 52.4507 110.464 53.04C109.739 53.6293 109.036 54.264 108.356 54.944C107.721 55.5787 107.2 56.2587 106.792 56.984C106.384 57.7093 106.203 58.5027 106.248 59.364C106.248 59.8173 106.361 60.3387 106.588 60.928C106.815 61.5173 107.177 61.9253 107.676 62.152C107.767 61.6533 107.993 61.2227 108.356 60.86C108.764 60.4973 109.24 60.316 109.784 60.316C110.373 60.316 110.895 60.5427 111.348 60.996C111.801 61.4493 111.983 61.9027 111.892 62.356C111.847 62.8547 111.597 63.2853 111.144 63.648C110.691 64.0107 110.124 64.192 109.444 64.192C108.492 64.192 107.699 64.0333 107.064 63.716C106.475 63.3533 105.999 62.9227 105.636 62.424C105.273 61.9253 105.001 61.404 104.82 60.86C104.684 60.316 104.616 59.84 104.616 59.432C104.616 58.344 104.82 57.3693 105.228 56.508C105.681 55.6467 106.225 54.8533 106.86 54.128C107.495 53.4027 108.175 52.7227 108.9 52.088C109.625 51.4533 110.305 50.8413 110.94 50.252C111.756 49.436 112.572 48.552 113.388 47.6C114.249 46.648 115.02 45.5373 115.7 44.268C116.425 42.9987 117.015 41.48 117.468 39.712C117.921 37.944 118.148 35.836 118.148 33.388C118.148 32.2093 117.989 31.008 117.672 29.784C117.4 28.56 116.969 27.472 116.38 26.52C115.791 25.5227 115.043 24.7293 114.136 24.14C113.229 23.5053 112.141 23.188 110.872 23.188C109.693 23.188 108.673 23.46 107.812 24.004C106.951 24.5027 106.203 25.16 105.568 25.976C104.979 26.792 104.48 27.7213 104.072 28.764C103.664 29.8067 103.324 30.8493 103.052 31.892V66.164C103.052 66.3 103.097 66.436 103.188 66.572C103.324 66.6627 103.573 66.7533 103.936 66.844C104.299 66.9347 104.797 67.0027 105.432 67.048C106.112 67.0933 106.973 67.116 108.016 67.116V68H95.3V67.116C96.388 67.116 97.2493 67.0933 97.884 67.048C98.5187 67.0027 98.9947 66.9347 99.312 66.844C99.6747 66.7533 99.924 66.6627 100.06 66.572C100.196 66.436 100.287 66.3 100.332 66.164V31.62Z" fill="#FFE601"/>
<path d="M100.332 31.62H100.832V31.553L100.814 31.4884L100.332 31.62ZM99.312 28.628L98.8463 28.8102L98.8492 28.8173L99.312 28.628ZM97.748 25.908L97.3427 26.2007L97.3519 26.2136L97.362 26.2259L97.748 25.908ZM95.572 23.936L95.3215 24.3687H95.3215L95.572 23.936ZM89.316 24.14L89.5885 24.5592L89.5957 24.5545L89.6027 24.5496L89.316 24.14ZM87.072 26.52L87.4972 26.7832L87.5025 26.7744L87.072 26.52ZM85.78 29.784L85.2919 29.6755V29.6755L85.78 29.784ZM86.052 39.712L85.5677 39.8362L86.052 39.712ZM89.996 47.6L89.6162 47.9255L89.6252 47.9355L89.996 47.6ZM92.512 50.252L92.1584 50.6056L92.512 50.252ZM94.484 52.088L94.1547 52.4643L94.1604 52.4692L94.1661 52.474L94.484 52.088ZM96.592 54.128L96.9683 53.7987L96.592 54.128ZM98.156 56.508L97.7041 56.722L97.7086 56.7316L97.7135 56.7409L98.156 56.508ZM98.564 60.86L98.0897 60.7019L98.0836 60.7201L98.0789 60.7387L98.564 60.86ZM97.816 62.424L98.2204 62.7181L97.816 62.424ZM96.32 63.716L96.5571 64.1564L96.5681 64.1501L96.32 63.716ZM91.56 62.356L92.0579 62.3107L92.0555 62.2841L92.0503 62.2579L91.56 62.356ZM92.104 60.996L91.7504 60.6424H91.7504L92.104 60.996ZM95.028 60.86L94.6744 61.2136L94.6848 61.2239L94.6958 61.2337L95.028 60.86ZM95.776 62.152L95.2841 62.2414L95.3988 62.8727L95.9829 62.6072L95.776 62.152ZM96.864 60.928L96.3973 60.7485V60.7485L96.864 60.928ZM97.204 59.364L96.7047 59.3377L96.704 59.3509V59.364H97.204ZM96.66 56.984L96.2242 57.2291L96.66 56.984ZM95.028 54.944L94.6625 55.2852L94.6742 55.2978L94.6868 55.3095L95.028 54.944ZM92.92 53.04L92.6047 53.4281L92.6104 53.4327L92.6163 53.4372L92.92 53.04ZM90.88 51.204L91.2336 50.8504L91.2247 50.8416L91.2155 50.8332L90.88 51.204ZM87.888 48.348L87.5266 48.6937L87.5344 48.7016L87.888 48.348ZM85.168 44.744L84.7356 44.9951L84.7393 45.0012L85.168 44.744ZM83.128 39.916L82.6481 40.0564L82.6491 40.0597L83.128 39.916ZM84.76 25.16L84.3563 24.865L84.3542 24.8678L84.76 25.16ZM87.956 22.304L87.7144 21.8662L87.7079 21.8699L87.956 22.304ZM95.3 21.76L95.0969 22.2169L95.1118 22.2235L95.1271 22.2292L95.3 21.76ZM97.544 22.984L97.2351 23.3772L97.2416 23.3823L97.2483 23.3872L97.544 22.984ZM99.244 24.684L99.6509 24.3934L99.244 24.684ZM100.332 26.452L99.8848 26.6756L100.832 26.452H100.332ZM100.128 18.836L99.6808 19.0596L99.7171 19.1322L99.7744 19.1896L100.128 18.836ZM99.448 18.428L99.3106 18.9088L99.3187 18.911L99.3267 18.9131L99.448 18.428ZM97.952 18.224L97.9164 18.7227L97.9187 18.7229L97.952 18.224ZM95.436 18.156H94.936V18.656H95.436V18.156ZM95.436 17.136V16.636H94.936V17.136H95.436ZM108.016 17.136H108.516V16.636H108.016V17.136ZM108.016 18.156V18.656H108.516V18.156H108.016ZM105.16 18.292L105.193 18.7909L105.21 18.7898L105.226 18.7876L105.16 18.292ZM103.664 18.564L103.801 19.0448L103.832 19.0361L103.861 19.0236L103.664 18.564ZM103.12 18.972L103.594 19.1301L103.6 19.1119L103.605 19.0933L103.12 18.972ZM103.052 26.656H102.552L103.514 26.8483L103.052 26.656ZM104.072 24.888L103.665 24.5974L103.665 24.5974L104.072 24.888ZM105.704 23.12L105.392 22.7296L105.385 22.7349L105.379 22.7404L105.704 23.12ZM108.016 21.76L108.21 22.2208H108.21L108.016 21.76ZM115.428 22.304L115.18 22.7382L115.186 22.7418L115.428 22.304ZM118.624 25.16L118.213 25.4446L118.219 25.4537L118.226 25.4625L118.624 25.16ZM120.324 39.916L120.803 40.0597L120.804 40.0564L120.324 39.916ZM118.284 44.744L118.713 45.0013L118.716 44.9951L118.284 44.744ZM115.496 48.348L115.142 47.9944L115.135 48.0024L115.496 48.348ZM112.572 51.204L112.237 50.8332L112.227 50.8416L112.218 50.8504L112.572 51.204ZM110.464 53.04L110.16 52.6428L110.154 52.6473L110.149 52.6519L110.464 53.04ZM108.356 54.944L108.71 55.2976L108.356 54.944ZM106.792 56.984L107.228 57.2291L106.792 56.984ZM106.248 59.364H106.748V59.3509L106.747 59.3377L106.248 59.364ZM106.588 60.928L107.055 60.7485V60.7485L106.588 60.928ZM107.676 62.152L107.469 62.6072L108.053 62.8727L108.168 62.2414L107.676 62.152ZM108.356 60.86L108.024 60.4863L108.013 60.4961L108.002 60.5064L108.356 60.86ZM111.348 60.996L111.702 60.6424L111.348 60.996ZM111.892 62.356L111.402 62.2579L111.396 62.2841L111.394 62.3107L111.892 62.356ZM111.144 63.648L111.456 64.0384L111.144 63.648ZM107.064 63.716L106.802 64.1418L106.821 64.1534L106.84 64.1632L107.064 63.716ZM105.636 62.424L105.232 62.7181L105.636 62.424ZM104.82 60.86L104.335 60.9813L104.34 60.9999L104.346 61.0181L104.82 60.86ZM105.228 56.508L104.786 56.2751L104.781 56.2844L104.776 56.294L105.228 56.508ZM110.94 50.252L111.28 50.6184L111.287 50.6121L111.294 50.6056L110.94 50.252ZM113.388 47.6L113.017 47.2644L113.008 47.2746L113.388 47.6ZM115.7 44.268L115.266 44.0198L115.259 44.0319L115.7 44.268ZM117.468 39.712L116.984 39.5878L117.468 39.712ZM117.672 29.784L117.184 29.8925L117.186 29.901L117.188 29.9095L117.672 29.784ZM116.38 26.52L115.949 26.7744L115.955 26.7832L116.38 26.52ZM114.136 24.14L113.849 24.5496L113.856 24.5545L113.864 24.5592L114.136 24.14ZM107.812 24.004L108.063 24.4367L108.071 24.4319L108.079 24.4267L107.812 24.004ZM105.568 25.976L105.173 25.669L105.168 25.676L105.163 25.6833L105.568 25.976ZM104.072 28.764L103.606 28.5818L104.072 28.764ZM103.052 31.892L102.568 31.7658L102.552 31.8279V31.892H103.052ZM103.188 66.572L102.772 66.8493L102.827 66.9326L102.911 66.988L103.188 66.572ZM103.936 66.844L104.057 66.3589V66.3589L103.936 66.844ZM105.432 67.048L105.396 67.5467L105.399 67.5469L105.432 67.048ZM108.016 67.116H108.516V66.616H108.016V67.116ZM108.016 68V68.5H108.516V68H108.016ZM95.3 68H94.8V68.5H95.3V68ZM95.3 67.116V66.616H94.8V67.116H95.3ZM99.312 66.844L99.1907 66.3589L99.1827 66.3609L99.1746 66.3632L99.312 66.844ZM100.06 66.572L100.337 66.988L100.379 66.9606L100.414 66.9256L100.06 66.572ZM100.332 66.164L100.806 66.3221L100.832 66.2451V66.164H100.332ZM100.814 31.4884C100.537 30.4707 100.19 29.4541 99.7748 28.4387L98.8492 28.8173C99.2498 29.7966 99.5832 30.7747 99.8496 31.7516L100.814 31.4884ZM99.7776 28.4458C99.3527 27.3599 98.806 26.4062 98.134 25.5901L97.362 26.2259C97.9594 26.9512 98.4553 27.8108 98.8464 28.8102L99.7776 28.4458ZM98.1533 25.6153C97.5233 24.7429 96.7454 24.0376 95.8225 23.5033L95.3215 24.3687C96.1212 24.8317 96.794 25.4411 97.3427 26.2007L98.1533 25.6153ZM95.8225 23.5033C94.875 22.9547 93.7889 22.688 92.58 22.688V23.688C93.6378 23.688 94.5463 23.92 95.3215 24.3687L95.8225 23.5033ZM92.58 22.688C91.2237 22.688 90.0319 23.0285 89.0293 23.7304L89.6027 24.5496C90.4134 23.9821 91.3977 23.688 92.58 23.688V22.688ZM89.0435 23.7208C88.0676 24.3551 87.2672 25.2067 86.6415 26.2656L87.5025 26.7744C88.0554 25.8386 88.751 25.1036 89.5885 24.5592L89.0435 23.7208ZM86.6469 26.2568C86.0247 27.2618 85.5746 28.4033 85.2919 29.6755L86.2681 29.8925C86.5294 28.7167 86.9406 27.6821 87.4971 26.7832L86.6469 26.2568ZM85.2919 29.6755C85.0125 30.9329 84.872 32.1706 84.872 33.388H85.872C85.872 32.2481 86.0035 31.0831 86.2681 29.8925L85.2919 29.6755ZM84.872 33.388C84.872 35.8646 85.1011 38.0165 85.5677 39.8362L86.5363 39.5878C86.0962 37.8715 85.872 35.8074 85.872 33.388H84.872ZM85.5677 39.8362C86.0285 41.6333 86.608 43.1914 87.3113 44.5041L88.1927 44.0319C87.536 42.8059 86.9822 41.3267 86.5363 39.5878L85.5677 39.8362ZM87.3113 44.5041C88.0059 45.8007 88.7737 46.9422 89.6164 47.9254L90.3756 47.2746C89.5863 46.3538 88.8581 45.2739 88.1927 44.0319L87.3113 44.5041ZM89.6252 47.9355C90.4915 48.893 91.3359 49.7831 92.1584 50.6056L92.8656 49.8984C92.0561 49.0889 91.2231 48.211 90.3668 47.2645L89.6252 47.9355ZM92.1584 50.6056C92.7567 51.2038 93.4223 51.8234 94.1547 52.4643L94.8133 51.7117C94.095 51.0833 93.4459 50.4788 92.8656 49.8984L92.1584 50.6056ZM94.1661 52.474C94.9166 53.092 95.5996 53.7531 96.2157 54.4573L96.9683 53.7987C96.3151 53.0522 95.5928 52.3534 94.8019 51.702L94.1661 52.474ZM96.2157 54.4573C96.8203 55.1483 97.3161 55.9029 97.7041 56.722L98.6079 56.294C98.1799 55.3904 97.633 54.5584 96.9683 53.7987L96.2157 54.4573ZM97.7135 56.7409C98.1248 57.5223 98.336 58.4154 98.336 59.432H99.336C99.336 58.2726 99.0939 57.2164 98.5985 56.2751L97.7135 56.7409ZM98.336 59.432C98.336 59.7693 98.2603 60.1899 98.0897 60.7019L99.0383 61.0181C99.2303 60.4421 99.336 59.9107 99.336 59.432H98.336ZM98.0789 60.7387C97.96 61.2146 97.7403 61.678 97.4116 62.1299L98.2204 62.7181C98.617 62.1727 98.896 61.5934 99.0491 60.9813L98.0789 60.7387ZM97.4116 62.1299C97.0976 62.5618 96.6564 62.9479 96.0719 63.2819L96.5681 64.1501C97.2529 63.7588 97.8091 63.2836 98.2204 62.7181L97.4116 62.1299ZM96.083 63.2758C95.5907 63.5408 94.9101 63.692 94.008 63.692V64.692C95.0099 64.692 95.8706 64.5259 96.5571 64.1562L96.083 63.2758ZM94.008 63.692C93.4212 63.692 92.9704 63.5376 92.6203 63.2576L91.9957 64.0384C92.5523 64.4838 93.2348 64.692 94.008 64.692V63.692ZM92.6203 63.2576C92.2548 62.9652 92.089 62.652 92.0579 62.3107L91.0621 62.4013C91.1217 63.0573 91.4545 63.6055 91.9957 64.0384L92.6203 63.2576ZM92.0503 62.2579C92.0042 62.0274 92.0725 61.7346 92.4576 61.3496L91.7504 60.6424C91.2288 61.1641 90.9345 61.7779 91.0697 62.4541L92.0503 62.2579ZM92.4576 61.3496C92.8262 60.9809 93.2236 60.816 93.668 60.816V59.816C92.9337 59.816 92.2885 60.1044 91.7504 60.6424L92.4576 61.3496ZM93.668 60.816C94.0883 60.816 94.4117 60.9508 94.6744 61.2136L95.3816 60.5064C94.919 60.0439 94.3357 59.816 93.668 59.816V60.816ZM94.6958 61.2337C95.0272 61.5282 95.215 61.8614 95.2841 62.2414L96.2679 62.0626C96.1557 61.4452 95.8448 60.9171 95.3602 60.4863L94.6958 61.2337ZM95.9829 62.6072C96.6193 62.3179 97.0647 61.799 97.3307 61.1075L96.3973 60.7485C96.21 61.2356 95.93 61.5328 95.5691 61.6968L95.9829 62.6072ZM97.3307 61.1075C97.5713 60.4817 97.704 59.8977 97.704 59.364H96.704C96.704 59.737 96.61 60.1956 96.3973 60.7485L97.3307 61.1075ZM97.7033 59.3903C97.7534 58.4379 97.552 57.5499 97.0958 56.7389L96.2242 57.2291C96.584 57.8687 96.7452 58.5674 96.7047 59.3377L97.7033 59.3903ZM97.0958 56.7389C96.6598 55.9639 96.0823 55.2441 95.3692 54.5785L94.6868 55.3095C95.3337 55.9132 95.8442 56.5535 96.2242 57.2291L97.0958 56.7389ZM95.3935 54.6028C94.7391 53.9016 94.0156 53.2483 93.2237 52.6428L92.6163 53.4372C93.3658 54.0103 94.0476 54.6264 94.6625 55.2852L95.3935 54.6028ZM93.2353 52.6519C92.5228 52.073 91.8556 51.4725 91.2336 50.8504L90.5264 51.5576C91.1738 52.2049 91.8666 52.8283 92.6047 53.4281L93.2353 52.6519ZM91.2155 50.8332C90.2705 49.9782 89.2792 49.0321 88.2416 47.9944L87.5344 48.7016C88.5822 49.7493 89.5855 50.7071 90.5445 51.5748L91.2155 50.8332ZM88.2493 48.0024C87.2801 46.9891 86.3955 45.818 85.5967 44.4868L84.7393 45.0012C85.5725 46.39 86.5013 47.6216 87.5267 48.6936L88.2493 48.0024ZM85.6004 44.4929C84.807 43.1265 84.1415 41.5542 83.6069 39.7723L82.6491 40.0597C83.2025 41.9045 83.897 43.5509 84.7356 44.9951L85.6004 44.4929ZM83.6079 39.7756C83.0804 37.9734 82.812 35.8467 82.812 33.388H81.812C81.812 35.916 82.0876 38.1413 82.6481 40.0564L83.6079 39.7756ZM82.812 33.388C82.812 31.9848 83.0092 30.5797 83.4053 29.1714L82.4427 28.9006C82.0228 30.3936 81.812 31.8898 81.812 33.388H82.812ZM83.4053 29.1714C83.7988 27.7725 84.3865 26.5344 85.1658 25.4521L84.3542 24.8678C83.5015 26.0522 82.8652 27.3981 82.4427 28.9006L83.4053 29.1714ZM85.1637 25.455C85.9835 24.3332 86.9957 23.4286 88.2041 22.7381L87.7079 21.8699C86.3776 22.6301 85.2592 23.6294 84.3563 24.865L85.1637 25.455ZM88.1975 22.7418C89.4261 22.064 90.8814 21.716 92.58 21.716V20.716C90.7426 20.716 89.1152 21.0934 87.7145 21.8662L88.1975 22.7418ZM92.58 21.716C93.5156 21.716 94.352 21.8858 95.0969 22.2169L95.5031 21.3031C94.616 20.9089 93.6391 20.716 92.58 20.716V21.716ZM95.1271 22.2292C95.9461 22.5309 96.6467 22.9149 97.2351 23.3772L97.8529 22.5908C97.1719 22.0558 96.3766 21.6238 95.4729 21.2908L95.1271 22.2292ZM97.2483 23.3872C97.889 23.857 98.4171 24.3865 98.8371 24.9746L99.6509 24.3934C99.1643 23.7122 98.559 23.1083 97.8397 22.5808L97.2483 23.3872ZM98.8371 24.9746C99.2793 25.5936 99.6272 26.1604 99.8848 26.6756L100.779 26.2284C100.493 25.6556 100.115 25.0437 99.6509 24.3934L98.8371 24.9746ZM100.832 26.452V19.448H99.832V26.452H100.832ZM100.832 19.448C100.832 19.0989 100.744 18.7453 100.482 18.4824L99.7744 19.1896C99.7836 19.1987 99.832 19.2531 99.832 19.448H100.832ZM100.575 18.6124C100.381 18.2249 99.9631 18.0414 99.5693 17.9429L99.3267 18.9131C99.4783 18.951 99.5752 18.9922 99.6328 19.0267C99.6889 19.0604 99.6891 19.0763 99.6808 19.0596L100.575 18.6124ZM99.5854 17.9472C99.2144 17.8413 98.6715 17.7709 97.9853 17.7251L97.9187 18.7229C98.5925 18.7678 99.0469 18.8334 99.3106 18.9088L99.5854 17.9472ZM97.9876 17.7253C97.3361 17.6787 96.4841 17.656 95.436 17.656V18.656C96.4732 18.656 97.2986 18.6786 97.9164 18.7227L97.9876 17.7253ZM95.936 18.156V17.136H94.936V18.156H95.936ZM95.436 17.636H108.016V16.636H95.436V17.636ZM107.516 17.136V18.156H108.516V17.136H107.516ZM108.016 17.656C106.784 17.656 105.806 17.7014 105.094 17.7964L105.226 18.7876C105.874 18.7013 106.8 18.656 108.016 18.656V17.656ZM105.127 17.7931C104.434 17.8393 103.865 17.9337 103.467 18.1044L103.861 19.0236C104.097 18.9223 104.526 18.8354 105.193 18.7909L105.127 17.7931ZM103.527 18.0832C103.17 18.185 102.749 18.3943 102.635 18.8507L103.605 19.0933C103.594 19.1363 103.571 19.1483 103.59 19.134C103.615 19.1153 103.677 19.0803 103.801 19.0448L103.527 18.0832ZM102.646 18.8139C102.58 19.0123 102.552 19.2265 102.552 19.448H103.552C103.552 19.3068 103.57 19.2037 103.594 19.1301L102.646 18.8139ZM102.552 19.448V26.656H103.552V19.448H102.552ZM103.514 26.8483C103.722 26.3481 104.041 25.7919 104.479 25.1786L103.665 24.5974C103.197 25.2535 102.835 25.8759 102.59 26.4637L103.514 26.8483ZM104.479 25.1786C104.907 24.5791 105.423 24.0192 106.029 23.4996L105.379 22.7404C104.715 23.3088 104.144 23.9276 103.665 24.5974L104.479 25.1786ZM106.016 23.5104C106.658 22.9973 107.388 22.5669 108.21 22.2208L107.822 21.2992C106.921 21.6784 106.11 22.1547 105.392 22.7296L106.016 23.5104ZM108.21 22.2208C109.003 21.8868 109.888 21.716 110.872 21.716V20.716C109.77 20.716 108.751 20.9078 107.822 21.2992L108.21 22.2208ZM110.872 21.716C112.571 21.716 114 22.0642 115.18 22.7381L115.676 21.8699C114.317 21.0932 112.709 20.716 110.872 20.716V21.716ZM115.186 22.7418C116.437 23.4316 117.443 24.3324 118.213 25.4446L119.035 24.8754C118.173 23.6302 117.048 22.627 115.67 21.8662L115.186 22.7418ZM118.226 25.4625C119.047 26.543 119.655 27.7776 120.047 29.1714L121.009 28.9006C120.585 27.3931 119.924 26.0437 119.022 24.8575L118.226 25.4625ZM120.047 29.1714C120.443 30.5797 120.64 31.9848 120.64 33.388H121.64C121.64 31.8898 121.429 30.3936 121.009 28.9006L120.047 29.1714ZM120.64 33.388C120.64 35.8467 120.372 37.9734 119.844 39.7756L120.804 40.0564C121.364 38.1413 121.64 35.916 121.64 33.388H120.64ZM119.845 39.7723C119.311 41.5542 118.645 43.1265 117.852 44.4929L118.716 44.9951C119.555 43.5509 120.249 41.9045 120.803 40.0597L119.845 39.7723ZM117.855 44.4868C117.059 45.8143 116.154 46.9828 115.142 47.9944L115.85 48.7016C116.923 47.6279 117.877 46.3937 118.713 45.0012L117.855 44.4868ZM115.135 48.0024C114.145 49.0374 113.179 49.9809 112.237 50.8332L112.907 51.5748C113.869 50.7044 114.853 49.7439 115.857 48.6936L115.135 48.0024ZM112.218 50.8504C111.601 51.4683 110.915 52.0658 110.16 52.6428L110.768 53.4372C111.555 52.8355 112.274 52.209 112.926 51.5576L112.218 50.8504ZM110.149 52.6519C109.41 53.2524 108.694 53.8986 108.002 54.5904L108.71 55.2976C109.378 54.6294 110.068 54.0062 110.779 53.4281L110.149 52.6519ZM108.002 54.5904C107.338 55.2548 106.788 55.9708 106.356 56.7389L107.228 57.2291C107.612 56.5465 108.105 55.9025 108.71 55.2976L108.002 54.5904ZM106.356 56.7389C105.9 57.5499 105.699 58.4379 105.749 59.3903L106.747 59.3377C106.707 58.5674 106.868 57.8687 107.228 57.2291L106.356 56.7389ZM105.748 59.364C105.748 59.8977 105.881 60.4817 106.121 61.1075L107.055 60.7485C106.842 60.1956 106.748 59.737 106.748 59.364H105.748ZM106.121 61.1075C106.387 61.799 106.833 62.3179 107.469 62.6072L107.883 61.6968C107.522 61.5328 107.242 61.2356 107.055 60.7485L106.121 61.1075ZM108.168 62.2414C108.24 61.8441 108.418 61.5052 108.71 61.2136L108.002 60.5064C107.569 60.9401 107.293 61.4626 107.184 62.0626L108.168 62.2414ZM108.688 61.2337C109.005 60.9521 109.363 60.816 109.784 60.816V59.816C109.117 59.816 108.523 60.0426 108.024 60.4863L108.688 61.2337ZM109.784 60.816C110.228 60.816 110.626 60.9809 110.994 61.3496L111.702 60.6424C111.164 60.1044 110.518 59.816 109.784 59.816V60.816ZM110.994 61.3496C111.379 61.7346 111.448 62.0274 111.402 62.2579L112.382 62.4541C112.518 61.7779 112.223 61.1641 111.702 60.6424L110.994 61.3496ZM111.394 62.3107C111.363 62.652 111.197 62.9652 110.832 63.2576L111.456 64.0384C111.997 63.6055 112.33 63.0573 112.39 62.4013L111.394 62.3107ZM110.832 63.2576C110.482 63.5376 110.031 63.692 109.444 63.692V64.692C110.217 64.692 110.9 64.4838 111.456 64.0384L110.832 63.2576ZM109.444 63.692C108.544 63.692 107.833 63.5416 107.288 63.2688L106.84 64.1632C107.564 64.525 108.44 64.692 109.444 64.692V63.692ZM107.326 63.2902C106.786 62.9575 106.36 62.5697 106.04 62.1299L105.232 62.7181C105.637 63.2756 106.164 63.7491 106.802 64.1418L107.326 63.2902ZM106.04 62.1299C105.706 61.6696 105.458 61.1937 105.294 60.7019L104.346 61.0181C104.544 61.6143 104.841 62.1811 105.232 62.7181L106.04 62.1299ZM105.305 60.7387C105.176 60.2207 105.116 59.7871 105.116 59.432H104.116C104.116 59.8929 104.192 60.4113 104.335 60.9813L105.305 60.7387ZM105.116 59.432C105.116 58.4075 105.308 57.5076 105.68 56.722L104.776 56.294C104.332 57.2311 104.116 58.2805 104.116 59.432H105.116ZM105.67 56.7409C106.106 55.9138 106.628 55.1529 107.236 54.4573L106.484 53.7987C105.823 54.5538 105.257 55.3795 104.786 56.2751L105.67 56.7409ZM107.236 54.4573C107.856 53.7486 108.521 53.0843 109.229 52.4643L108.571 51.7117C107.829 52.361 107.133 53.0567 106.484 53.7987L107.236 54.4573ZM109.229 52.4643C109.958 51.8267 110.642 51.2114 111.28 50.6184L110.6 49.8856C109.969 50.4712 109.293 51.0799 108.571 51.7117L109.229 52.4643ZM111.294 50.6056C112.119 49.7798 112.944 48.8863 113.768 47.9254L113.008 47.2746C112.2 48.2177 111.393 49.0922 110.586 49.8984L111.294 50.6056ZM113.759 47.9355C114.65 46.9499 115.444 45.805 116.141 44.5041L115.259 44.0319C114.596 45.2697 113.848 46.3461 113.017 47.2645L113.759 47.9355ZM116.134 44.5161C116.886 43.1996 117.491 41.6373 117.952 39.8362L116.984 39.5878C116.539 41.3227 115.964 42.7977 115.266 44.0199L116.134 44.5161ZM117.952 39.8362C118.419 38.0165 118.648 35.8646 118.648 33.388H117.648C117.648 35.8074 117.424 37.8715 116.984 39.5878L117.952 39.8362ZM118.648 33.388C118.648 32.164 118.483 30.9205 118.156 29.6585L117.188 29.9095C117.495 31.0955 117.648 32.2546 117.648 33.388H118.648ZM118.16 29.6755C117.877 28.4033 117.427 27.2618 116.805 26.2568L115.955 26.7832C116.511 27.6821 116.923 28.7167 117.184 29.8925L118.16 29.6755ZM116.81 26.2656C116.185 25.2067 115.384 24.3551 114.408 23.7208L113.864 24.5592C114.701 25.1036 115.397 25.8386 115.95 26.7744L116.81 26.2656ZM114.423 23.7304C113.42 23.0285 112.228 22.688 110.872 22.688V23.688C112.054 23.688 113.039 23.9821 113.849 24.5496L114.423 23.7304ZM110.872 22.688C109.614 22.688 108.498 22.9793 107.545 23.5813L108.079 24.4267C108.849 23.9407 109.773 23.688 110.872 23.688V22.688ZM107.561 23.5713C106.642 24.1034 105.846 24.8042 105.173 25.669L105.963 26.283C106.559 25.5158 107.259 24.9019 108.063 24.4367L107.561 23.5713ZM105.163 25.6833C104.546 26.537 104.028 27.5042 103.606 28.5818L104.538 28.9462C104.932 27.9384 105.411 27.047 105.973 26.2687L105.163 25.6833ZM103.606 28.5818C103.191 29.642 102.845 30.7034 102.568 31.7658L103.536 32.0182C103.803 30.9953 104.137 29.9713 104.538 28.9462L103.606 28.5818ZM102.552 31.892V66.164H103.552V31.892H102.552ZM102.552 66.164C102.552 66.4172 102.638 66.648 102.772 66.8493L103.604 66.2946C103.557 66.224 103.552 66.1828 103.552 66.164H102.552ZM102.911 66.988C103.125 67.1309 103.45 67.2378 103.815 67.3291L104.057 66.3589C103.697 66.2689 103.523 66.1944 103.465 66.156L102.911 66.988ZM103.815 67.3291C104.218 67.43 104.75 67.5005 105.396 67.5467L105.468 66.5493C104.845 66.5048 104.379 66.4394 104.057 66.3589L103.815 67.3291ZM105.399 67.5469C106.094 67.5932 106.967 67.616 108.016 67.616V66.616C106.979 66.616 106.13 66.5934 105.465 66.5491L105.399 67.5469ZM107.516 67.116V68H108.516V67.116H107.516ZM108.016 67.5H95.3V68.5H108.016V67.5ZM95.8 68V67.116H94.8V68H95.8ZM95.3 67.616C96.3928 67.616 97.2677 67.5933 97.9196 67.5467L97.8484 66.5493C97.231 66.5934 96.3832 66.616 95.3 66.616V67.616ZM97.9196 67.5467C98.5633 67.5008 99.081 67.43 99.4494 67.3248L99.1746 66.3632C98.9084 66.4393 98.4741 66.5046 97.8484 66.5493L97.9196 67.5467ZM99.4333 67.3291C99.7984 67.2378 100.123 67.1309 100.337 66.988L99.7826 66.156C99.725 66.1944 99.5509 66.2689 99.1907 66.3589L99.4333 67.3291ZM100.414 66.9256C100.587 66.7526 100.73 66.5525 100.806 66.3221L99.8577 66.0059C99.8438 66.0475 99.8054 66.1194 99.7064 66.2184L100.414 66.9256ZM100.832 66.164V31.62H99.832V66.164H100.832Z" fill="#FFE601"/>
</svg>
