<svg width="20" height="20" viewBox="0 0 20 20" fill="none" xmlns="http://www.w3.org/2000/svg">
<g clip-path="url(#clip0)">
<path d="M19.2336 4.08383C18.4662 3.02786 17.1223 2.07473 15.4494 1.40012C13.7855 0.729183 11.8537 0.358168 10.0096 0.355512C8.16531 0.350902 6.23105 0.71809 4.5648 1.38383C2.88902 2.0534 1.54187 3.00239 0.771674 4.05586C0.0319082 5.0677 -0.181295 6.15829 0.155072 7.20973C0.373275 7.89184 1.0098 8.35079 1.73937 8.35184L4.23745 8.35418C4.23828 8.35418 4.2391 8.35418 4.23995 8.35418C4.73808 8.35414 5.20609 8.1361 5.52413 7.75567C5.83882 7.3793 5.96917 6.88743 5.88179 6.4061C5.87925 6.392 5.87613 6.37793 5.87257 6.36399L5.74113 5.85297C6.46902 5.50567 8.11824 4.83465 10.0019 4.84532C11.8841 4.85496 13.5322 5.52559 14.261 5.87305L14.1275 6.38118C14.1237 6.39555 14.1205 6.41004 14.1177 6.42461C14.029 6.90567 14.1579 7.39789 14.4715 7.77516C14.789 8.15719 15.2574 8.37664 15.7568 8.37739L18.2549 8.37973C18.2557 8.37973 18.2566 8.37973 18.2574 8.37973C18.9855 8.37969 19.6223 7.92286 19.8421 7.24219C20.1816 6.19098 19.9712 5.09883 19.2336 4.08383ZM18.7062 6.87524C18.6471 7.05836 18.4626 7.1861 18.2569 7.1861C18.2568 7.1861 18.2565 7.1861 18.2562 7.1861L15.7582 7.18375C15.6143 7.18356 15.4798 7.12102 15.3894 7.01215C15.3402 6.95297 15.2634 6.82989 15.2885 6.65871L15.5371 5.71328C15.6052 5.45418 15.4923 5.18153 15.261 5.04629C15.1646 4.98996 12.8677 3.66629 10.008 3.65157C9.99206 3.65149 9.97663 3.65145 9.96078 3.65145C7.11949 3.65145 4.83886 4.96934 4.74265 5.02575C4.51285 5.16051 4.40019 5.43121 4.46656 5.68926L4.71015 6.63621C4.73503 6.80774 4.65781 6.93082 4.60839 6.98996C4.51781 7.09832 4.38351 7.16043 4.2396 7.16043C4.23937 7.16043 4.23913 7.16043 4.2389 7.16043L1.74078 7.15809C1.53519 7.15778 1.35062 7.02942 1.29195 6.8459C1.07351 6.16305 1.22265 5.46129 1.73523 4.7602C3.09683 2.89786 6.56558 1.54899 9.98921 1.54899C9.99531 1.54899 10.0018 1.54899 10.0079 1.54899C13.435 1.55391 16.9089 2.91504 18.2682 4.78543C18.7794 5.48922 18.9269 6.19231 18.7062 6.87524Z" fill="#FFE601"/>
<path d="M15.6482 10.93L13.7853 8.9739C13.6726 8.85562 13.5165 8.7887 13.3532 8.7887H12.1492V7.97531C12.1492 7.6457 11.8821 7.37851 11.5524 7.37851C11.2229 7.37851 10.9557 7.6457 10.9557 7.97531V8.7887H9.04464V7.97531C9.04464 7.6457 8.77745 7.37851 8.44784 7.37851C8.11823 7.37851 7.85104 7.6457 7.85104 7.97531V8.7887H6.64718C6.48385 8.7887 6.32764 8.85566 6.21503 8.9739L4.35214 10.93C2.89151 12.4636 2.0871 14.4746 2.0871 16.5925V19.0477C2.0871 19.3773 2.35428 19.6445 2.68389 19.6445H17.3164C17.646 19.6445 17.9132 19.3773 17.9132 19.0477V16.5925C17.9133 14.4746 17.1089 12.4636 15.6482 10.93ZM3.28069 18.4509V16.5925C3.28069 14.7825 3.96815 13.0639 5.21651 11.7531L6.903 9.98222H13.0974L14.7839 11.7531C16.0321 13.0638 16.7196 14.7825 16.7196 16.5925V18.4509H3.28069Z" fill="#FFE601"/>
<path d="M10.0002 11.2162C8.27796 11.2162 6.87683 12.6174 6.87683 14.3396C6.87683 16.0619 8.278 17.463 10.0002 17.463C11.7225 17.463 13.1236 16.0619 13.1236 14.3396C13.1236 12.6173 11.7225 11.2162 10.0002 11.2162ZM10.0002 16.2694C8.93609 16.2694 8.07043 15.4037 8.07043 14.3396C8.07043 13.2755 8.93613 12.4098 10.0002 12.4098C11.0643 12.4098 11.93 13.2755 11.93 14.3396C11.93 15.4037 11.0643 16.2694 10.0002 16.2694Z" fill="#FFE601"/>
</g>
<defs>
<clipPath id="clip0">
<rect width="20" height="20" fill="white"/>
</clipPath>
</defs>
</svg>
