<svg height="512pt" viewBox="0 0 512 512" width="512pt" xmlns="http://www.w3.org/2000/svg"><path d="M494.5 0h-477C7.852 0 0 7.852 0 17.5v304.465c0 6.922 3.363 13.46 8.992 17.484l73.77 52.754a7.459 7.459 0 004.355 1.402 7.496 7.496 0 006.106-3.14 7.495 7.495 0 00-1.739-10.461L17.72 327.25A6.514 6.514 0 0115 321.965V17.5c0-1.379 1.121-2.5 2.5-2.5h477c1.379 0 2.5 1.121 2.5 2.5V64c0 4.14 3.355 7.5 7.5 7.5s7.5-3.36 7.5-7.5V17.5C512 7.852 504.148 0 494.5 0zm0 0M504.5 140.422a7.5 7.5 0 00-7.5 7.5v174.043a6.514 6.514 0 01-2.719 5.285L257.656 496.469a2.858 2.858 0 01-3.316 0l-136.832-97.856a7.5 7.5 0 00-8.723 12.2l136.828 97.855C248.723 510.891 252.36 512 256 512s7.277-1.11 10.383-3.332l236.625-169.219A21.539 21.539 0 00512 321.965V147.922a7.5 7.5 0 00-7.5-7.5zm0 0M504.5 88.27a7.5 7.5 0 00-7.5 7.5v20c0 4.14 3.355 7.5 7.5 7.5s7.5-3.36 7.5-7.5v-20a7.5 7.5 0 00-7.5-7.5zm0 0"/><path d="M256 476.281c2.605 0 5.21-.793 7.434-2.383l213.222-152.484A12.8 12.8 0 00482 311.02V42.777C482 35.73 476.27 30 469.223 30H42.777C35.73 30 30 35.73 30 42.777V311.02c0 4.113 1.996 8 5.344 10.394L248.57 473.898a12.739 12.739 0 007.43 2.383zM45 45h422v264.879L256 460.773 45 309.88zm0 0"/><path d="M64.914 52.5c-4.14 0-7.5 3.36-7.5 7.5v4a7.5 7.5 0 1015 0v-4a7.5 7.5 0 00-7.5-7.5zm0 0M447.086 71.5c4.14 0 7.5-3.36 7.5-7.5v-4a7.5 7.5 0 10-15 0v4a7.5 7.5 0 007.5 7.5zm0 0M64.914 292.617a7.5 7.5 0 00-7.5 7.5v4a7.5 7.5 0 1015 0v-4c0-4.144-3.355-7.5-7.5-7.5zm0 0M447.086 311.617c4.14 0 7.5-3.36 7.5-7.5v-4a7.5 7.5 0 00-7.5-7.5 7.497 7.497 0 00-7.5 7.5v4a7.5 7.5 0 007.5 7.5zm0 0M263.5 431.879v-4c0-4.14-3.355-7.5-7.5-7.5s-7.5 3.36-7.5 7.5v4c0 4.14 3.355 7.5 7.5 7.5s7.5-3.36 7.5-7.5zm0 0"/></svg>