<svg xmlns="http://www.w3.org/2000/svg" xmlns:xlink="http://www.w3.org/1999/xlink" viewBox="0 0 500 500"><defs><clipPath id="freepik--clip-path--inject-18"><rect x="76.79" y="208.58" width="340.71" height="192.54" style="fill:#f2f2f2;stroke:#263238;stroke-linecap:round;stroke-linejoin:round"></rect></clipPath></defs><g id="freepik--background-simple--inject-18"><path d="M478.81,288.9s23.45-124-40.44-194.44C382,32.33,292.67,8.17,219.88,59.55c-25.93,18.3-44.81,53.84-75.11,64.83-34,12.31-77.64,16.71-109.18,69.5S15.37,314.41,57.42,350.49s115.66.87,182-1.76S444,442,478.81,288.9Z" style="fill:#FA4639"></path><path d="M478.81,288.9s23.45-124-40.44-194.44C382,32.33,292.67,8.17,219.88,59.55c-25.93,18.3-44.81,53.84-75.11,64.83-34,12.31-77.64,16.71-109.18,69.5S15.37,314.41,57.42,350.49s115.66.87,182-1.76S444,442,478.81,288.9Z" style="fill:#fff;opacity:0.8"></path></g><g id="freepik--Graphics--inject-18"><path d="M384.37,80.38H356V54.48h28.39Zm-27.39-1h26.39V55.48H357Z" style="fill:#FA4639"></path><path d="M431.61,133.06H403.22v-25.9h28.39Zm-27.39-1h26.39v-23.9H404.22Z" style="fill:#FA4639"></path><path d="M431.61,101.28H403.22V75.38h28.39Zm-27.39-1h26.39V76.38H404.22Z" style="fill:#FA4639"></path><polygon points="404.18 121.36 369.03 121.36 369.03 79.92 370.03 79.92 370.03 120.36 404.18 120.36 404.18 121.36" style="fill:#FA4639"></polygon><rect x="369.82" y="89.44" width="33.78" height="1" style="fill:#FA4639"></rect><path d="M211.83,156.62H183.44v-25.9h28.39Zm-27.39-1h26.39v-23.9H184.44Z" style="fill:#FA4639"></path><path d="M259.08,209.3h-28.4V183.4h28.4Zm-27.4-1h26.4V184.4h-26.4Z" style="fill:#FA4639"></path><path d="M259.08,177.52h-28.4v-25.9h28.4Zm-27.4-1h26.4v-23.9h-26.4Z" style="fill:#FA4639"></path><polygon points="231.64 197.6 196.5 197.6 196.5 156.16 197.5 156.16 197.5 196.6 231.64 196.6 231.64 197.6" style="fill:#FA4639"></polygon><rect x="197.29" y="165.68" width="33.78" height="1" style="fill:#FA4639"></rect><circle cx="274.06" cy="75.73" r="2.16" style="fill:#FA4639"></circle><circle cx="296.19" cy="75.73" r="2.16" style="fill:#FA4639"></circle><circle cx="318.31" cy="75.73" r="2.16" style="fill:#FA4639"></circle><circle cx="340.44" cy="75.73" r="2.16" style="fill:#FA4639"></circle><circle cx="274.06" cy="89.22" r="2.16" style="fill:#FA4639"></circle><circle cx="296.19" cy="89.22" r="2.16" style="fill:#FA4639"></circle><circle cx="318.31" cy="89.22" r="2.16" style="fill:#FA4639"></circle><circle cx="340.44" cy="89.22" r="2.16" style="fill:#FA4639"></circle><circle cx="274.06" cy="102.72" r="2.16" style="fill:#FA4639"></circle><circle cx="296.19" cy="102.72" r="2.16" style="fill:#FA4639"></circle><circle cx="318.31" cy="102.72" r="2.16" style="fill:#FA4639"></circle><circle cx="340.44" cy="102.72" r="2.16" style="fill:#FA4639"></circle><circle cx="274.06" cy="116.21" r="2.16" style="fill:#FA4639"></circle><circle cx="296.19" cy="116.21" r="2.16" style="fill:#FA4639"></circle><circle cx="318.31" cy="116.21" r="2.16" style="fill:#FA4639"></circle><circle cx="340.44" cy="116.21" r="2.16" style="fill:#FA4639"></circle><circle cx="274.06" cy="128.62" r="2.16" style="fill:#FA4639"></circle><circle cx="296.19" cy="128.62" r="2.16" style="fill:#FA4639"></circle><circle cx="318.31" cy="128.62" r="2.16" style="fill:#FA4639"></circle><circle cx="340.44" cy="128.62" r="2.16" style="fill:#FA4639"></circle><path d="M274.06,140a2.16,2.16,0,1,0,2.16,2.16A2.15,2.15,0,0,0,274.06,140Z" style="fill:#FA4639"></path><path d="M296.19,140a2.16,2.16,0,1,0,2.15,2.16A2.15,2.15,0,0,0,296.19,140Z" style="fill:#FA4639"></path><path d="M318.31,140a2.16,2.16,0,1,0,2.16,2.16A2.16,2.16,0,0,0,318.31,140Z" style="fill:#FA4639"></path><path d="M340.44,140a2.16,2.16,0,1,0,2.16,2.16A2.16,2.16,0,0,0,340.44,140Z" style="fill:#FA4639"></path><circle cx="274.06" cy="155.61" r="2.16" style="fill:#FA4639"></circle><circle cx="296.19" cy="155.61" r="2.16" style="fill:#FA4639"></circle><circle cx="318.31" cy="155.61" r="2.16" style="fill:#FA4639"></circle><circle cx="340.44" cy="155.61" r="2.16" style="fill:#FA4639"></circle><path d="M274.06,166.94a2.16,2.16,0,1,0,2.16,2.16A2.16,2.16,0,0,0,274.06,166.94Z" style="fill:#FA4639"></path><path d="M296.19,166.94a2.16,2.16,0,1,0,2.15,2.16A2.16,2.16,0,0,0,296.19,166.94Z" style="fill:#FA4639"></path><path d="M318.31,166.94a2.16,2.16,0,1,0,2.16,2.16A2.16,2.16,0,0,0,318.31,166.94Z" style="fill:#FA4639"></path><path d="M340.44,166.94a2.16,2.16,0,1,0,2.16,2.16A2.16,2.16,0,0,0,340.44,166.94Z" style="fill:#FA4639"></path><circle cx="405.67" cy="196.77" r="2.16" style="fill:#FA4639"></circle><circle cx="427.8" cy="196.77" r="2.16" style="fill:#FA4639"></circle><circle cx="449.93" cy="196.77" r="2.16" transform="translate(-25.59 74.16) rotate(-9.16)" style="fill:#FA4639"></circle><path d="M472.06,198.93a2.16,2.16,0,1,0-2.16-2.16A2.16,2.16,0,0,0,472.06,198.93Z" style="fill:#FA4639"></path><circle cx="405.67" cy="210.26" r="2.16" style="fill:#FA4639"></circle><circle cx="427.8" cy="210.26" r="2.16" style="fill:#FA4639"></circle><circle cx="449.93" cy="210.26" r="2.16" transform="translate(-27.74 74.33) rotate(-9.16)" style="fill:#FA4639"></circle><path d="M472.06,208.11a2.16,2.16,0,1,0,2.16,2.15A2.16,2.16,0,0,0,472.06,208.11Z" style="fill:#FA4639"></path><circle cx="405.67" cy="223.76" r="2.16" style="fill:#FA4639"></circle><circle cx="427.8" cy="223.76" r="2.16" style="fill:#FA4639"></circle><circle cx="449.93" cy="223.76" r="2.16" transform="translate(-29.89 74.5) rotate(-9.16)" style="fill:#FA4639"></circle><path d="M472.06,221.6a2.16,2.16,0,1,0,2.16,2.16A2.16,2.16,0,0,0,472.06,221.6Z" style="fill:#FA4639"></path><circle cx="405.67" cy="237.25" r="2.16" style="fill:#FA4639"></circle><circle cx="427.8" cy="237.25" r="2.16" style="fill:#FA4639"></circle><circle cx="449.93" cy="237.25" r="2.16" transform="translate(-32.04 74.67) rotate(-9.16)" style="fill:#FA4639"></circle><path d="M472.06,235.09a2.16,2.16,0,1,0,2.16,2.16A2.16,2.16,0,0,0,472.06,235.09Z" style="fill:#FA4639"></path><circle cx="405.67" cy="249.66" r="2.16" style="fill:#FA4639"></circle><circle cx="427.8" cy="249.66" r="2.16" style="fill:#FA4639"></circle><circle cx="449.93" cy="249.66" r="2.16" transform="translate(-34.01 74.83) rotate(-9.16)" style="fill:#FA4639"></circle><path d="M472.06,251.82a2.16,2.16,0,1,0-2.16-2.16A2.16,2.16,0,0,0,472.06,251.82Z" style="fill:#FA4639"></path><circle cx="405.67" cy="263.16" r="2.16" style="fill:#FA4639"></circle><circle cx="427.8" cy="263.16" r="2.16" style="fill:#FA4639"></circle><circle cx="449.93" cy="263.16" r="2.16" transform="translate(-36.16 75) rotate(-9.16)" style="fill:#FA4639"></circle><path d="M472.06,261a2.16,2.16,0,1,0,2.16,2.16A2.16,2.16,0,0,0,472.06,261Z" style="fill:#FA4639"></path><circle cx="405.67" cy="276.65" r="2.16" style="fill:#FA4639"></circle><circle cx="427.8" cy="276.65" r="2.16" style="fill:#FA4639"></circle><circle cx="449.93" cy="276.65" r="2.16" transform="translate(-38.31 75.17) rotate(-9.16)" style="fill:#FA4639"></circle><path d="M472.06,274.49a2.16,2.16,0,1,0,2.16,2.16A2.16,2.16,0,0,0,472.06,274.49Z" style="fill:#FA4639"></path><path d="M405.67,288a2.16,2.16,0,1,0,2.16,2.16A2.16,2.16,0,0,0,405.67,288Z" style="fill:#FA4639"></path><path d="M427.8,288a2.16,2.16,0,1,0,2.16,2.16A2.16,2.16,0,0,0,427.8,288Z" style="fill:#FA4639"></path><path d="M449.93,288a2.16,2.16,0,1,0,2.16,2.16A2.16,2.16,0,0,0,449.93,288Z" style="fill:#FA4639"></path><path d="M472.06,288a2.16,2.16,0,1,0,2.16,2.16A2.16,2.16,0,0,0,472.06,288Z" style="fill:#FA4639"></path><circle cx="139.79" cy="102.46" r="2.16" style="fill:#FA4639"></circle><circle cx="161.92" cy="102.46" r="2.16" style="fill:#FA4639"></circle><circle cx="184.04" cy="102.46" r="2.16" style="fill:#FA4639"></circle><circle cx="206.17" cy="102.46" r="2.16" style="fill:#FA4639"></circle><path d="M139.79,113.79A2.16,2.16,0,1,0,142,116,2.16,2.16,0,0,0,139.79,113.79Z" style="fill:#FA4639"></path><path d="M161.92,113.79a2.16,2.16,0,1,0,2.15,2.16A2.16,2.16,0,0,0,161.92,113.79Z" style="fill:#FA4639"></path><path d="M184,113.79A2.16,2.16,0,1,0,186.2,116,2.16,2.16,0,0,0,184,113.79Z" style="fill:#FA4639"></path><path d="M206.17,113.79a2.16,2.16,0,1,0,2.16,2.16A2.16,2.16,0,0,0,206.17,113.79Z" style="fill:#FA4639"></path><circle cx="139.79" cy="129.44" r="2.16" style="fill:#FA4639"></circle><circle cx="161.92" cy="129.44" r="2.16" style="fill:#FA4639"></circle><circle cx="184.04" cy="129.44" r="2.16" style="fill:#FA4639"></circle><circle cx="206.17" cy="129.44" r="2.16" style="fill:#FA4639"></circle><path d="M139.79,140.78a2.16,2.16,0,1,0,2.16,2.16A2.16,2.16,0,0,0,139.79,140.78Z" style="fill:#FA4639"></path><path d="M161.92,140.78a2.16,2.16,0,1,0,2.15,2.16A2.15,2.15,0,0,0,161.92,140.78Z" style="fill:#FA4639"></path><path d="M184,140.78a2.16,2.16,0,1,0,2.16,2.16A2.15,2.15,0,0,0,184,140.78Z" style="fill:#FA4639"></path><path d="M206.17,140.78a2.16,2.16,0,1,0,2.16,2.16A2.16,2.16,0,0,0,206.17,140.78Z" style="fill:#FA4639"></path><path d="M34.51,362.85a2.16,2.16,0,1,0,2.16-2.16A2.16,2.16,0,0,0,34.51,362.85Z" style="fill:#FA4639"></path><path d="M34.51,340.73a2.16,2.16,0,1,0,2.16-2.16A2.16,2.16,0,0,0,34.51,340.73Z" style="fill:#FA4639"></path><path d="M34.51,318.6a2.16,2.16,0,1,0,2.16-2.16A2.16,2.16,0,0,0,34.51,318.6Z" style="fill:#FA4639"></path><path d="M38.83,296.47a2.16,2.16,0,1,0-2.16,2.16A2.16,2.16,0,0,0,38.83,296.47Z" style="fill:#FA4639"></path><path d="M48,362.85a2.16,2.16,0,1,0,2.16-2.16A2.16,2.16,0,0,0,48,362.85Z" style="fill:#FA4639"></path><circle cx="50.16" cy="340.73" r="2.16" style="fill:#FA4639"></circle><circle cx="50.16" cy="318.6" r="2.16" style="fill:#FA4639"></circle><circle cx="50.16" cy="296.47" r="2.16" style="fill:#FA4639"></circle><path d="M61.5,362.85a2.16,2.16,0,1,0,2.16-2.16A2.15,2.15,0,0,0,61.5,362.85Z" style="fill:#FA4639"></path><circle cx="63.66" cy="340.73" r="2.16" style="fill:#FA4639"></circle><circle cx="63.66" cy="318.6" r="2.16" style="fill:#FA4639"></circle><circle cx="63.66" cy="296.47" r="2.16" style="fill:#FA4639"></circle><path d="M75,362.85a2.16,2.16,0,1,0,2.16-2.16A2.16,2.16,0,0,0,75,362.85Z" style="fill:#FA4639"></path><circle cx="77.15" cy="340.73" r="2.16" style="fill:#FA4639"></circle><circle cx="77.15" cy="318.6" r="2.16" style="fill:#FA4639"></circle><circle cx="77.15" cy="296.47" r="2.16" style="fill:#FA4639"></circle><path d="M87.4,362.85a2.16,2.16,0,1,0,2.16-2.16A2.16,2.16,0,0,0,87.4,362.85Z" style="fill:#FA4639"></path><circle cx="89.56" cy="340.73" r="2.16" style="fill:#FA4639"></circle><circle cx="89.56" cy="318.6" r="2.16" style="fill:#FA4639"></circle><circle cx="89.56" cy="296.47" r="2.16" style="fill:#FA4639"></circle><path d="M100.9,362.85a2.16,2.16,0,1,0,2.16-2.16A2.15,2.15,0,0,0,100.9,362.85Z" style="fill:#FA4639"></path><circle cx="103.06" cy="340.73" r="2.16" style="fill:#FA4639"></circle><circle cx="103.06" cy="318.6" r="2.16" style="fill:#FA4639"></circle><circle cx="103.06" cy="296.47" r="2.16" style="fill:#FA4639"></circle><path d="M114.39,362.85a2.16,2.16,0,1,0,2.16-2.16A2.16,2.16,0,0,0,114.39,362.85Z" style="fill:#FA4639"></path><path d="M114.39,340.73a2.16,2.16,0,1,0,2.16-2.16A2.16,2.16,0,0,0,114.39,340.73Z" style="fill:#FA4639"></path><path d="M114.39,318.6a2.16,2.16,0,1,0,2.16-2.16A2.16,2.16,0,0,0,114.39,318.6Z" style="fill:#FA4639"></path><path d="M114.39,296.47a2.16,2.16,0,1,0,2.16-2.16A2.16,2.16,0,0,0,114.39,296.47Z" style="fill:#FA4639"></path><path d="M127.88,362.85a2.16,2.16,0,1,0,2.16-2.16A2.16,2.16,0,0,0,127.88,362.85Z" style="fill:#FA4639"></path><circle cx="130.04" cy="340.73" r="2.16" style="fill:#FA4639"></circle><circle cx="130.04" cy="318.6" r="2.16" style="fill:#FA4639"></circle><circle cx="130.04" cy="296.47" r="2.16" style="fill:#FA4639"></circle><path d="M34.51,271.39a2.16,2.16,0,1,0,2.16-2.16A2.16,2.16,0,0,0,34.51,271.39Z" style="fill:#FA4639"></path><path d="M34.51,249.26a2.16,2.16,0,1,0,2.16-2.16A2.16,2.16,0,0,0,34.51,249.26Z" style="fill:#FA4639"></path><path d="M34.51,227.13A2.16,2.16,0,1,0,36.67,225,2.16,2.16,0,0,0,34.51,227.13Z" style="fill:#FA4639"></path><path d="M38.83,205a2.16,2.16,0,1,0-2.16,2.16A2.16,2.16,0,0,0,38.83,205Z" style="fill:#FA4639"></path><circle cx="50.16" cy="271.39" r="2.16" style="fill:#FA4639"></circle><circle cx="50.16" cy="249.26" r="2.16" style="fill:#FA4639"></circle><circle cx="50.16" cy="227.13" r="2.16" style="fill:#FA4639"></circle><circle cx="50.16" cy="205" r="2.16" style="fill:#FA4639"></circle><circle cx="63.66" cy="271.39" r="2.16" style="fill:#FA4639"></circle><circle cx="63.66" cy="249.26" r="2.16" style="fill:#FA4639"></circle><circle cx="63.66" cy="227.13" r="2.16" style="fill:#FA4639"></circle><circle cx="63.66" cy="205" r="2.16" style="fill:#FA4639"></circle><circle cx="77.15" cy="271.39" r="2.16" style="fill:#FA4639"></circle><circle cx="77.15" cy="249.26" r="2.16" style="fill:#FA4639"></circle><circle cx="77.15" cy="227.13" r="2.16" style="fill:#FA4639"></circle><circle cx="77.15" cy="205" r="2.16" style="fill:#FA4639"></circle><circle cx="89.56" cy="271.39" r="2.16" style="fill:#FA4639"></circle><circle cx="89.56" cy="249.26" r="2.16" style="fill:#FA4639"></circle><circle cx="89.56" cy="227.13" r="2.16" style="fill:#FA4639"></circle><circle cx="89.56" cy="205" r="2.16" style="fill:#FA4639"></circle><circle cx="103.06" cy="271.39" r="2.16" style="fill:#FA4639"></circle><circle cx="103.06" cy="249.26" r="2.16" style="fill:#FA4639"></circle><circle cx="103.06" cy="227.13" r="2.16" style="fill:#FA4639"></circle><circle cx="103.06" cy="205" r="2.16" style="fill:#FA4639"></circle><path d="M114.39,271.39a2.16,2.16,0,1,0,2.16-2.16A2.16,2.16,0,0,0,114.39,271.39Z" style="fill:#FA4639"></path><path d="M114.39,249.26a2.16,2.16,0,1,0,2.16-2.16A2.16,2.16,0,0,0,114.39,249.26Z" style="fill:#FA4639"></path><path d="M114.39,227.13a2.16,2.16,0,1,0,2.16-2.16A2.16,2.16,0,0,0,114.39,227.13Z" style="fill:#FA4639"></path><path d="M114.39,205a2.16,2.16,0,1,0,2.16-2.16A2.16,2.16,0,0,0,114.39,205Z" style="fill:#FA4639"></path><circle cx="130.04" cy="271.39" r="2.16" style="fill:#FA4639"></circle><circle cx="130.04" cy="249.26" r="2.16" style="fill:#FA4639"></circle><circle cx="130.04" cy="227.13" r="2.16" style="fill:#FA4639"></circle><circle cx="130.04" cy="205" r="2.16" style="fill:#FA4639"></circle></g><g id="freepik--Plants--inject-18"><path d="M199.57,117.42c-5.3,1.26-8.24,5.14-11.62,9.07a42,42,0,0,1-5,5.53c.06-.28.11-.56.16-.84A104.24,104.24,0,0,0,184.42,117c2.42-.53,8-1.79,11.9-3,5.37-1.6,14-7.2,11.52-13.83C206,95.34,200.76,96,196.94,98c-4.82,2.53-6.71,7-9,11.64a42.93,42.93,0,0,1-3.48,6.55c.11-4.62-.06-8.27-.16-9.92,1.16-2.31,3.6-7.28,5.09-10.93,2.12-5.19,3.18-15.42-3.53-17.65-5-1.65-7.71,2.88-8.55,7.11-1.06,5.34,1.24,9.62,3.4,14.33a45.82,45.82,0,0,1,2.86,6.61c0,.35.06,1,.1,1.77a.06.06,0,0,0,0,0v0c.08,1.67.16,4.21.12,7.28-.68-2.77-1.82-7.26-2.87-10.54-1.7-5.33-7.47-13.85-14-11.24-4.86,1.92-4.06,7.16-2,10.94,2.63,4.77,7.14,6.58,11.82,8.79,1,.49,5.39,2.23,7,3.7,0,.16,0,.33,0,.5a1.18,1.18,0,0,1-.5.27l.49-.1a101.62,101.62,0,0,1-1.33,13.91c-.06.36-.14.74-.22,1.12-.93-1.84-3.82-7.51-6.09-11.27-2.9-4.79-10.49-11.73-16.28-7.66-4.27,3-2.28,7.91.62,11.1,3.66,4,8.47,4.73,13.54,5.8,1.22.26,6.64,1,8.17,2.25l0,.12a1.25,1.25,0,0,1-.56.14l.52,0c-.5,2.28-1.27,4.89-2.14,7.83-.82,2.77-1.72,5.83-2.55,9.13-1-2.4-3.17-7.46-5-11-2.55-5-9.61-12.47-15.68-8.84-4.48,2.69-2.85,7.73-.19,11.12,3.36,4.29,8.11,5.34,13.08,6.77,1.11.32,5.75,1.34,7.59,2.54a93.55,93.55,0,0,0-2.35,13.23c-1.24-1.62-5.14-6.68-8.08-10-3.73-4.17-12.47-9.59-17.41-4.53-3.65,3.74-.78,8.2,2.65,10.8,4.35,3.28,9.21,3.09,14.38,3.2,1.25,0,6.71-.21,8.44.71a67.93,67.93,0,0,0,.24,15.56,1.2,1.2,0,0,1-.2,0l.21.07c0,.12,0,.24,0,.36-1.21-1.07-6.38-5.62-10.1-8.42-4.09-3.08-12.47-6.34-16.83-2.36-1-3.41-4.47-3.9-7.41-2.41-4,2-5.37,5.46-8.07,9.36-.64.94-2.7,4.75-4.15,5.64-.5-3.49-.67-7.21-1.05-10.76-.29.1-.53.15.49-.39,1.78-.95,5.58-2.38,9-4.67s8.27-8.88,4.79-13.81c-2.57-3.64-6.27-2.89-8.46.13-2.78,3.82-2.1,7.25-3.14,11.9-.28,1.24-1,5.57-2.62,6.65h0c-.36-2.63-.26-5.59-.87-8.12s-1.91-4.65-2.84-7c2.88-1.92,4.77-2.79,7.58-5.42,3.9-3.63,6.19-10,2.36-14.75-2.82-3.47-6.77-2.74-8.93.49-2.73,4.08-1.56,7.86-1.44,12.77,0,1,.57,4.82.14,6.25a7,7,0,0,1-.36-.65,95.17,95.17,0,0,0-7.86-11.76,85.72,85.72,0,0,0,5.2-8.07c2.52-4.74,2.93-12.09-2-15.58-3.62-2.57-7.12-.86-8.54,2.81-1.79,4.63.9,8.74,2.56,13.52.34,1,2.09,5.05,2.25,6.61-2.12-2.59-4.41-5.28-6.82-7.78-1.38-3.47-3.27-7.74-4.85-10.93-2.23-4.55-6.18-10.69-11.29-8.69-3.78,1.47-3.58,5.11-1.67,8.11,2.41,3.79,6.56,5.54,11,7.93a48,48,0,0,1,6,3.56c.19.16,1.12,1.12,1.26,1.27l.06.06h0c1.73,1.83,3.44,3.78,5,5.72-2.58-2.23-6.11-5-8.75-6.84-4.31-3-12-6.24-14.55-.57-1.9,4.18,2.19,6.77,5.48,8.3,4.16,1.92,7.71,1.3,12.54.8,1.07-.11,4.81-.75,6.33-.33.11,0,.3.3.35.38a.56.56,0,0,1,0,.24.91.91,0,0,0,.1-.1,95.29,95.29,0,0,1,7.66,11.53c.17.31.34.64.49.94-3.34-2.08-7-4.25-10.41-6.07-4.41-2.32-12.34-4.11-14,1.68-1.22,4.28,2.73,6.34,6.08,7.34,4.24,1.26,7.64.08,12.12-1.22,1.08-.32,4.63-1.87,6.28-1.52,0,0,.09,0,.07.09a1,1,0,0,1-.08.18l.16,0c.88,2.27,2.15,4.43,2.74,6.81s.52,4.95.85,7.39a35.81,35.81,0,0,0-7.2-6.07c-4-2.58-11.55-5.19-14.42-.24-2.12,3.66,1,6.24,4.08,7.59,3.84,1.72,7.3.82,11.68.09,1-.17,4.44-1.1,5.84-.82.44,3.7.59,7.45,1.11,11.17-2.71-2-4.56-3.6-7.83-5.1-3.8-1.73-9.8-2-12.46,1.61a8.68,8.68,0,0,0-2.31-2.95c-3.46-2.84-7.19-1.35-8.66,2.24-1.87,4.54,0,8,1.11,12.81.23,1,1.52,4.61,1.37,6.1-.13-.11-.31-.37-.48-.56a94.41,94.41,0,0,0-10-10,88.13,88.13,0,0,0,3.5-8.94c1.53-5.15.48-12.43-5-14.88-4.06-1.8-7.15.57-7.82,4.44-.84,4.89,2.61,8.4,5.19,12.75.52.89,3,4.53,3.5,6-2.59-2.11-5.36-4.3-8.22-6.27-2-3.13-4.74-6.94-6.91-9.76-3.09-4-8.17-9.26-12.79-6.29-3.41,2.2-2.5,5.73,0,8.29,3.11,3.23,7.52,4.13,12.34,5.59a48.86,48.86,0,0,1,6.61,2.3c.22.12,1.32.88,1.49,1l.07.05h0c2,1.45,4.11,3,6,4.61-3-1.67-7-3.67-9.93-5-4.82-2.11-13-3.75-14.38,2.31-1,4.47,3.49,6.2,7,7.05,4.46,1.07,7.82-.24,12.45-1.69,1-.32,4.57-1.69,6.14-1.58.12,0,.35.24.41.31a.5.5,0,0,1,.06.23l.09-.12a96.16,96.16,0,0,1,9.78,9.79c.23.27.46.56.67.83-3.69-1.39-7.66-2.8-11.41-3.89-4.78-1.4-12.9-1.59-13.38,4.41-.36,4.44,3.92,5.67,7.4,6,4.41.4,7.5-1.43,11.64-3.59,1-.53,4.18-2.75,5.86-2.73,0,0,.09,0,.09.07a1.08,1.08,0,0,1,0,.2l.15-.09c1.31,2.05,3,3.92,4,6.14s1.49,4.75,2.3,7.08A35.79,35.79,0,0,0,97.38,206c-4.44-1.74-12.34-2.81-14.18,2.61-1.35,4,2.26,5.91,5.5,6.64,4.1.92,7.32-.64,11.47-2.23.92-.35,4.14-1.95,5.57-1.95,1.15,3.54,2,7.18,3.28,10.72-3-1.41-5.17-2.62-8.67-3.44-4.46-1-11.19.13-12.34,5.31-.85,3.82,2.33,5.48,5.54,5.61,4.06.16,6.63-1.91,10.19-4.24.86-.56,3.77-3,5.29-3,1.53,4.1,3,8,5.89,11.38-.06,0-.13,0-.15.07s.11,0,.15,0,.39.19.17.17c-3.35-.28-5.87-1.41-9.57-1.91-4.45-.6-10.67,1.38-11.1,6.71-.32,3.94,3.64,4.92,6.8,4.47,4-.56,6.09-2.66,9.2-5.5.78-.71,3.2-3.4,4.73-3.68a62,62,0,0,0,13.44,9.52c.08-.15.17-.3.25-.46a59.21,59.21,0,0,1-13.33-9.49c3.33-1.09,6.06-1.64,9.43-3.21,4.52-2.1,10.08-6.74,8.17-12.25-1.42-4.07-5.34-3.56-8.26-1.43-3.69,2.69-4.92,6.54-6.86,11-.45,1-1.61,4.55-2.65,5.67-3-3.13-4.34-7.19-5.82-11.21a73,73,0,0,0,9.3-3.11c4.52-2,9.72-7.05,7.8-12.49-1.42-4-5.3-3.94-8.1-1.73-3.54,2.8-4.19,6.41-6.06,10.77-.45,1.05-1.71,5.19-2.95,6.34-1.18-3.31-2.09-6.93-3.16-10.33-.27.15-.49.25.4-.48,1.56-1.28,5-3.43,7.88-6.35a14.81,14.81,0,0,0,2.51-3.61c3.5-.05,5.88-1.58,9.22-3.58.91-.54,3.8-2.7,5.36-2.67a62,62,0,0,0,11.3,12l.33-.39a59.3,59.3,0,0,1-11.19-12c3.48-.4,6.26-.41,9.88-1.28,4.84-1.16,11.21-4.61,10.43-10.39a4.93,4.93,0,0,0-.85-2.26l.16.08c4.9,2.39,9.63,1.25,14.73.36,1.28-.23,7-1.62,8.64-.87a63.33,63.33,0,0,0,6.44,20.13l.62-.32a62.49,62.49,0,0,1-6.38-20c2.23.69,7.95,2.43,12,3.36,5.47,1.24,15.73.61,16.83-6.37.82-5.16-4.1-7.14-8.41-7.28-5.44-.17-9.29,2.8-13.58,5.71-1,.65-4.85,3.65-6.92,4.22a66.68,66.68,0,0,1-.25-15.35c1.9.6,8.08,2.49,12.41,3.48,5.46,1.24,15.73.61,16.83-6.37.81-5.16-4.1-7.14-8.41-7.28-5.44-.17-9.3,2.8-13.58,5.7-1,.7-5.25,4-7.23,4.3a92.1,92.1,0,0,1,2.25-12.88.59.59,0,0,1,.12.2,1.72,1.72,0,0,0-.09-.24c.23,0,8.26.34,13.48.13,5.6-.24,15.33-3.54,14.56-10.57-.56-5.19-5.83-5.81-10-4.81-5.3,1.26-8.23,5.14-11.61,9.06-.9,1.05-4.8,6.24-6.41,6.19l0,0c.89-3.64,1.88-7,2.77-10s1.67-5.66,2.18-8c2.48.08,8.22.24,12.26.08,5.6-.24,15.34-3.54,14.57-10.57C209,117,203.76,116.42,199.57,117.42Zm-67.89,77c-3.23-.94-5.48-2.55-9-3.77a12.81,12.81,0,0,0-5.88-.53l-.2-.22c-3.24-3.06-6.72-1.6-8.28,1.79-2,4.3-.61,7.52-.72,12.29,0,1.27.1,5.66-1.25,7l0,0c-.88-2.51-1.36-5.43-2.46-7.79s-2.79-4.18-4.15-6.28c2.43-2.45,4.11-3.68,6.35-6.81a14.31,14.31,0,0,0,2.4-5.55,8.33,8.33,0,0,0,3,1.32c4,1,6.87-.56,10.82-2.14,1-.38,4.29-2.15,5.79-1.92.69,4.32,1.32,8.45,3.52,12.32-.05,0-.12,0-.15,0s.11,0,.15,0S131.89,194.45,131.68,194.39Zm13-15c-4.15,1.91-6.12,5.44-8.9,9.38-.63.89-2.48,4.15-3.72,5-2.3-3.66-2.83-7.91-3.49-12.14a73.76,73.76,0,0,0,9.74-1.21,15.58,15.58,0,0,0,8.34-4.85,9,9,0,0,0,2.61,3.06A7.63,7.63,0,0,0,144.66,179.43Z" style="fill:#263238"></path><path d="M127.77,170.67c.2-.1,0,0-.2.05C127.55,170.75,127.59,170.76,127.77,170.67Z" style="fill:#263238"></path><path d="M123.05,155.91c0,.06.12,0,.18-.15C123.12,155.8,123,155.84,123.05,155.91Z" style="fill:#263238"></path><path d="M114.81,143.12c.06,0,.09-.08.11-.21C114.83,143,114.74,143.07,114.81,143.12Z" style="fill:#263238"></path><path d="M108.53,135.22s0,0,0,0S108.53,135.23,108.53,135.22Z" style="fill:#263238"></path><path d="M127.52,170.63a.41.41,0,0,0,0,.11l0,0C127.59,170.67,127.78,170.52,127.52,170.63Z" style="fill:#263238"></path><path d="M80.7,180.12Z" style="fill:#263238"></path><path d="M80.7,180.11h0S80.72,180.13,80.7,180.11Z" style="fill:#263238"></path><path d="M106.32,211.08l0,.1,0,0C106.39,211.1,106.54,210.91,106.32,211.08Z" style="fill:#263238"></path><path d="M106.57,211.07c.18-.14,0,0-.19.09C106.37,211.19,106.41,211.18,106.57,211.07Z" style="fill:#263238"></path><path d="M88.42,186.62c.06,0,.07-.1.06-.23C88.41,186.48,88.34,186.58,88.42,186.62Z" style="fill:#263238"></path><path d="M99,197.52c.06.06.11-.06.15-.17C99.07,197.4,99,197.47,99,197.52Z" style="fill:#263238"></path><path d="M422.34,146.73h0S422.32,146.76,422.34,146.73Z" style="fill:#263238"></path><path d="M422.33,146.73h0Z" style="fill:#263238"></path><path d="M391.57,180.34l-.1,0,0,0C391.56,180.42,391.8,180.54,391.57,180.34Z" style="fill:#263238"></path><path d="M437.68,142.53c-5.7.14-9.09,4.52-13.6,8.17-.92.74-4.62,4.17-6.24,5,2-3.18,4-6.58,5.71-10,3.2-2.81,7.07-6.47,9.9-9.36,4-4.12,9.1-10.59,4.93-14.84-3.09-3.15-6.94-1.44-9.42,1.71-3.15,4-3.4,8.82-4.23,14.22a52.66,52.66,0,0,1-1.46,7.48c-.11.25-.78,1.57-.89,1.78l0,.08h0c-1.29,2.47-2.73,5-4.2,7.33,1.38-3.49,3-8.15,3.92-11.55,1.57-5.53,2-14.5-5.11-14.7-5.27-.15-6.45,5-6.8,8.9-.44,4.94,1.63,8.22,4.07,12.81.55,1,2.71,4.46,2.86,6.15,0,.13-.21.42-.28.5a.59.59,0,0,1-.25.11l.15.07a111.21,111.21,0,0,1-9.44,12.41c-.26.29-.55.6-.82.87.93-4.19,1.85-8.68,2.45-12.87.76-5.35-.43-14-7.33-13.22-5.11.56-5.77,5.35-5.53,9.09.31,4.74,2.93,7.63,6.1,11.54.76.94,3.84,3.84,4.11,5.62a.09.09,0,0,1-.06.11h-.24a.94.94,0,0,0,.13.14c-2.11,1.82-3.94,4-6.28,5.56s-5.15,2.57-7.65,3.92a39.17,39.17,0,0,0,3.72-9.7c1.21-5.06,1.05-13.63-5.43-14.43-4.78-.59-6.32,3.63-6.59,7.21-.33,4.53,2,7.61,4.52,11.65.56.9,2.94,4,3.18,5.47-3.83,2-7.81,3.68-11.62,5.74,1.08-3.51,2.09-6,2.41-9.9.42-4.93-2.08-11.79-8.17-11.92-4.49-.09-5.82,3.62-5.41,7,.51,4.33,3.31,6.6,6.58,9.88.79.79,4,3.36,4.36,4.94-4.39,2.49-8.61,4.84-11.92,8.63,0-.05,0-.12-.11-.14s0,.12.06.16-.14.45-.16.21c-.25-3.6.59-6.51.52-10.52-.09-4.83-3.42-11-9.55-10.31-4.53.49-5,4.88-3.91,8.12,1.34,4.1,4.08,5.88,7.85,8.57.95.68,4.41,2.66,5,4.22A68.78,68.78,0,0,0,359,210.64l.56.17A66,66,0,0,1,368,194.72c1.82,3.29,2.92,6.06,5.28,9.29,3.17,4.33,9.4,9.23,15.34,6.05,4.38-2.36,3.12-6.39.19-9-3.69-3.33-8.28-3.82-13.64-4.95-1.21-.25-5.45-.74-6.91-1.59,3.05-3.81,7.43-6.11,11.74-8.52,1.81,3.4,2.74,5.73,5.15,9.18,3.05,4.35,9.69,8.78,15.54,5.6,4.31-2.35,3.56-6.43.57-8.93-3.8-3.15-8-3.07-13.3-4.12-1.26-.26-6.19-.72-7.71-1.79,3.56-1.94,7.51-3.66,11.2-5.52-.22-.25-.38-.46.61.33,1.72,1.37,4.77,4.56,8.58,7s12.85,4.53,16.8-1c2.92-4.07.66-7.44-3.47-8.37-5.22-1.17-8.65.94-14.1,1.83-1.44.24-6.4,1.3-8.2.16,0,0,0,0,0,0,2.7-1.45,5.93-2.58,8.42-4.23s4.27-3.83,6.42-5.72c3.21,2.06,4.89,3.57,8.84,5.28,5.46,2.36,13.3,2,16.86-3.79,2.64-4.25.29-7.88-4-8.68-5.48-1-9.1,1.72-14.37,3.88-1.08.45-5,2.58-6.69,2.74a6.91,6.91,0,0,1,.56-.63,110.19,110.19,0,0,0,9.6-12.7A101.9,101.9,0,0,0,428,158.29c6.11.54,14.21-2.11,16-8.44C445.43,145.18,442.2,142.41,437.68,142.53Z" style="fill:#263238"></path><path d="M416.28,156.26c0,.08.12.06.27,0C416.44,156.23,416.31,156.17,416.28,156.26Z" style="fill:#263238"></path><path d="M405.72,169.77c-.05.07.08.1.22.12C405.86,169.79,405.77,169.69,405.72,169.77Z" style="fill:#263238"></path><path d="M391.63,180.6c.19.16,0,0-.13-.18C391.46,180.42,391.47,180.46,391.63,180.6Z" style="fill:#263238"></path></g><g id="freepik--Device--inject-18"><path d="M72.2,189.77H422.08a10.46,10.46,0,0,1,10.46,10.46V430.45a0,0,0,0,1,0,0H61.74a0,0,0,0,1,0,0V200.23A10.46,10.46,0,0,1,72.2,189.77Z" style="fill:#FA4639;stroke:#263238;stroke-linecap:round;stroke-linejoin:round"></path><rect x="120.58" y="418.86" width="254.83" height="12.56" style="fill:#263238;stroke:#263238;stroke-linecap:round;stroke-linejoin:round"></rect><rect x="120.58" y="424.91" width="254.83" height="6.51" style="fill:#fff;stroke:#263238;stroke-linecap:round;stroke-linejoin:round"></rect><path d="M31.76,438.86s4.18,5.11,16.74,9.3h399s9.3-2.33,13.49-8.84Z" style="fill:#263238;stroke:#263238;stroke-linecap:round;stroke-linejoin:round"></path><rect x="30.91" y="429.7" width="430.96" height="9.78" rx="1.89" style="fill:#FA4639;stroke:#263238;stroke-linecap:round;stroke-linejoin:round"></rect><path d="M65.24,257.5h0a.93.93,0,0,1-.93-.93v-27a.93.93,0,0,1,.93-.93h0a.93.93,0,0,1,.93.93v27A.93.93,0,0,1,65.24,257.5Z" style="fill:#263238;stroke:#fff;stroke-linecap:round;stroke-linejoin:round;stroke-width:0.691688px"></path><rect x="76.79" y="208.58" width="340.71" height="192.54" style="fill:#f2f2f2"></rect><g style="clip-path:url(#freepik--clip-path--inject-18)"><rect x="155.87" y="248.11" width="5.38" height="146.01" style="fill:#bec1c3"></rect><rect x="155.87" y="261.76" width="5.38" height="23.99" style="fill:#8c9296"></rect><rect x="78.04" y="354.12" width="77.33" height="23.24" style="fill:#bec1c3"></rect><rect x="76.79" y="208.58" width="340.71" height="14.59" style="fill:#61696e"></rect><rect x="374.01" y="211.32" width="1.91" height="1.91" style="fill:#fff"></rect><rect x="377.25" y="211.32" width="1.91" height="1.91" style="fill:#fff"></rect><rect x="380.5" y="211.32" width="1.91" height="1.91" style="fill:#fff"></rect><rect x="374.01" y="214.56" width="1.91" height="1.91" style="fill:#fff"></rect><rect x="377.25" y="214.56" width="1.91" height="1.91" style="fill:#fff"></rect><rect x="380.5" y="214.56" width="1.91" height="1.91" style="fill:#fff"></rect><rect x="374.01" y="217.81" width="1.91" height="1.91" style="fill:#fff"></rect><rect x="377.25" y="217.81" width="1.91" height="1.91" style="fill:#fff"></rect><rect x="380.5" y="217.81" width="1.91" height="1.91" style="fill:#fff"></rect><rect x="191.71" y="210.44" width="145.4" height="10.38" style="fill:#a8adaf"></rect><path d="M98.52,219.16a2.65,2.65,0,0,1-.87-.56,2.53,2.53,0,0,1-.57-.93,3.77,3.77,0,0,1-.21-1.3,3.39,3.39,0,0,1,.12-.91,2.63,2.63,0,0,1,.34-.81,2.7,2.7,0,0,1,.57-.64,2.42,2.42,0,0,1,.81-.44,3.51,3.51,0,0,1,1.05-.15,4.39,4.39,0,0,1,1.63.29.29.29,0,0,1,.18.28.38.38,0,0,1-.08.23.26.26,0,0,1-.21.11h-.08a5.23,5.23,0,0,0-1.42-.25,2.34,2.34,0,0,0-.91.17,1.55,1.55,0,0,0-.64.48,1.89,1.89,0,0,0-.37.72,3.38,3.38,0,0,0-.12.93,3.85,3.85,0,0,0,.11.94,2.25,2.25,0,0,0,.35.73,1.59,1.59,0,0,0,.62.49,2.19,2.19,0,0,0,.88.16,4.52,4.52,0,0,0,1.27-.17v-1.67H99.9a.27.27,0,0,1-.22-.1.31.31,0,0,1-.07-.21.36.36,0,0,1,.07-.22.29.29,0,0,1,.22-.09h1.55a.33.33,0,0,1,.25.09.4.4,0,0,1,.09.27v2a.43.43,0,0,1-.32.45,5.77,5.77,0,0,1-1.84.3A3.31,3.31,0,0,1,98.52,219.16Z" style="fill:#fff"></path><path d="M103.15,218.75a2.31,2.31,0,0,1,0-3,2.15,2.15,0,0,1,2.94,0,2.13,2.13,0,0,1,.55,1.5,2.08,2.08,0,0,1-.55,1.49,2.15,2.15,0,0,1-2.94,0Zm2.42-.34a1.75,1.75,0,0,0,.34-1.15,1.8,1.8,0,0,0-.34-1.16,1.17,1.17,0,0,0-.95-.43,1.13,1.13,0,0,0-1,.43,2.08,2.08,0,0,0,0,2.31,1.13,1.13,0,0,0,.94.42A1.17,1.17,0,0,0,105.57,218.41Z" style="fill:#fff"></path><path d="M107.81,218.75a2.31,2.31,0,0,1,0-3,1.91,1.91,0,0,1,1.47-.58,1.94,1.94,0,0,1,1.48.58,2.34,2.34,0,0,1,0,3,2.17,2.17,0,0,1-3,0Zm2.43-.34a2.11,2.11,0,0,0,0-2.31,1.16,1.16,0,0,0-1-.43,1.15,1.15,0,0,0-1,.43,2.13,2.13,0,0,0,0,2.31,1.15,1.15,0,0,0,1,.42A1.17,1.17,0,0,0,110.24,218.41Z" style="fill:#fff"></path><path d="M112.48,220.67a.25.25,0,0,1-.15-.23.24.24,0,0,1,.07-.18.21.21,0,0,1,.17-.07l.09,0,.1,0,.11,0,.12,0,.14,0,.15,0,.16,0,.17,0h.19a1.36,1.36,0,0,0,1-.31,1.19,1.19,0,0,0,.31-.89v-.8a1.27,1.27,0,0,1-.49.58,1.39,1.39,0,0,1-.8.22,1.86,1.86,0,0,1-.79-.16,1.63,1.63,0,0,1-.58-.42,2.14,2.14,0,0,1-.35-.63,2.43,2.43,0,0,1-.12-.77,2.54,2.54,0,0,1,.21-1.06,1.77,1.77,0,0,1,.62-.76,1.72,1.72,0,0,1,1-.28,1.39,1.39,0,0,1,1.34.78v-.41a.31.31,0,0,1,.11-.22.38.38,0,0,1,.23-.08.36.36,0,0,1,.24.09.34.34,0,0,1,.1.26v3.63a1.61,1.61,0,0,1-.51,1.3,2.12,2.12,0,0,1-1.41.43A2.81,2.81,0,0,1,112.48,220.67Zm2.25-2.3a1.75,1.75,0,0,0,.33-1.13,2.29,2.29,0,0,0,0-.47,1.62,1.62,0,0,0-.12-.43,1.38,1.38,0,0,0-.22-.35,1,1,0,0,0-.33-.23,1.16,1.16,0,0,0-.47-.09,1.14,1.14,0,0,0-.69.22,1.31,1.31,0,0,0-.41.57,2.39,2.39,0,0,0-.12.79,1.62,1.62,0,0,0,.35,1.14,1.11,1.11,0,0,0,.87.39A1,1,0,0,0,114.73,218.37Z" style="fill:#fff"></path><path d="M117.11,219.16a.34.34,0,0,1-.11-.27v-5a.37.37,0,0,1,.11-.27.42.42,0,0,1,.52,0,.36.36,0,0,1,.1.27v5a.32.32,0,0,1-.11.27.35.35,0,0,1-.26.1A.33.33,0,0,1,117.11,219.16Z" style="fill:#fff"></path><path d="M119.68,219.08a1.76,1.76,0,0,1-.71-.72,2.34,2.34,0,0,1-.26-1.12,2.31,2.31,0,0,1,.22-1,1.86,1.86,0,0,1,1.71-1,2,2,0,0,1,.83.16,1.34,1.34,0,0,1,.56.43,2,2,0,0,1,.32.61,3.47,3.47,0,0,1,.11.75.34.34,0,0,1-.06.2.26.26,0,0,1-.2.07h-2.76a1.47,1.47,0,0,0,.37,1,1.31,1.31,0,0,0,.93.37,1.67,1.67,0,0,0,.65-.13,3.51,3.51,0,0,0,.57-.35.25.25,0,0,1,.16-.06.26.26,0,0,1,.16.07.29.29,0,0,1,.07.18.29.29,0,0,1-.12.23,2.22,2.22,0,0,1-1.54.57A2,2,0,0,1,119.68,219.08Zm2.15-2.13a1.74,1.74,0,0,0-.32-.92,1,1,0,0,0-.83-.36,1.19,1.19,0,0,0-.51.11,1.1,1.1,0,0,0-.38.29,1.66,1.66,0,0,0-.23.41,1.89,1.89,0,0,0-.11.47Z" style="fill:#fff"></path><path d="M125.78,218.65a.14.14,0,0,1,0-.12.38.38,0,0,1,.13-.26.34.34,0,0,1,.24-.14.15.15,0,0,1,.1,0,2.5,2.5,0,0,0,1.59.53,1.75,1.75,0,0,0,1-.23.75.75,0,0,0,.38-.68,1,1,0,0,0-.06-.36.58.58,0,0,0-.18-.26,1,1,0,0,0-.29-.19l-.42-.17-1.15-.39a2.29,2.29,0,0,1-1-.54,1.27,1.27,0,0,1-.31-.91,1.33,1.33,0,0,1,.27-.83,1.73,1.73,0,0,1,.73-.53,2.87,2.87,0,0,1,1-.18,3.32,3.32,0,0,1,1.09.18,2.31,2.31,0,0,1,.79.43.25.25,0,0,1,.09.2.35.35,0,0,1-.09.23.3.3,0,0,1-.22.1.32.32,0,0,1-.18-.06,3.27,3.27,0,0,0-.62-.3,2.26,2.26,0,0,0-.79-.13,1.83,1.83,0,0,0-1,.22.71.71,0,0,0-.36.64.65.65,0,0,0,.19.5,1.41,1.41,0,0,0,.59.33l1.17.37a5.1,5.1,0,0,1,.59.24,2.28,2.28,0,0,1,.44.3,1.16,1.16,0,0,1,.3.43,1.5,1.5,0,0,1,.1.58,1.44,1.44,0,0,1-.58,1.23,2.6,2.6,0,0,1-1.58.44A2.77,2.77,0,0,1,125.78,218.65Z" style="fill:#fff"></path><path d="M131.71,219.08a1.76,1.76,0,0,1-.71-.72,2.34,2.34,0,0,1-.26-1.12,2.31,2.31,0,0,1,.22-1,1.86,1.86,0,0,1,1.71-1,2,2,0,0,1,.83.16,1.34,1.34,0,0,1,.56.43,2,2,0,0,1,.32.61,3.47,3.47,0,0,1,.11.75.34.34,0,0,1-.06.2.26.26,0,0,1-.2.07h-2.76a1.47,1.47,0,0,0,.37,1,1.31,1.31,0,0,0,.93.37,1.67,1.67,0,0,0,.65-.13,3.51,3.51,0,0,0,.57-.35.25.25,0,0,1,.16-.06.26.26,0,0,1,.16.07.29.29,0,0,1,.07.18.29.29,0,0,1-.12.23,2.22,2.22,0,0,1-1.54.57A2,2,0,0,1,131.71,219.08Zm2.15-2.13a1.66,1.66,0,0,0-.32-.92,1,1,0,0,0-.83-.36,1.19,1.19,0,0,0-.51.11,1.1,1.1,0,0,0-.38.29,1.66,1.66,0,0,0-.23.41,1.89,1.89,0,0,0-.11.47Z" style="fill:#fff"></path><path d="M135.55,219a1,1,0,0,1-.39-.86,1.22,1.22,0,0,1,.05-.4,1,1,0,0,1,.13-.31.78.78,0,0,1,.25-.22,1.94,1.94,0,0,1,.36-.15,3.65,3.65,0,0,1,.49-.09l.61,0h.77v-.44a.83.83,0,0,0-.23-.64,1,1,0,0,0-.64-.2,2.83,2.83,0,0,0-.5.05,2.64,2.64,0,0,0-.38.11l-.35.14-.1,0a.23.23,0,0,1-.18-.09.26.26,0,0,1-.07-.19.18.18,0,0,1,.11-.18,2.93,2.93,0,0,1,1.49-.35,1.75,1.75,0,0,1,1.15.34,1.29,1.29,0,0,1,.42,1.06v2.34a.31.31,0,0,1-.11.25.43.43,0,0,1-.51,0,.3.3,0,0,1-.1-.25v-.38a1.28,1.28,0,0,1-1.24.78A1.66,1.66,0,0,1,135.55,219Zm1.92-.56a1.42,1.42,0,0,0,.35-1v-.12l-.82,0a4,4,0,0,0-.55.06.87.87,0,0,0-.37.14.55.55,0,0,0-.18.22.76.76,0,0,0-.05.33.67.67,0,0,0,.21.54,1,1,0,0,0,.6.17A1.11,1.11,0,0,0,137.47,218.47Z" style="fill:#fff"></path><path d="M139.83,219.17a.3.3,0,0,1-.1-.25V215.6a.3.3,0,0,1,.1-.25.41.41,0,0,1,.26-.09.39.39,0,0,1,.26.09.3.3,0,0,1,.11.24v.48a1.14,1.14,0,0,1,.41-.62,1.09,1.09,0,0,1,.73-.26.26.26,0,0,1,.2.1.36.36,0,0,1,.08.23.32.32,0,0,1-.07.2.24.24,0,0,1-.2.09,1.15,1.15,0,0,0-.84.28,1,1,0,0,0-.3.76v2.07a.29.29,0,0,1-.12.25.39.39,0,0,1-.26.09A.37.37,0,0,1,139.83,219.17Z" style="fill:#fff"></path><path d="M142.89,218.75a2.21,2.21,0,0,1-.51-1.49,2.33,2.33,0,0,1,.24-1.06,1.78,1.78,0,0,1,.7-.74,1.91,1.91,0,0,1,1-.28,2.15,2.15,0,0,1,.64.09,1.38,1.38,0,0,1,.47.25.31.31,0,0,1,.14.23.18.18,0,0,1-.07.15.23.23,0,0,1-.16.06.34.34,0,0,1-.17-.05,1.47,1.47,0,0,0-.81-.24,1.17,1.17,0,0,0-.94.43,1.83,1.83,0,0,0-.35,1.17,2.2,2.2,0,0,0,.07.58,1.73,1.73,0,0,0,.22.5,1,1,0,0,0,.38.35,1.13,1.13,0,0,0,.56.13,1.51,1.51,0,0,0,.92-.26.33.33,0,0,1,.16,0,.23.23,0,0,1,.16.06.25.25,0,0,1,.06.16.33.33,0,0,1-.13.25,1.94,1.94,0,0,1-1.23.35A1.78,1.78,0,0,1,142.89,218.75Z" style="fill:#fff"></path><path d="M146.62,219.17a.35.35,0,0,1-.11-.26v-5.07a.33.33,0,0,1,.11-.25.47.47,0,0,1,.26-.08.38.38,0,0,1,.26.08.3.3,0,0,1,.1.25v2a1.14,1.14,0,0,1,.53-.51,1.66,1.66,0,0,1,.8-.19,1.87,1.87,0,0,1,.55.08,1.43,1.43,0,0,1,.46.27,1.3,1.3,0,0,1,.32.48,2.14,2.14,0,0,1,.11.7v2.2a.31.31,0,0,1-.11.26.38.38,0,0,1-.25.09.39.39,0,0,1-.26-.09.34.34,0,0,1-.1-.26v-2.24a.94.94,0,0,0-.24-.71.82.82,0,0,0-.63-.24,1.2,1.2,0,0,0-.84.32,1.24,1.24,0,0,0-.34.92v1.95a.31.31,0,0,1-.11.26.39.39,0,0,1-.26.09A.38.38,0,0,1,146.62,219.17Z" style="fill:#fff"></path><path d="M154.63,219a2.4,2.4,0,0,1-.92-1,3.59,3.59,0,0,1-.31-1.5,3.66,3.66,0,0,1,.19-1.16,3,3,0,0,1,.53-1,2.52,2.52,0,0,1,.86-.64,2.89,2.89,0,0,1,1.16-.23,2.92,2.92,0,0,1,1.45.37.31.31,0,0,1,.18.28.33.33,0,0,1-.09.23.29.29,0,0,1-.22.09l-.13,0-.1-.05-.13-.07-.16-.06-.21-.06-.25,0-.32,0a2,2,0,0,0-.71.12,1.49,1.49,0,0,0-.53.33,2.08,2.08,0,0,0-.37.51,2.69,2.69,0,0,0-.22.64,4.11,4.11,0,0,0-.06.72,4,4,0,0,0,.06.72,2.47,2.47,0,0,0,.22.63,1.71,1.71,0,0,0,.37.5,1.63,1.63,0,0,0,.54.33,2.11,2.11,0,0,0,.73.12,2,2,0,0,0,.63-.09,3.26,3.26,0,0,0,.58-.27.33.33,0,0,1,.15-.05.27.27,0,0,1,.22.1.29.29,0,0,1,.09.21.38.38,0,0,1-.21.32,2.82,2.82,0,0,1-1.58.44A2.56,2.56,0,0,1,154.63,219Z" style="fill:#fff"></path><path d="M159.25,218.75a2.31,2.31,0,0,1,0-3,2.15,2.15,0,0,1,2.94,0,2.09,2.09,0,0,1,.55,1.5,2.12,2.12,0,0,1-.54,1.49,1.94,1.94,0,0,1-1.48.58A1.9,1.9,0,0,1,159.25,218.75Zm2.42-.34a1.75,1.75,0,0,0,.34-1.15,1.8,1.8,0,0,0-.34-1.16,1.17,1.17,0,0,0-.95-.43,1.13,1.13,0,0,0-.95.43,2.13,2.13,0,0,0,0,2.31,1.13,1.13,0,0,0,.94.42A1.15,1.15,0,0,0,161.67,218.41Z" style="fill:#fff"></path><path d="M163.75,219.17a.33.33,0,0,1-.11-.26V215.6a.31.31,0,0,1,.11-.25.39.39,0,0,1,.26-.09.41.41,0,0,1,.25.08.28.28,0,0,1,.11.25v.35a1.1,1.1,0,0,1,.5-.56,1.55,1.55,0,0,1,.81-.2,1.46,1.46,0,0,1,1.06.38,1.56,1.56,0,0,1,.4,1.18v2.17a.33.33,0,0,1-.11.26.37.37,0,0,1-.25.09.39.39,0,0,1-.26-.09.33.33,0,0,1-.11-.26v-2.18a1.17,1.17,0,0,0-.24-.79.85.85,0,0,0-.67-.27,1,1,0,0,0-.78.33,1.31,1.31,0,0,0-.35.9v2a.35.35,0,0,1-.11.26.39.39,0,0,1-.26.09A.37.37,0,0,1,163.75,219.17Z" style="fill:#fff"></path><path d="M168.17,218.68a.22.22,0,0,1,.07-.17.21.21,0,0,1,.17-.07.33.33,0,0,1,.19.06,2.12,2.12,0,0,0,1.16.34,1.28,1.28,0,0,0,.72-.17.58.58,0,0,0,.27-.51.5.5,0,0,0-.15-.39,1.1,1.1,0,0,0-.51-.24l-.71-.17-.35-.1-.29-.1a1.11,1.11,0,0,1-.25-.14l-.18-.18a.64.64,0,0,1-.11-.25,1,1,0,0,1,0-.32.91.91,0,0,1,.13-.5,1,1,0,0,1,.35-.35,2,2,0,0,1,.5-.19,2.93,2.93,0,0,1,.61-.06,2.86,2.86,0,0,1,.73.09,3.25,3.25,0,0,1,.57.22.25.25,0,0,1,.15.23.21.21,0,0,1-.06.16.21.21,0,0,1-.17.07l-.12,0-.13-.06-.2-.07-.2,0a2,2,0,0,0-.26-.06h-.27a1.49,1.49,0,0,0-.69.13.46.46,0,0,0-.26.44.39.39,0,0,0,.13.34,1.7,1.7,0,0,0,.57.21l.7.17a1.76,1.76,0,0,1,.87.43,1,1,0,0,1,.26.72,1.08,1.08,0,0,1-.22.69,1.22,1.22,0,0,1-.56.41,2.56,2.56,0,0,1-.82.13,2.63,2.63,0,0,1-.83-.14,2.32,2.32,0,0,1-.65-.3A.26.26,0,0,1,168.17,218.68Z" style="fill:#fff"></path><path d="M172.64,218.75a2.34,2.34,0,0,1,0-3,2.17,2.17,0,0,1,3,0,2.34,2.34,0,0,1,0,3,1.9,1.9,0,0,1-1.47.58A1.94,1.94,0,0,1,172.64,218.75Zm2.43-.34a1.75,1.75,0,0,0,.34-1.15,1.86,1.86,0,0,0-.34-1.16,1.17,1.17,0,0,0-.95-.43,1.12,1.12,0,0,0-1,.43,1.78,1.78,0,0,0-.35,1.16,1.85,1.85,0,0,0,.34,1.15,1.3,1.3,0,0,0,1.91,0Z" style="fill:#fff"></path><path d="M177.19,219.16a.33.33,0,0,1-.1-.27v-5a.37.37,0,0,1,.11-.27.39.39,0,0,1,.26-.09.34.34,0,0,1,.36.36v5a.35.35,0,0,1-.11.27.37.37,0,0,1-.26.1A.35.35,0,0,1,177.19,219.16Z" style="fill:#fff"></path><path d="M179.77,219.08a1.7,1.7,0,0,1-.71-.72,2.24,2.24,0,0,1-.27-1.12,2.31,2.31,0,0,1,.23-1,1.77,1.77,0,0,1,.66-.75,1.84,1.84,0,0,1,1-.29,1.91,1.91,0,0,1,.82.16,1.31,1.31,0,0,1,.57.43,2,2,0,0,1,.31.61,2.94,2.94,0,0,1,.12.75.29.29,0,0,1-.07.2.22.22,0,0,1-.19.07h-2.76a1.43,1.43,0,0,0,.37,1,1.31,1.31,0,0,0,.93.37,1.62,1.62,0,0,0,.64-.13,3.58,3.58,0,0,0,.58-.35.24.24,0,0,1,.15-.06.26.26,0,0,1,.17.07.28.28,0,0,1,.06.18.31.31,0,0,1-.11.23,2.24,2.24,0,0,1-1.54.57A2,2,0,0,1,179.77,219.08Zm2.14-2.13a1.59,1.59,0,0,0-.32-.92,1,1,0,0,0-.82-.36,1.19,1.19,0,0,0-.51.11,1,1,0,0,0-.38.29,1.39,1.39,0,0,0-.23.41,1.53,1.53,0,0,0-.11.47Z" style="fill:#fff"></path><line x1="81.38" y1="214.36" x2="87.41" y2="214.36" style="fill:none;stroke:#fff;stroke-linecap:round;stroke-linejoin:round"></line><line x1="81.38" y1="217.02" x2="87.41" y2="217.02" style="fill:none;stroke:#fff;stroke-linecap:round;stroke-linejoin:round"></line><line x1="81.38" y1="219.67" x2="87.41" y2="219.67" style="fill:none;stroke:#fff;stroke-linecap:round;stroke-linejoin:round"></line><path d="M200.77,214.36a2.65,2.65,0,1,1-2.65-2.65A2.65,2.65,0,0,1,200.77,214.36Z" style="fill:none;stroke:#fff;stroke-linecap:round;stroke-linejoin:round"></path><line x1="200.05" y1="216.29" x2="203.91" y2="219.67" style="fill:none;stroke:#fff;stroke-linecap:round;stroke-linejoin:round"></line><path d="M93.65,306.74A2.66,2.66,0,1,1,91,304.09,2.65,2.65,0,0,1,93.65,306.74Z" style="fill:none;stroke:#263238;stroke-linecap:round;stroke-linejoin:round"></path><line x1="92.92" y1="308.67" x2="96.78" y2="312.05" style="fill:none;stroke:#263238;stroke-linecap:round;stroke-linejoin:round"></line><line x1="78.71" y1="245.18" x2="415.96" y2="245.18" style="fill:none;stroke:#a3a3a3;stroke-linecap:round;stroke-linejoin:round"></line><line x1="158.37" y1="225.93" x2="158.37" y2="245.22" style="fill:none;stroke:#a3a3a3;stroke-linecap:round;stroke-linejoin:round"></line><polygon points="96.85 257.8 90.35 250.87 83.85 257.8 86.44 257.8 86.44 263.42 88.38 263.42 88.38 259.38 91.98 259.38 91.98 263.42 93.92 263.42 93.92 257.8 96.85 257.8" style="fill:#263238"></polygon><polygon points="97.05 280.12 97.23 281.1 98.49 280.88 93.69 284.41 90.5 280.44 85.06 284.75 85.68 285.53 90.34 281.84 93.51 285.78 99.42 281.43 99.08 282.72 100.04 282.98 100.99 279.43 97.05 280.12" style="fill:#263238"></polygon><path d="M98.54,340.17h-8a.28.28,0,0,1-.28-.28V328.67a.28.28,0,0,1,.28-.28h5.55a.25.25,0,0,1,.2.09l2.49,2.71a.27.27,0,0,1,.08.19v8.51A.29.29,0,0,1,98.54,340.17Zm-7.76-.56h7.48v-8.12L95.92,329H90.78Z" style="fill:#263238"></path><path d="M98.54,331.76H96.05a.28.28,0,0,1-.28-.28v-2.81a.27.27,0,0,1,.18-.26.3.3,0,0,1,.31.07l2.49,2.81a.29.29,0,0,1-.21.47Zm-2.21-.57h1.58l-1.58-1.78Z" style="fill:#263238"></path><path d="M89,340a.28.28,0,0,1-.28-.28V327.17a.29.29,0,0,1,.28-.28h7.29a.29.29,0,0,1,0,.57h-7V339.7A.27.27,0,0,1,89,340Z" style="fill:#263238"></path><path d="M95.37,361.16H88.5v-5.28h6.87Zm-6.08-.79h5.29v-3.7H89.29Z" style="fill:#263238"></path><path d="M108.58,367.24h-6.87V362h6.87Zm-6.07-.79h5.28v-3.7h-5.28Z" style="fill:#263238"></path><path d="M108.58,373.58h-6.87V368.3h6.87Zm-6.07-.79h5.28v-3.7h-5.28Z" style="fill:#263238"></path><polygon points="102.14 371.47 91.67 371.47 91.67 361.03 92.46 361.03 92.46 370.67 102.14 370.67 102.14 371.47" style="fill:#263238"></polygon><rect x="92.33" y="364.33" width="10.04" height="0.79" style="fill:#263238"></rect><path d="M189.78,316.59a.26.26,0,0,1-.08-.21.65.65,0,0,1,.13-.38.41.41,0,0,1,.31-.18.25.25,0,0,1,.14,0,2.9,2.9,0,0,0,1.52.43,1.7,1.7,0,0,0,.83-.18.66.66,0,0,0,.14-1,1.25,1.25,0,0,0-.53-.29l-1.28-.43a2.15,2.15,0,0,1-1-.56,1.33,1.33,0,0,1-.3-.91,1.38,1.38,0,0,1,.6-1.18,2.6,2.6,0,0,1,1.56-.44,3.58,3.58,0,0,1,1.08.16,2.06,2.06,0,0,1,.8.4.33.33,0,0,1,.13.28.49.49,0,0,1-.12.32.37.37,0,0,1-.28.14.38.38,0,0,1-.19-.06,2.77,2.77,0,0,0-1.35-.35,2.94,2.94,0,0,0-.44,0,1.37,1.37,0,0,0-.36.11.54.54,0,0,0-.26.21.49.49,0,0,0-.1.32.57.57,0,0,0,.14.4,1,1,0,0,0,.44.25l.57.17.56.17a4.39,4.39,0,0,1,.66.25,2,2,0,0,1,.48.33,1.1,1.1,0,0,1,.31.45,1.55,1.55,0,0,1,.1.59,1.49,1.49,0,0,1-.6,1.25,2.69,2.69,0,0,1-1.63.45A3.23,3.23,0,0,1,189.78,316.59Z" style="fill:#263238"></path><path d="M195.73,317a1.34,1.34,0,0,1-.44-.27,1.21,1.21,0,0,1-.31-.47,1.76,1.76,0,0,1-.12-.66v-1.92a.57.57,0,0,1,.14-.4.49.49,0,0,1,.36-.14.46.46,0,0,1,.34.14.57.57,0,0,1,.14.4v1.92a.86.86,0,0,0,.2.61.72.72,0,0,0,.53.21.91.91,0,0,0,.68-.3,1.16,1.16,0,0,0,.28-.81v-1.63a.57.57,0,0,1,.14-.4.48.48,0,0,1,.35-.14.47.47,0,0,1,.35.14.57.57,0,0,1,.14.4v2.87a.46.46,0,0,1-.14.36.48.48,0,0,1-.35.13.51.51,0,0,1-.35-.12.47.47,0,0,1-.14-.36v-.14a1.29,1.29,0,0,1-1.27.67A1.55,1.55,0,0,1,195.73,317Z" style="fill:#263238"></path><path d="M200.51,316.45v.14a.45.45,0,0,1-.13.36.48.48,0,0,1-.35.12.47.47,0,0,1-.35-.15.57.57,0,0,1-.14-.4V312a.53.53,0,0,1,.13-.39.45.45,0,0,1,.35-.14.48.48,0,0,1,.36.14.53.53,0,0,1,.13.39v1.76a1.33,1.33,0,0,1,1.23-.62,1.6,1.6,0,0,1,1.27.53,2.1,2.1,0,0,1,.47,1.44,2.43,2.43,0,0,1-.2,1,1.62,1.62,0,0,1-.58.73,1.54,1.54,0,0,1-.9.27A1.36,1.36,0,0,1,200.51,316.45Zm1.43-.06a.89.89,0,0,0,.28-.23,1.09,1.09,0,0,0,.17-.32,1.61,1.61,0,0,0,.1-.36,2.22,2.22,0,0,0,0-.37,2.38,2.38,0,0,0,0-.39,2.47,2.47,0,0,0-.11-.36,1.49,1.49,0,0,0-.18-.3.75.75,0,0,0-.28-.2.92.92,0,0,0-.38-.07.94.94,0,0,0-.59.18,1,1,0,0,0-.33.48,2,2,0,0,0-.1.67,1.86,1.86,0,0,0,.23,1,.89.89,0,0,0,.8.34A1,1,0,0,0,201.94,316.39Z" style="fill:#263238"></path><path d="M204.45,316.93a.54.54,0,0,1-.14-.4v-2.84a.51.51,0,0,1,.14-.38.47.47,0,0,1,.35-.14.53.53,0,0,1,.35.12.44.44,0,0,1,.14.34v.2a1.29,1.29,0,0,1,1.25-.71,1.37,1.37,0,0,1,.82.23,1.13,1.13,0,0,1,.45.62,1.35,1.35,0,0,1,1.37-.85,1.42,1.42,0,0,1,1,.37,1.47,1.47,0,0,1,.39,1.11v1.93a.54.54,0,0,1-.14.4.49.49,0,0,1-.36.14.46.46,0,0,1-.34-.14.5.5,0,0,1-.14-.4V314.6a.88.88,0,0,0-.19-.61.7.7,0,0,0-.54-.21.89.89,0,0,0-.69.3,1.3,1.3,0,0,0-.26.84v1.61a.57.57,0,0,1-.14.4.51.51,0,0,1-.7,0,.57.57,0,0,1-.14-.4v-1.9a.94.94,0,0,0-.19-.64.7.7,0,0,0-.54-.21.87.87,0,0,0-.68.28,1.09,1.09,0,0,0-.26.76v1.71a.54.54,0,0,1-.14.4.52.52,0,0,1-.36.14A.46.46,0,0,1,204.45,316.93Z" style="fill:#263238"></path><path d="M211.7,312.24a.58.58,0,0,1,0-.78.6.6,0,0,1,.42-.15.58.58,0,0,1,.41.15.53.53,0,0,1,.15.39.5.5,0,0,1-.16.39.56.56,0,0,1-.41.15A.58.58,0,0,1,211.7,312.24Zm.06,4.69a.57.57,0,0,1-.13-.4v-2.81a.58.58,0,0,1,.13-.41.48.48,0,0,1,.35-.14.51.51,0,0,1,.36.14.58.58,0,0,1,.13.41v2.81a.57.57,0,0,1-.13.4.51.51,0,0,1-.36.14A.48.48,0,0,1,211.76,316.93Z" style="fill:#263238"></path><path d="M214.19,316.78a1.29,1.29,0,0,1-.3-.92v-2h-.38a.34.34,0,0,1-.26-.1.32.32,0,0,1-.09-.24.32.32,0,0,1,.09-.23.33.33,0,0,1,.25-.09h.41l.12-1a.58.58,0,0,1,.14-.35.44.44,0,0,1,.34-.13.37.37,0,0,1,.27.11.55.55,0,0,1,.09.34v1h.63a.33.33,0,0,1,.25.09.41.41,0,0,1,.08.25.34.34,0,0,1-.08.23.36.36,0,0,1-.26.09h-.62v1.77a1.27,1.27,0,0,0,.09.55.37.37,0,0,0,.34.19h0l.27,0h0a.31.31,0,0,1,.25.11.35.35,0,0,1,.1.26.41.41,0,0,1,0,.16.27.27,0,0,1-.1.11l-.14.07-.19,0H215A1.09,1.09,0,0,1,214.19,316.78Z" style="fill:#263238"></path><path d="M217.25,316.78a1.29,1.29,0,0,1-.3-.92v-2h-.38a.33.33,0,0,1-.35-.34.31.31,0,0,1,.34-.32H217l.11-1a.66.66,0,0,1,.15-.35.42.42,0,0,1,.34-.13.33.33,0,0,1,.26.11.49.49,0,0,1,.1.34v1h.63a.31.31,0,0,1,.24.09.37.37,0,0,1,.09.25.3.3,0,0,1-.09.23.32.32,0,0,1-.25.09h-.62v1.77a1.27,1.27,0,0,0,.09.55.34.34,0,0,0,.33.19h.05l.27,0h0a.31.31,0,0,1,.25.11.4.4,0,0,1,.1.26.42.42,0,0,1,0,.16.21.21,0,0,1-.1.11l-.13.07-.19,0h-.52A1.07,1.07,0,0,1,217.25,316.78Z" style="fill:#263238"></path><path d="M219.73,314.1a1.8,1.8,0,0,1,.66-.71,2,2,0,0,1,1-.27,2,2,0,0,1,.8.15,1.57,1.57,0,0,1,.56.41,2.16,2.16,0,0,1,.32.6,2.35,2.35,0,0,1,.11.71.39.39,0,0,1-.07.25.26.26,0,0,1-.21.09h-2.46a1,1,0,0,0,1.12,1.1,1.82,1.82,0,0,0,1-.39.2.2,0,0,1,.15-.06.28.28,0,0,1,.21.11.38.38,0,0,1,.09.25.34.34,0,0,1-.12.26,2.14,2.14,0,0,1-1.44.52,1.9,1.9,0,0,1-2-2A2.17,2.17,0,0,1,219.73,314.1Zm2.66.68a1.31,1.31,0,0,0-.26-.73.82.82,0,0,0-.68-.29.84.84,0,0,0-.68.3,1.28,1.28,0,0,0-.28.72Z" style="fill:#263238"></path><path d="M224.56,316.86a1.62,1.62,0,0,1-.58-.73,2.43,2.43,0,0,1-.2-1,2.1,2.1,0,0,1,.47-1.44,1.6,1.6,0,0,1,1.27-.53,1.31,1.31,0,0,1,1.23.62V312a.49.49,0,0,1,.14-.39.51.51,0,0,1,.7,0,.53.53,0,0,1,.13.39v4.53a.53.53,0,0,1-.14.4.45.45,0,0,1-.35.15.5.5,0,0,1-.35-.12.45.45,0,0,1-.13-.36v-.14a1.36,1.36,0,0,1-1.29.68A1.54,1.54,0,0,1,224.56,316.86Zm1.95-.73a1.86,1.86,0,0,0,.23-1,2,2,0,0,0-.1-.67,1,1,0,0,0-.33-.48.94.94,0,0,0-.59-.18,1,1,0,0,0-.46.11.81.81,0,0,0-.3.31,1.35,1.35,0,0,0-.16.41,2,2,0,0,0-.06.49,2.42,2.42,0,0,0,0,.47,2.5,2.5,0,0,0,.16.43,1,1,0,0,0,1.56.12Z" style="fill:#263238"></path><path d="M230.84,316.42a.33.33,0,0,1,.09-.23.3.3,0,0,1,.22-.1.42.42,0,0,1,.21.06l.27.15.33.12a1.88,1.88,0,0,0,.46.06,1.73,1.73,0,0,0,.41,0,.75.75,0,0,0,.3-.17.42.42,0,0,0,.13-.3c0-.22-.18-.38-.55-.47l-.6-.15-.45-.13-.35-.15a1,1,0,0,1-.26-.21.72.72,0,0,1-.16-.27,1.15,1.15,0,0,1,0-.39.94.94,0,0,1,.42-.82,2,2,0,0,1,1.13-.28,2.78,2.78,0,0,1,1.27.29.32.32,0,0,1,.21.31.28.28,0,0,1-.08.21.26.26,0,0,1-.21.09l-.15,0-.09,0-.11,0-.12,0-.16-.05-.15,0-.18,0h-.17a1.13,1.13,0,0,0-.51.1.32.32,0,0,0-.21.3.31.31,0,0,0,.11.27,1.2,1.2,0,0,0,.44.17l.6.15a2,2,0,0,1,.91.42.94.94,0,0,1,.29.74,1,1,0,0,1-.43.91,1.92,1.92,0,0,1-1.14.32,2.54,2.54,0,0,1-1.53-.45A.33.33,0,0,1,230.84,316.42Z" style="fill:#263238"></path><path d="M235,312.24a.56.56,0,0,1,0-.78.64.64,0,0,1,.82,0,.5.5,0,0,1,.16.39.53.53,0,0,1-.16.39.58.58,0,0,1-.41.15A.56.56,0,0,1,235,312.24Zm.06,4.69a.57.57,0,0,1-.14-.4v-2.81a.58.58,0,0,1,.14-.41.51.51,0,0,1,.7,0,.58.58,0,0,1,.14.41v2.81a.57.57,0,0,1-.14.4.51.51,0,0,1-.7,0Z" style="fill:#263238"></path><path d="M237.45,316.78a1.33,1.33,0,0,1-.29-.92v-2h-.38a.33.33,0,0,1-.35-.34.3.3,0,0,1,.34-.32h.41l.11-1a.66.66,0,0,1,.15-.35.42.42,0,0,1,.34-.13.33.33,0,0,1,.26.11.55.55,0,0,1,.1.34v1h.62a.33.33,0,0,1,.25.09.37.37,0,0,1,.09.25.3.3,0,0,1-.09.23.33.33,0,0,1-.25.09h-.62v1.77a1.27,1.27,0,0,0,.09.55.34.34,0,0,0,.33.19h0l.28,0h0a.33.33,0,0,1,.25.11.39.39,0,0,1,.09.26.41.41,0,0,1,0,.16.21.21,0,0,1-.1.11l-.14.07a.6.6,0,0,1-.18,0h-.52A1.11,1.11,0,0,1,237.45,316.78Z" style="fill:#263238"></path><path d="M239.94,314.1a1.73,1.73,0,0,1,.66-.71,2,2,0,0,1,1-.27,2,2,0,0,1,.8.15,1.41,1.41,0,0,1,.56.41,1.93,1.93,0,0,1,.32.6,2.35,2.35,0,0,1,.12.71.46.46,0,0,1-.07.25.26.26,0,0,1-.21.09h-2.46a1,1,0,0,0,1.12,1.1,1.8,1.8,0,0,0,1-.39A.25.25,0,0,1,243,316a.28.28,0,0,1,.21.11.38.38,0,0,1,.09.25.34.34,0,0,1-.12.26,2.14,2.14,0,0,1-1.44.52,1.9,1.9,0,0,1-2-2A2.17,2.17,0,0,1,239.94,314.1Zm2.65.68a1.3,1.3,0,0,0-.25-.73.83.83,0,0,0-.68-.29.83.83,0,0,0-.68.3,1.21,1.21,0,0,0-.28.72Z" style="fill:#263238"></path><path d="M244.33,316.93a.54.54,0,0,1-.14-.4v-2.84a.51.51,0,0,1,.14-.38.48.48,0,0,1,.35-.14.51.51,0,0,1,.35.12.41.41,0,0,1,.14.34v.2a1.29,1.29,0,0,1,1.25-.71,1.35,1.35,0,0,1,.82.23,1.13,1.13,0,0,1,.45.62,1.36,1.36,0,0,1,1.37-.85,1.42,1.42,0,0,1,1,.37,1.47,1.47,0,0,1,.39,1.11v1.93a.54.54,0,0,1-.14.4.51.51,0,0,1-.7,0,.54.54,0,0,1-.14-.4V314.6a.88.88,0,0,0-.19-.61.7.7,0,0,0-.54-.21.85.85,0,0,0-.68.3,1.25,1.25,0,0,0-.27.84v1.61a.53.53,0,0,1-.14.4.48.48,0,0,1-.35.14.5.5,0,0,1-.35-.14.57.57,0,0,1-.13-.4v-1.9a.94.94,0,0,0-.2-.64.66.66,0,0,0-.53-.21.88.88,0,0,0-.69.28,1.09,1.09,0,0,0-.26.76v1.71a.5.5,0,0,1-.14.4.49.49,0,0,1-.36.14A.46.46,0,0,1,244.33,316.93Z" style="fill:#263238"></path><path d="M251.63,316.82a1,1,0,0,1-.38-.82,1.73,1.73,0,0,1,0-.41,1,1,0,0,1,.14-.3.67.67,0,0,1,.25-.22,1.75,1.75,0,0,1,.34-.15,2.23,2.23,0,0,1,.45-.09l.55,0h.68v-.3a.61.61,0,0,0-.69-.7h-.15l-.15,0-.14,0-.14,0-.12,0-.13,0-.1,0-.11,0-.08,0-.11,0a.28.28,0,0,1-.23-.12.35.35,0,0,1-.1-.26.29.29,0,0,1,.17-.27,3.37,3.37,0,0,1,1.44-.3,2.49,2.49,0,0,1,.64.08,1.56,1.56,0,0,1,.5.25,1.1,1.1,0,0,1,.34.47,1.76,1.76,0,0,1,.12.68v2a.46.46,0,0,1-.14.36.44.44,0,0,1-.33.13.44.44,0,0,1-.32-.13.43.43,0,0,1-.14-.36v-.13a1,1,0,0,1-.4.48,1.26,1.26,0,0,1-.73.19A1.56,1.56,0,0,1,251.63,316.82Zm1.77-.62a1.09,1.09,0,0,0,.3-.78v-.11h-.62a2.86,2.86,0,0,0-.43,0,.61.61,0,0,0-.3.11.38.38,0,0,0-.15.18.67.67,0,0,0-.06.3.5.5,0,0,0,.16.41.56.56,0,0,0,.42.14A.94.94,0,0,0,253.4,316.2Z" style="fill:#263238"></path><path d="M255.82,318.41a.56.56,0,0,1-.14-.39v-4.29a.6.6,0,0,1,.14-.41.49.49,0,0,1,.36-.15.51.51,0,0,1,.35.12.54.54,0,0,1,.13.37v.13a1.34,1.34,0,0,1,1.28-.68,1.51,1.51,0,0,1,.9.28,1.67,1.67,0,0,1,.59.72,2.59,2.59,0,0,1,.19,1,2.09,2.09,0,0,1-.47,1.45,1.63,1.63,0,0,1-1.26.53,1.32,1.32,0,0,1-1.23-.63V318a.56.56,0,0,1-.14.39.49.49,0,0,1-.36.14A.46.46,0,0,1,255.82,318.41Zm2.25-2a1,1,0,0,0,.28-.2,1.49,1.49,0,0,0,.18-.3,2.42,2.42,0,0,0,.1-.36,2.38,2.38,0,0,0,0-.39,2.19,2.19,0,0,0,0-.36,2.37,2.37,0,0,0-.09-.36,1.22,1.22,0,0,0-.18-.32.76.76,0,0,0-.28-.22.8.8,0,0,0-.39-.09.88.88,0,0,0-.79.34,1.73,1.73,0,0,0-.24,1,1.91,1.91,0,0,0,.1.66,1.09,1.09,0,0,0,.33.48,1,1,0,0,0,.59.18A1,1,0,0,0,258.07,316.38Z" style="fill:#263238"></path><path d="M260.32,316.42a.38.38,0,0,1,.08-.23.33.33,0,0,1,.23-.1.41.41,0,0,1,.2.06,2,2,0,0,0,.28.15l.33.12a1.76,1.76,0,0,0,.46.06,1.64,1.64,0,0,0,.4,0,.64.64,0,0,0,.3-.17.38.38,0,0,0,.13-.3c0-.22-.18-.38-.54-.47l-.61-.15-.45-.13a2.52,2.52,0,0,1-.34-.15.81.81,0,0,1-.42-.48,1.14,1.14,0,0,1-.06-.39.93.93,0,0,1,.43-.82,2,2,0,0,1,1.12-.28,2.82,2.82,0,0,1,1.28.29.33.33,0,0,1,.13.52.29.29,0,0,1-.21.09l-.16,0-.08,0-.12,0-.12,0-.15-.05-.16,0-.17,0h-.18a1.13,1.13,0,0,0-.51.1.32.32,0,0,0-.21.3.29.29,0,0,0,.12.27,1.14,1.14,0,0,0,.43.17l.6.15a2.08,2.08,0,0,1,.92.42,1,1,0,0,1,.29.74,1.05,1.05,0,0,1-.44.91,1.9,1.9,0,0,1-1.14.32,2.51,2.51,0,0,1-1.52-.45A.3.3,0,0,1,260.32,316.42Z" style="fill:#263238"></path><rect x="185.26" y="321.53" width="196.18" height="70.7" style="fill:#fff;stroke:#a3a3a3;stroke-linecap:round;stroke-linejoin:round"></rect><rect x="185.26" y="257.3" width="196.18" height="31.37" style="fill:#fff;stroke:#a3a3a3;stroke-linecap:round;stroke-linejoin:round"></rect><rect x="158.49" y="223.23" width="258.63" height="21.64" style="fill:#fff"></rect><line x1="193.23" y1="335.97" x2="372.97" y2="335.97" style="fill:none;stroke:#a3a3a3;stroke-linecap:round;stroke-linejoin:round"></line><line x1="193.23" y1="275.72" x2="372.97" y2="275.72" style="fill:none;stroke:#a3a3a3;stroke-linecap:round;stroke-linejoin:round"></line><line x1="193.23" y1="349.91" x2="372.97" y2="349.91" style="fill:none;stroke:#a3a3a3;stroke-linecap:round;stroke-linejoin:round"></line><line x1="193.23" y1="363.85" x2="372.97" y2="363.85" style="fill:none;stroke:#a3a3a3;stroke-linecap:round;stroke-linejoin:round"></line><line x1="193.23" y1="377.8" x2="372.97" y2="377.8" style="fill:none;stroke:#a3a3a3;stroke-linecap:round;stroke-linejoin:round"></line><path d="M163.89,236.9a.23.23,0,0,1-.09-.21.61.61,0,0,1,.14-.37.38.38,0,0,1,.31-.19.22.22,0,0,1,.13,0,3,3,0,0,0,1.53.44,1.59,1.59,0,0,0,.83-.19.58.58,0,0,0,.31-.54.6.6,0,0,0-.17-.46,1.25,1.25,0,0,0-.53-.28l-1.29-.43a2.17,2.17,0,0,1-.95-.57,1.31,1.31,0,0,1-.3-.91,1.38,1.38,0,0,1,.6-1.18,2.6,2.6,0,0,1,1.56-.44,3.92,3.92,0,0,1,1.08.16,2.21,2.21,0,0,1,.8.4.36.36,0,0,1,.12.28.48.48,0,0,1-.11.32.37.37,0,0,1-.28.14.49.49,0,0,1-.19,0,2.68,2.68,0,0,0-1.35-.36,2.94,2.94,0,0,0-.44,0,1.37,1.37,0,0,0-.36.11.64.64,0,0,0-.27.21.63.63,0,0,0,.05.72.93.93,0,0,0,.44.25,5.54,5.54,0,0,0,.57.17l.56.17a4.33,4.33,0,0,1,.66.26,1.75,1.75,0,0,1,.48.32,1.25,1.25,0,0,1,.31.45,1.55,1.55,0,0,1,.1.59,1.49,1.49,0,0,1-.6,1.25,2.69,2.69,0,0,1-1.63.45A3.21,3.21,0,0,1,163.89,236.9Z" style="fill:#263238"></path><path d="M169.1,232.55a.56.56,0,0,1,0-.78.62.62,0,0,1,.41-.14.6.6,0,0,1,.41.14.56.56,0,0,1,0,.78.56.56,0,0,1-.41.15A.58.58,0,0,1,169.1,232.55Zm.06,4.69a.56.56,0,0,1-.14-.4V234a.56.56,0,0,1,.14-.4.48.48,0,0,1,.7,0,.56.56,0,0,1,.14.4v2.81a.57.57,0,0,1-.14.4.51.51,0,0,1-.7,0Z" style="fill:#263238"></path><path d="M171.59,237.09a1.29,1.29,0,0,1-.3-.92v-2h-.38a.36.36,0,0,1-.26-.09.33.33,0,0,1-.09-.25.3.3,0,0,1,.34-.31h.41l.11-1a.63.63,0,0,1,.15-.34.43.43,0,0,1,.34-.14.31.31,0,0,1,.26.12.45.45,0,0,1,.1.33v1h.62a.32.32,0,0,1,.25.09.32.32,0,0,1,.09.24.29.29,0,0,1-.09.23.32.32,0,0,1-.25.09h-.62v1.77a1.36,1.36,0,0,0,.09.56.34.34,0,0,0,.33.18h.05l.27,0h0a.31.31,0,0,1,.25.11.4.4,0,0,1,.1.26.42.42,0,0,1,0,.16.18.18,0,0,1-.1.11.42.42,0,0,1-.13.07l-.19,0h-.52A1,1,0,0,1,171.59,237.09Z" style="fill:#263238"></path><path d="M174.07,234.42a1.82,1.82,0,0,1,.66-.72,2.15,2.15,0,0,1,1.83-.12,1.44,1.44,0,0,1,.57.42,2,2,0,0,1,.32.59,2.36,2.36,0,0,1,.11.72.36.36,0,0,1-.07.24.26.26,0,0,1-.21.09h-2.46a1,1,0,0,0,1.12,1.1,1.82,1.82,0,0,0,1-.39.2.2,0,0,1,.15-.06.28.28,0,0,1,.21.11.4.4,0,0,1,.09.25.34.34,0,0,1-.12.26,2.14,2.14,0,0,1-1.44.52,2,2,0,0,1-1.47-.54,2,2,0,0,1-.56-1.49A2.11,2.11,0,0,1,174.07,234.42Zm2.66.68a1.31,1.31,0,0,0-.26-.74.93.93,0,0,0-1.36,0,1.28,1.28,0,0,0-.28.73Z" style="fill:#263238"></path><path d="M178.46,237.24a.53.53,0,0,1-.13-.39V234a.52.52,0,0,1,.13-.38.49.49,0,0,1,.36-.14.5.5,0,0,1,.34.12.43.43,0,0,1,.15.34v.2a1.28,1.28,0,0,1,1.24-.71,1.42,1.42,0,0,1,.82.23,1.2,1.2,0,0,1,.46.62,1.36,1.36,0,0,1,1.37-.85,1.41,1.41,0,0,1,1,.38,1.43,1.43,0,0,1,.39,1.1v1.94a.49.49,0,0,1-.14.39.51.51,0,0,1-.7,0,.53.53,0,0,1-.13-.39v-1.93a.89.89,0,0,0-.2-.62.7.7,0,0,0-.54-.21.84.84,0,0,0-.68.31,1.2,1.2,0,0,0-.27.83v1.62a.53.53,0,0,1-.13.39.47.47,0,0,1-.36.14.42.42,0,0,1-.34-.14.49.49,0,0,1-.14-.39v-1.91a1,1,0,0,0-.19-.63.67.67,0,0,0-.54-.22.91.91,0,0,0-.69.28,1.1,1.1,0,0,0-.25.77v1.71a.5.5,0,0,1-.15.39.45.45,0,0,1-.36.14A.44.44,0,0,1,178.46,237.24Z" style="fill:#263238"></path><path d="M185.76,237.13a1,1,0,0,1-.38-.82,1.32,1.32,0,0,1,.05-.41.91.91,0,0,1,.13-.3.67.67,0,0,1,.25-.22,2.07,2.07,0,0,1,.34-.15,3.4,3.4,0,0,1,.45-.08,5.09,5.09,0,0,1,.56,0h.67v-.3a.61.61,0,0,0-.69-.71H187l-.15,0-.14,0-.14,0-.12,0-.12,0-.11,0-.1,0-.09,0-.11,0a.3.3,0,0,1-.23-.11.44.44,0,0,1-.1-.26.29.29,0,0,1,.18-.28,3.33,3.33,0,0,1,1.43-.3,2.49,2.49,0,0,1,.64.08,1.4,1.4,0,0,1,.5.26,1,1,0,0,1,.34.46,1.78,1.78,0,0,1,.12.69v2a.5.5,0,0,1-.14.37.47.47,0,0,1-.32.12.48.48,0,0,1-.33-.12.5.5,0,0,1-.14-.37v-.12a1.15,1.15,0,0,1-.4.48,1.34,1.34,0,0,1-.73.18A1.5,1.5,0,0,1,185.76,237.13Zm1.77-.62a1.09,1.09,0,0,0,.3-.78v-.11h-.62l-.43,0a.73.73,0,0,0-.3.11.4.4,0,0,0-.15.19.6.6,0,0,0-.06.29.5.5,0,0,0,.16.41.57.57,0,0,0,.42.15A1,1,0,0,0,187.53,236.51Z" style="fill:#263238"></path><path d="M190,238.72a.56.56,0,0,1-.14-.39V234a.56.56,0,0,1,.15-.41.45.45,0,0,1,.35-.15.46.46,0,0,1,.35.13.45.45,0,0,1,.13.36v.13a1.34,1.34,0,0,1,1.28-.67,1.55,1.55,0,0,1,.91.27,1.72,1.72,0,0,1,.58.72,2.63,2.63,0,0,1,.2,1,2.08,2.08,0,0,1-.48,1.45,1.62,1.62,0,0,1-1.26.53,1.32,1.32,0,0,1-1.23-.63v1.53a.53.53,0,0,1-.14.39.49.49,0,0,1-.36.14A.46.46,0,0,1,190,238.72Zm2.25-2a1,1,0,0,0,.28-.2,1.09,1.09,0,0,0,.18-.3,1.4,1.4,0,0,0,.1-.35,2.56,2.56,0,0,0,0-.39,2.22,2.22,0,0,0,0-.37,1.58,1.58,0,0,0-.09-.36,1.4,1.4,0,0,0-.18-.32.78.78,0,0,0-.28-.22.8.8,0,0,0-.39-.09.9.9,0,0,0-.79.34,1.75,1.75,0,0,0-.24,1,2.3,2.3,0,0,0,.1.67,1,1,0,0,0,.34.47.92.92,0,0,0,.58.19A1,1,0,0,0,192.2,236.69Z" style="fill:#263238"></path><path d="M194.45,236.73a.33.33,0,0,1,.09-.23.28.28,0,0,1,.22-.09.41.41,0,0,1,.2.06l.28.14a1.47,1.47,0,0,0,.33.12,1.82,1.82,0,0,0,.46.06,1.64,1.64,0,0,0,.4,0,.64.64,0,0,0,.3-.17.37.37,0,0,0,.13-.3c0-.22-.18-.38-.54-.46l-.61-.16-.44-.13a2.63,2.63,0,0,1-.35-.15.86.86,0,0,1-.27-.2,1.06,1.06,0,0,1-.15-.28,1.14,1.14,0,0,1-.06-.39.93.93,0,0,1,.43-.82,2,2,0,0,1,1.12-.28,3,3,0,0,1,1.28.29.33.33,0,0,1,.21.31.32.32,0,0,1-.08.21.26.26,0,0,1-.21.09.4.4,0,0,1-.15,0l-.09,0-.11,0-.13,0-.15,0-.15,0-.18,0h-.18a1.13,1.13,0,0,0-.51.1.33.33,0,0,0-.21.31.32.32,0,0,0,.12.27,1.17,1.17,0,0,0,.43.16l.6.15a2,2,0,0,1,.92.42,1,1,0,0,1,.29.75,1.07,1.07,0,0,1-.44.91,1.9,1.9,0,0,1-1.14.31,2.51,2.51,0,0,1-1.52-.45A.31.31,0,0,1,194.45,236.73Z" style="fill:#263238"></path><path d="M192.85,265.47h-2.48l-.35.93a.63.63,0,0,1-.2.29.56.56,0,0,1-.31.09.52.52,0,0,1-.37-.14.43.43,0,0,1-.16-.35.75.75,0,0,1,0-.2l1.71-4.27a1.24,1.24,0,0,1,.38-.58.94.94,0,0,1,1,0,1.24,1.24,0,0,1,.38.58l1.7,4.27a.51.51,0,0,1,0,.2.43.43,0,0,1-.16.35.52.52,0,0,1-.37.14.54.54,0,0,1-.31-.09.56.56,0,0,1-.2-.29Zm-1.24-3.32-1,2.57h1.92Z" style="fill:#263238"></path><path d="M195.55,266.55a1.71,1.71,0,0,1-.59-.73,2.59,2.59,0,0,1-.19-1,2.1,2.1,0,0,1,.47-1.44,1.6,1.6,0,0,1,1.27-.53,1.33,1.33,0,0,1,1.23.62v-1.76a.53.53,0,0,1,.13-.39.47.47,0,0,1,.36-.14.45.45,0,0,1,.35.14.53.53,0,0,1,.13.39v4.53a.53.53,0,0,1-.14.4.45.45,0,0,1-.35.15.48.48,0,0,1-.35-.12.45.45,0,0,1-.13-.36v-.14a1.36,1.36,0,0,1-1.29.68A1.54,1.54,0,0,1,195.55,266.55Zm1.95-.73a1.86,1.86,0,0,0,.23-1,2,2,0,0,0-.1-.67,1,1,0,0,0-.33-.48.94.94,0,0,0-.59-.18.87.87,0,0,0-.46.11.81.81,0,0,0-.3.31,1.13,1.13,0,0,0-.16.41,1.93,1.93,0,0,0-.06.49,2.24,2.24,0,0,0,.05.46,1.46,1.46,0,0,0,.16.44,1,1,0,0,0,1.56.12Z" style="fill:#263238"></path><path d="M200.32,266.55a1.64,1.64,0,0,1-.59-.73,2.59,2.59,0,0,1-.19-1,2.1,2.1,0,0,1,.47-1.44,1.6,1.6,0,0,1,1.27-.53,1.33,1.33,0,0,1,1.23.62v-1.76a.53.53,0,0,1,.13-.39.47.47,0,0,1,.36-.14.45.45,0,0,1,.35.14.53.53,0,0,1,.13.39v4.53a.57.57,0,0,1-.14.4.47.47,0,0,1-.35.15.48.48,0,0,1-.35-.12.45.45,0,0,1-.13-.36v-.14a1.36,1.36,0,0,1-1.29.68A1.54,1.54,0,0,1,200.32,266.55Zm2-.73a1.86,1.86,0,0,0,.23-1,2,2,0,0,0-.1-.67,1.07,1.07,0,0,0-.33-.48.94.94,0,0,0-.59-.18.87.87,0,0,0-.46.11.81.81,0,0,0-.3.31,1.36,1.36,0,0,0-.17.41,2.54,2.54,0,0,0-.05.49,2.24,2.24,0,0,0,.05.46,1.76,1.76,0,0,0,.15.44.92.92,0,0,0,.31.34.88.88,0,0,0,.46.12A.89.89,0,0,0,202.27,265.82Z" style="fill:#263238"></path><path d="M206.87,266.51a1,1,0,0,1-.38-.82,1.7,1.7,0,0,1,0-.41.83.83,0,0,1,.14-.3.73.73,0,0,1,.24-.22,2.07,2.07,0,0,1,.34-.15,3.12,3.12,0,0,1,.46-.09l.55,0H209v-.3a.62.62,0,0,0-.69-.7h-.15l-.16,0-.13,0-.14,0-.13,0-.12,0-.11,0-.1,0-.09,0-.1,0a.3.3,0,0,1-.24-.12.39.39,0,0,1-.09-.26.29.29,0,0,1,.17-.27,3.37,3.37,0,0,1,1.44-.3,2.55,2.55,0,0,1,.64.08,1.47,1.47,0,0,1,.5.25,1.19,1.19,0,0,1,.34.47,2,2,0,0,1,.11.68v2a.45.45,0,0,1-.13.36.48.48,0,0,1-.66,0,.46.46,0,0,1-.14-.36v-.13a1,1,0,0,1-.4.48,1.24,1.24,0,0,1-.73.19A1.52,1.52,0,0,1,206.87,266.51Zm1.77-.62a1.09,1.09,0,0,0,.3-.78V265l-.61,0a3,3,0,0,0-.44,0,.7.7,0,0,0-.3.11.54.54,0,0,0-.15.18.67.67,0,0,0-.05.3.53.53,0,0,0,.15.41.59.59,0,0,0,.42.14A.93.93,0,0,0,208.64,265.89Z" style="fill:#263238"></path><path d="M213.29,266.62a.57.57,0,0,1-.14-.4v-2.87a.46.46,0,0,1,.14-.36.5.5,0,0,1,.36-.13.46.46,0,0,1,.48.48v.14a1.1,1.1,0,0,1,.5-.5,1.61,1.61,0,0,1,.78-.18,1.56,1.56,0,0,1,.53.1,1.5,1.5,0,0,1,.44.26,1.33,1.33,0,0,1,.31.47,2,2,0,0,1,.11.67v1.92a.57.57,0,0,1-.14.4.49.49,0,0,1-.36.14.48.48,0,0,1-.34-.14.57.57,0,0,1-.14-.4v-1.93a.88.88,0,0,0-.2-.61.72.72,0,0,0-.53-.21.89.89,0,0,0-.68.31,1.12,1.12,0,0,0-.28.8v1.64a.57.57,0,0,1-.14.4.51.51,0,0,1-.7,0Z" style="fill:#263238"></path><path d="M217.82,263.79a1.8,1.8,0,0,1,.66-.71,2,2,0,0,1,1-.27,2,2,0,0,1,.8.15,1.57,1.57,0,0,1,.56.41,2.16,2.16,0,0,1,.32.6,2.35,2.35,0,0,1,.11.71.39.39,0,0,1-.07.25.26.26,0,0,1-.21.09h-2.46a1,1,0,0,0,1.12,1.1,1.82,1.82,0,0,0,1-.39.2.2,0,0,1,.15-.06.28.28,0,0,1,.21.11.37.37,0,0,1,.09.25.34.34,0,0,1-.12.26,2.2,2.2,0,0,1-1.44.52,1.9,1.9,0,0,1-2-2A2.14,2.14,0,0,1,217.82,263.79Zm2.66.68a1.31,1.31,0,0,0-.26-.73.82.82,0,0,0-.68-.29.84.84,0,0,0-.68.3,1.28,1.28,0,0,0-.28.72Z" style="fill:#263238"></path><path d="M226,266.61a1.21,1.21,0,0,1-.29-.55l-.78-2.29-.78,2.29a1.21,1.21,0,0,1-.29.55.63.63,0,0,1-.43.15c-.3,0-.52-.22-.64-.65l-.87-2.66a1,1,0,0,1,0-.16A.42.42,0,0,1,222,263a.49.49,0,0,1,.31-.11.47.47,0,0,1,.26.08.43.43,0,0,1,.16.26l.77,2.55.78-2.34a.93.93,0,0,1,.24-.42.51.51,0,0,1,.38-.14.5.5,0,0,1,.38.14.93.93,0,0,1,.24.42l.79,2.34.76-2.55a.43.43,0,0,1,.16-.26.5.5,0,0,1,.26-.08.49.49,0,0,1,.31.11.39.39,0,0,1,.13.31,1,1,0,0,1,0,.16l-.87,2.66c-.12.43-.34.65-.63.65A.65.65,0,0,1,226,266.61Z" style="fill:#263238"></path><path d="M230.82,266.11a.33.33,0,0,1,.09-.23.3.3,0,0,1,.22-.1.39.39,0,0,1,.2.06l.28.15.33.12a1.82,1.82,0,0,0,.46.06,1.62,1.62,0,0,0,.4-.05.62.62,0,0,0,.31-.16.41.41,0,0,0,.12-.3c0-.22-.18-.38-.54-.47l-.61-.15-.44-.13a2.63,2.63,0,0,1-.35-.15.81.81,0,0,1-.42-.48,1.14,1.14,0,0,1-.06-.39.91.91,0,0,1,.43-.82,2,2,0,0,1,1.12-.28,2.82,2.82,0,0,1,1.28.29.33.33,0,0,1,.13.52.26.26,0,0,1-.21.09l-.15,0-.09,0-.11-.05-.13,0-.15-.05-.15,0-.18,0h-.18a1.13,1.13,0,0,0-.51.1.31.31,0,0,0-.21.3.29.29,0,0,0,.12.27,1,1,0,0,0,.44.16l.59.16a2,2,0,0,1,.92.42,1,1,0,0,1,.29.74,1.05,1.05,0,0,1-.44.91,1.9,1.9,0,0,1-1.14.32,2.51,2.51,0,0,1-1.52-.45A.33.33,0,0,1,230.82,266.11Z" style="fill:#263238"></path><path d="M235,261.93a.56.56,0,0,1,0-.78.56.56,0,0,1,.41-.15.58.58,0,0,1,.41.15.58.58,0,0,1,0,.78.59.59,0,0,1-.41.15A.56.56,0,0,1,235,261.93Zm.06,4.69a.53.53,0,0,1-.14-.4v-2.81A.54.54,0,0,1,235,263a.47.47,0,0,1,.35-.14.48.48,0,0,1,.35.14.58.58,0,0,1,.14.41v2.81a.57.57,0,0,1-.14.4.48.48,0,0,1-.35.14A.47.47,0,0,1,235,266.62Z" style="fill:#263238"></path><path d="M237.43,266.47a1.29,1.29,0,0,1-.3-.92v-2h-.37a.35.35,0,0,1-.26-.1.32.32,0,0,1-.09-.24.31.31,0,0,1,.08-.23.33.33,0,0,1,.25-.09h.41l.12-1a.54.54,0,0,1,.15-.35.42.42,0,0,1,.33-.13.35.35,0,0,1,.27.11.55.55,0,0,1,.09.34v1h.63a.33.33,0,0,1,.25.09.34.34,0,0,1,.08.25.3.3,0,0,1-.08.23.33.33,0,0,1-.25.09h-.63v1.77a1.15,1.15,0,0,0,.1.55.34.34,0,0,0,.33.18h.34a.35.35,0,0,1,.26.11.38.38,0,0,1,.09.25.43.43,0,0,1,0,.17.35.35,0,0,1-.1.11l-.14.07-.19,0h-.51A1.13,1.13,0,0,1,237.43,266.47Z" style="fill:#263238"></path><path d="M239.91,263.79a1.76,1.76,0,0,1,.67-.71,2,2,0,0,1,1-.27,2,2,0,0,1,.8.15,1.48,1.48,0,0,1,.56.41,1.93,1.93,0,0,1,.32.6,2.35,2.35,0,0,1,.11.71.39.39,0,0,1-.07.25.23.23,0,0,1-.21.09h-2.45a1,1,0,0,0,1.12,1.1,1.82,1.82,0,0,0,1-.39.24.24,0,0,1,.15-.06.31.31,0,0,1,.22.11.37.37,0,0,1,.09.25.32.32,0,0,1-.13.26,2.17,2.17,0,0,1-1.43.52,2,2,0,0,1-1.48-.54,2,2,0,0,1-.55-1.5A2.14,2.14,0,0,1,239.91,263.79Zm2.66.68a1.31,1.31,0,0,0-.26-.73.8.8,0,0,0-.67-.29.83.83,0,0,0-.68.3,1.29,1.29,0,0,0-.29.72Z" style="fill:#263238"></path><path d="M244.31,266.62a.56.56,0,0,1-.14-.4v-2.84a.51.51,0,0,1,.14-.38.45.45,0,0,1,.35-.14.53.53,0,0,1,.35.12.44.44,0,0,1,.14.34v.2a1.28,1.28,0,0,1,1.25-.71,1.37,1.37,0,0,1,.82.23,1.13,1.13,0,0,1,.45.62,1.35,1.35,0,0,1,1.37-.85,1.42,1.42,0,0,1,1,.37,1.47,1.47,0,0,1,.39,1.11v1.93a.56.56,0,0,1-.14.4.49.49,0,0,1-.36.14.46.46,0,0,1-.34-.14.56.56,0,0,1-.14-.4v-1.93a.86.86,0,0,0-.19-.61.7.7,0,0,0-.54-.21.89.89,0,0,0-.69.3,1.28,1.28,0,0,0-.26.84v1.61a.57.57,0,0,1-.14.4.51.51,0,0,1-.7,0,.57.57,0,0,1-.14-.4v-1.9a.94.94,0,0,0-.19-.64.7.7,0,0,0-.54-.21.87.87,0,0,0-.68.28,1.09,1.09,0,0,0-.26.76v1.71a.56.56,0,0,1-.14.4.52.52,0,0,1-.36.14A.46.46,0,0,1,244.31,266.62Z" style="fill:#263238"></path><path d="M251.6,266.51a1,1,0,0,1-.38-.82,1.7,1.7,0,0,1,.05-.41.83.83,0,0,1,.14-.3.73.73,0,0,1,.24-.22,2.07,2.07,0,0,1,.34-.15,3.12,3.12,0,0,1,.46-.09l.55,0h.68v-.3a.62.62,0,0,0-.69-.7h-.15l-.15,0-.14,0-.14,0-.13,0-.12,0-.1,0-.11,0-.09,0-.1,0a.3.3,0,0,1-.24-.12.39.39,0,0,1-.09-.26.29.29,0,0,1,.17-.27,3.37,3.37,0,0,1,1.44-.3,2.55,2.55,0,0,1,.64.08,1.47,1.47,0,0,1,.5.25,1.19,1.19,0,0,1,.34.47,1.76,1.76,0,0,1,.11.68v2a.45.45,0,0,1-.13.36.48.48,0,0,1-.66,0,.46.46,0,0,1-.14-.36v-.13a1,1,0,0,1-.4.48,1.24,1.24,0,0,1-.73.19A1.52,1.52,0,0,1,251.6,266.51Zm1.77-.62a1.09,1.09,0,0,0,.3-.78V265l-.61,0a2.86,2.86,0,0,0-.43,0,.7.7,0,0,0-.31.11.54.54,0,0,0-.15.18.67.67,0,0,0,0,.3.53.53,0,0,0,.15.41.59.59,0,0,0,.42.14A.93.93,0,0,0,253.37,265.89Z" style="fill:#263238"></path><path d="M255.79,268.09a.52.52,0,0,1-.13-.38v-4.29a.6.6,0,0,1,.14-.41.49.49,0,0,1,.36-.15.47.47,0,0,1,.34.12.49.49,0,0,1,.13.37v.13a1.36,1.36,0,0,1,1.29-.68,1.54,1.54,0,0,1,.9.27,1.84,1.84,0,0,1,.59.73,2.59,2.59,0,0,1,.19,1,2.14,2.14,0,0,1-.47,1.45,1.64,1.64,0,0,1-1.27.53,1.34,1.34,0,0,1-1.23-.63v1.53a.53.53,0,0,1-.13.39.5.5,0,0,1-.36.13A.45.45,0,0,1,255.79,268.09Zm2.25-2a.75.75,0,0,0,.28-.2,1.49,1.49,0,0,0,.18-.3,2.47,2.47,0,0,0,.11-.36,2.38,2.38,0,0,0,0-.39,2.19,2.19,0,0,0,0-.36,1.61,1.61,0,0,0-.1-.36,1,1,0,0,0-.17-.32.87.87,0,0,0-.67-.31.89.89,0,0,0-.8.34,1.82,1.82,0,0,0-.23,1,1.91,1.91,0,0,0,.1.66.91.91,0,0,0,.92.66A.92.92,0,0,0,258,266.07Z" style="fill:#263238"></path></g><rect x="76.79" y="208.58" width="340.71" height="192.54" style="fill:none;stroke:#263238;stroke-linecap:round;stroke-linejoin:round"></rect><path d="M250.32,197.05a3.26,3.26,0,1,0-3.26,3.26A3.25,3.25,0,0,0,250.32,197.05Z" style="fill:#263238"></path></g><g id="freepik--Character--inject-18"><path d="M445.57,415.86a13,13,0,0,0-10.49-7.19s-14.69,1.51-36.8,2.23-24.55-1-24.55-1a57.39,57.39,0,0,0-3,7.45c-.88.72-4.1,3.39-5.56,4.67-1.7,1.49-8.66,3.92-6.87,12.33S370.9,445.23,384,447.05c12.49,1.73,34.14.86,44.61-2.34,4-.77,7.36-1.89,9.58-3.45C446.46,435.45,449.09,422.8,445.57,415.86Z" style="fill:#fff;stroke:#263238;stroke-linecap:round;stroke-linejoin:round"></path><path d="M427.92,389c-2-4.23-5-12.59-5-12.59l4.65-20.26s4.33-9,2.89-16.28-3.26-7.37-9.49-9.6-10.27-2.32-12-4.47a18.44,18.44,0,0,1-3.41-7.64c-.22-1.8-.31-3.75-.31-3.75s-6.31,5-16.18,2.41a32.36,32.36,0,0,1,.35,7.78c-.4,3.5-1.46,4.52-7.6,7.3s-15.1,5-16.83,9.82-2.16,12.49-2.55,24.57c-.41,12.77-1.19,14.67-1.19,14.67l-32,13.74-.13-.32s-1.57-.75-2.9-1.51-2.12,0-3.36-1.5-1.73-4.28-2.39-3.19a3.6,3.6,0,0,0,.53,3.74l-.4,1.55,2,7.69a7.68,7.68,0,0,0,4.58-.44c1.29-.69,2.48-1.36,3.14-1.74,8.05-1.28,39.83-10.39,40.77-10.79,1.1-.47,5.32-27.5,5.32-27.5s4.38,13.59,4.62,15.95-8.18,34.48-8.18,34.48,3.63,3.32,19.21,3,35.67-2.58,39.37-4l3.69-1.43S429.92,393.17,427.92,389Z" style="fill:#b2b2b2;stroke:#263238;stroke-linecap:round;stroke-linejoin:round"></path><path d="M397.53,329.57c3.26,0,8.43-3.52,10.1-5.73a18.3,18.3,0,0,1-2.13-5.73c-.22-1.8-.31-3.75-.31-3.75s-6.31,5-16.18,2.41a33.92,33.92,0,0,1,.41,7.21C392,326.09,394.23,329.57,397.53,329.57Z" style="fill:#263238;stroke:#263238;stroke-linecap:round;stroke-linejoin:round"></path><path d="M428.87,287.62c0,1.08-1,2.09-1.16,3.14s.64,2.31.38,3.35-1.5,1.74-1.88,2.73.06,2.4-.43,3.34-1.87,1.3-2.46,2.18-.47,2.34-1.16,3.14-2.1.84-2.86,1.57-.94,2.17-1.77,2.81-2.21.38-3.1.93-1.33,1.95-2.26,2.41-2.25-.07-3.22.3-1.64,1.66-2.64,1.94-2.2-.49-3.22-.31-1.9,1.33-2.93,1.43-2.08-.88-3.12-.88-2.1,1-3.12.89-1.93-1.23-2.93-1.41-2.23.59-3.22.32-1.69-1.56-2.65-1.92-2.3.16-3.22-.29-1.39-1.86-2.27-2.4-2.29-.28-3.11-.91-1-2.1-1.78-2.81-2.19-.76-2.87-1.55-.58-2.27-1.17-3.14-2-1.23-2.47-2.17-.06-2.34-.45-3.33-1.63-1.69-1.89-2.73.49-2.27.36-3.34-1.18-2.06-1.18-3.14,1-2.09,1.16-3.14-.63-2.31-.38-3.35,1.51-1.74,1.89-2.73-.06-2.4.43-3.34,1.86-1.3,2.46-2.18.47-2.34,1.16-3.14,2.09-.84,2.86-1.57.93-2.17,1.76-2.81,2.22-.38,3.11-.93,1.32-1.94,2.26-2.41,2.24.07,3.22-.3,1.64-1.66,2.64-1.93,2.19.48,3.22.3,1.89-1.33,2.92-1.43,2.09.88,3.13.88,2.1-1,3.11-.89S402,260,403,260.21s2.23-.59,3.21-.32,1.7,1.56,2.66,1.92,2.29-.16,3.22.29,1.39,1.86,2.27,2.4,2.28.28,3.11.91,1,2.1,1.78,2.81,2.18.76,2.86,1.55.58,2.27,1.18,3.14,2,1.23,2.47,2.17.06,2.34.44,3.33,1.64,1.69,1.9,2.73-.5,2.27-.36,3.34S428.87,286.54,428.87,287.62Z" style="fill:#263238;stroke:#263238;stroke-linecap:round;stroke-linejoin:round"></path><path d="M412.34,296.84s1.94-4.32,3.61-3.76,2.38,6.25.3,8.76-3.75,1.68-4.17,1.12S412.34,296.84,412.34,296.84Z" style="fill:#b2b2b2;stroke:#263238;stroke-linecap:round;stroke-linejoin:round"></path><path d="M380.9,294.55a3.26,3.26,0,0,0-3.47,3.35c-.27,3.61,3.91,5.13,4.46,5.41S380.9,294.55,380.9,294.55Z" style="fill:#b2b2b2;stroke:#263238;stroke-linecap:round;stroke-linejoin:round"></path><path d="M379.77,287.6s.87,14.88,3.39,22.11,10.88,14.58,14.5,14.15,6.81-2.52,10-7.39a34.48,34.48,0,0,0,2.95-6,33.94,33.94,0,0,0,2.27-13.34l-.28-9.44s-4.76-10.15-16.44-9.84C387.67,278,383.23,282.44,379.77,287.6Z" style="fill:#b2b2b2;stroke:#263238;stroke-linecap:round;stroke-linejoin:round"></path><path d="M412.6,287.66s-4.76-10.15-16.44-9.84c-8.49.22-12.93,4.62-16.39,9.78,0,0,.07,1.24.23,3.17a24.2,24.2,0,0,1,16.73-5.86c8.5.38,13.47,3.44,15.95,5.6Z" style="fill:#FA4639;stroke:#263238;stroke-linecap:round;stroke-linejoin:round"></path><path d="M390.37,299.05c0,1.19-.53,1.16-1.18,1.16s-1.18,0-1.19-1.16.53-2.15,1.18-2.15S390.37,297.86,390.37,299.05Z" style="fill:#263238"></path><path d="M403.58,299c0,1.19-.52,1.15-1.17,1.16s-1.19,0-1.19-1.16.52-2.15,1.18-2.16S403.58,297.83,403.58,299Z" style="fill:#263238"></path><path d="M384.79,295.24a7.23,7.23,0,0,1,6.12-2.1" style="fill:none;stroke:#263238;stroke-linecap:round;stroke-linejoin:round"></path><path d="M399.39,292.7s4.17-2,7.8,2.34" style="fill:none;stroke:#263238;stroke-linecap:round;stroke-linejoin:round"></path><path d="M393.72,305s3.21,2.5,6,0" style="fill:none;stroke:#263238;stroke-linecap:round;stroke-linejoin:round"></path><path d="M386.38,301.08a16.58,16.58,0,0,1,5.18-.14" style="fill:none;stroke:#263238;stroke-linecap:round;stroke-linejoin:round;stroke-width:0.5px"></path><path d="M400.69,300.8a11.54,11.54,0,0,1,5.18.28" style="fill:none;stroke:#263238;stroke-linecap:round;stroke-linejoin:round;stroke-width:0.5px"></path><line x1="394.42" y1="301.48" x2="398.24" y2="300.12" style="fill:none;stroke:#263238;stroke-linecap:round;stroke-linejoin:round;stroke-width:0.5px"></line><line x1="394.56" y1="300.39" x2="397.42" y2="299.17" style="fill:none;stroke:#263238;stroke-linecap:round;stroke-linejoin:round;stroke-width:0.5px"></line><path d="M392.48,309.82s5.15,3.19,8.9-.71" style="fill:none;stroke:#263238;stroke-linecap:round;stroke-linejoin:round"></path><path d="M431.39,410.1l3.69-1.43s-5.16-15.5-7.16-19.72-5-12.59-5-12.59l3.92-17.05c-4.67-1-9.48-9.19-10.1-14.83-.48-4.43-.06-11.45.27-15.51l-2.11-.57a159.3,159.3,0,0,0-.33,17.43c-15,4.3-30.87.84-30.87.84l0-15.72c-.58.28-1.22.58-1.93.9-.08,2.62-.32,7.73-1,12.72-.93,7.14-4.43,16.07-4.43,16.07s4.38,13.59,4.62,15.95-8.18,34.48-8.18,34.48,3.63,3.32,19.21,3S427.69,411.52,431.39,410.1Z" style="fill:#263238;stroke:#263238;stroke-linecap:round;stroke-linejoin:round"></path><polygon points="375.3 407.76 396.09 390.25 343.4 385.95 322.72 402.76 375.3 407.76" style="fill:#828282;stroke:#263238;stroke-linecap:round;stroke-linejoin:round"></polygon><polygon points="322.72 402.76 375.3 407.76 367.06 370.12 313.72 366.72 322.72 402.76" style="fill:#263238;stroke:#263238;stroke-linecap:round;stroke-linejoin:round"></polygon><path d="M368.08,374.79c-10.31,1.68-14.48,11.75-26.15,21.3a35.6,35.6,0,0,1-13.53,7.21l46.9,4.46Z" style="fill:#4c4c4c;stroke:#263238;stroke-linecap:round;stroke-linejoin:round"></path><path d="M320.46,398.62a4.77,4.77,0,0,0,1.33,2.64c1.12,1,3.61.91,4.11.08s-.58-1-2-1.59A24.31,24.31,0,0,0,320.46,398.62Z" style="fill:#b2b2b2;stroke:#263238;stroke-linecap:round;stroke-linejoin:round"></path><path d="M320.14,397.63s-.62,1.1,2.11,1.92,4.17-.12,4.46-1.14a1.32,1.32,0,0,0-1.09-1.77c-.6,0-4.56.54-5,.56S320,396.83,320.14,397.63Z" style="fill:#b2b2b2;stroke:#263238;stroke-linecap:round;stroke-linejoin:round"></path><path d="M319,394.44s0,2.36.4,2.95,4,1.17,5.67.15,1.21-2.89.14-2.84S319,394.44,319,394.44Z" style="fill:#b2b2b2;stroke:#263238;stroke-linecap:round;stroke-linejoin:round"></path><path d="M319.44,389.5s-2.13,4.21-.63,5.41,5.84.82,6.49-.84-1-1.4-2.8-1.68l-2.28-.36Z" style="fill:#b2b2b2;stroke:#263238;stroke-linecap:round;stroke-linejoin:round"></path><path d="M419.39,441S388,433.2,375.3,423.77,354.78,406.68,345,404.58s-17.26,3.36-17.22,10.61,5,12.08,17.48,18.7,31.3,10.76,44.54,12.83S417.91,448,420.7,448s7.38.25,14.12-.38a11.72,11.72,0,0,0,11-11.76c.07-2.51-4.56-6.33-8.61-4.39S425.71,440.38,419.39,441Z" style="fill:#a1a1a1;stroke:#263238;stroke-linecap:round;stroke-linejoin:round"></path><path d="M404.53,436.73c-9.9-3.18-22.32-7.83-29.23-13-12.71-9.42-20.52-17.09-30.27-19.19s-17.26,3.36-17.22,10.61,5,12.08,17.48,18.7,31.3,10.76,44.54,12.83c3.7.58,7.53.94,11.19,1.15,0-.52,0-1.06.05-1.65C401.21,442.89,403.09,439.14,404.53,436.73Z" style="fill:#fff;stroke:#263238;stroke-linecap:round;stroke-linejoin:round"></path><path d="M437.23,431.44c-3,1.44-7.85,5.63-12.74,8a2.49,2.49,0,0,0-.05,2.43,9.24,9.24,0,0,0,3.45,3.38s-2,2.3-7.19,2.73c2.8-.08,7.38.25,14.12-.38a11.72,11.72,0,0,0,11-11.76C445.91,433.32,441.28,429.5,437.23,431.44Z" style="fill:#263238;stroke:#263238;stroke-linecap:round;stroke-linejoin:round"></path><path d="M443.32,437.24c.27,6.11-5.31,8.39-8.5,10.35a11.72,11.72,0,0,0,11-11.76c.07-2.51-4.56-6.33-8.61-4.39C437.23,431.44,443,431.12,443.32,437.24Z" style="fill:#fff;stroke:#263238;stroke-linecap:round;stroke-linejoin:round"></path><path d="M354.65,440.58s31.57-7,44.53-16.08,21-16.54,30.77-18.38,17.16,3.82,16.94,11.07-5.31,11.94-18,18.22-31.58,9.92-44.87,11.64-28.1.57-30.89.42a141.14,141.14,0,0,1-14.1-.75,11.73,11.73,0,0,1-10.71-12.05c0-2.51,4.73-6.2,8.72-4.15S348.34,439.75,354.65,440.58Z" style="fill:#b2b2b2;stroke:#263238;stroke-linecap:round;stroke-linejoin:round"></path><path d="M430,406.12c-9.8,1.84-17.82,9.3-30.77,18.38C392,429.55,379,434,368.92,436.88a23,23,0,0,0-.16,8.68c.17.89.33,1.69.5,2.42a128,128,0,0,0,14.78-.93c13.29-1.72,32.21-5.36,44.87-11.64s17.75-11,18-18.22S439.76,404.29,430,406.12Z" style="fill:#fff;stroke:#263238;stroke-linecap:round;stroke-linejoin:round"></path><path d="M345,445.69a16.38,16.38,0,0,0,3.62-3.46c1-1.57-.22-3.85-.4-4.18-4.33-2.53-8.46-6.17-11.12-7.53-4-2-8.72,1.64-8.72,4.15a11.73,11.73,0,0,0,10.71,12.05,99.22,99.22,0,0,0,10.66.67C347,446.57,345,445.69,345,445.69Z" style="fill:#263238;stroke:#263238;stroke-linecap:round;stroke-linejoin:round"></path><path d="M339.34,446.75c-1-.53-2-1.1-2.89-1.61-2.59-1.59-6.3-4-6.48-8-.13-2.75,2-5.6,3.3-7.11-2.69.59-4.93,2.88-4.93,4.6a11.73,11.73,0,0,0,10.71,12.05Z" style="fill:#fff;stroke:#263238;stroke-linecap:round;stroke-linejoin:round"></path><path d="M423.71,351.12s16,40.08,18.73,41.63,9.23,1,7.57-8.14-8.9-36.5-11.81-42.36a20.19,20.19,0,0,0-10.47-10,16.89,16.89,0,0,0-5.49-1.28" style="fill:#b2b2b2;stroke:#263238;stroke-linecap:round;stroke-linejoin:round"></path><path d="M442.48,381.46a89.45,89.45,0,0,1-21.57,3.35c-11.4.24-11.27.23-15.5-1.11s-11.77-4-14.57-4.42-4.42-1.25-5.36-.14c-8.26,9.75-9.48,10.07-9.31,10.89s3.85-1,3.85-1-2.07,3.44-1.23,3.54a9.81,9.81,0,0,0,2.9-.69s.06,1.39,1.16,1.2a9.15,9.15,0,0,0,2.86-1.52s-1.24,3.4.24,2.22,5.49-4.84,5.9-5,4.09,1.07,6,1.12a22.1,22.1,0,0,0,4.7-.63s12.88,4.57,24.37,6,20.72-.52,22.84-2.85.13-6.41-1-9.56" style="fill:#b2b2b2;stroke:#263238;stroke-linecap:round;stroke-linejoin:round"></path><path d="M380,389s4.08-5.33,5.67-7.21" style="fill:none;stroke:#263238;stroke-linecap:round;stroke-linejoin:round"></path><line x1="381.69" y1="391.87" x2="389.31" y2="381.78" style="fill:none;stroke:#263238;stroke-linecap:round;stroke-linejoin:round"></line><path d="M385.71,391.55s4.73-6.2,5.7-6.38" style="fill:none;stroke:#263238;stroke-linecap:round;stroke-linejoin:round"></path></g><g id="freepik--Floor--inject-18"><line x1="9" y1="448.16" x2="486" y2="448.16" style="fill:none;stroke:#263238;stroke-linecap:round;stroke-linejoin:round"></line></g></svg>