<svg xmlns="http://www.w3.org/2000/svg" viewBox="0 0 500 500"><g id="freepik--Floor--inject-60"><ellipse id="freepik--floor--inject-60" cx="251.96" cy="344.94" rx="238.53" ry="140.13" style="fill:#f0f0f0"></ellipse></g><g id="freepik--Shadows--inject-60"><path id="freepik--Shadow--inject-60" d="M30.36,383.05,82.9,413.38a4.79,4.79,0,0,0,4.33,0L338.58,268.27a1.33,1.33,0,0,0,0-2.51L286.27,235.3a4.79,4.79,0,0,0-4.33,0L30.36,380.55A1.32,1.32,0,0,0,30.36,383.05Z" style="fill:#e0e0e0"></path><path id="freepik--shadow--inject-60" d="M353.68,252.51c-6.23,3.51-6.29,9.3-.14,12.94s16.18,3.75,22.41.24,6.29-9.3.14-12.94S359.9,249,353.68,252.51Z" style="fill:#e0e0e0"></path><path id="freepik--shadow--inject-60" d="M434.26,269l-6.1-3.54a7.36,7.36,0,0,0-6.67,0l-2.13,1.22-7.94-4.58a2.84,2.84,0,0,0-2.6,0l-.05,0a.79.79,0,0,0,0,1.5l7.94,4.59-.44.25c-1.84,1.06-1.84,2.79,0,3.86l6.11,3.53,8.91,5.15,11.89-6.86Z" style="fill:#e0e0e0"></path><path id="freepik--shadow--inject-60" d="M327.83,306l58.53-33.79a5.61,5.61,0,0,1,5.08,0l38.66,22.31c1.4.81,1.4,2.13,0,2.94l-58.54,33.79a5.61,5.61,0,0,1-5.08,0l-38.65-22.31C326.42,308.1,326.42,306.78,327.83,306Z" style="fill:#e0e0e0"></path><path id="freepik--shadow--inject-60" d="M372.74,377.53a2.73,2.73,0,0,1-2.36-1.42l-1-1.9a.56.56,0,0,0-.19-.11,25.57,25.57,0,0,1-2.65-.33h0a1.28,1.28,0,0,0-.58.12l-2.64,1.75a3.25,3.25,0,0,1-1.71.48,2.92,2.92,0,0,1-1.08-.19l-3.92-1.58a1.93,1.93,0,0,1-1.21-1.37,1.9,1.9,0,0,1,.52-1.75l1.35-1.45a9.85,9.85,0,0,1-.74-.7,1,1,0,0,0-.45-.21l-4.56.18a2.55,2.55,0,0,1-2.38-1.74l-.68-2.17a2.07,2.07,0,0,1,1.66-2.7l4.19-.72a.1.1,0,0,0,.05-.07c.07-.21.14-.42.22-.64l-2.72-1.36a1.86,1.86,0,0,1-.36-3.19l2.5-2.08a3.11,3.11,0,0,1,1.95-.67,2.76,2.76,0,0,1,.82.12l3.82,1.2a1.17,1.17,0,0,0,.2,0,1.3,1.3,0,0,0,.48-.08c.62-.27,1.28-.51,1.95-.73l-.19-1.6a2.19,2.19,0,0,1,.46-1.64,2.24,2.24,0,0,1,1.5-.82l4.9-.51h.25a2.73,2.73,0,0,1,2.36,1.42l1,1.9a.68.68,0,0,0,.19.11c.9.07,1.8.18,2.66.33h0a1.2,1.2,0,0,0,.59-.12l2.64-1.75a3.19,3.19,0,0,1,1.7-.48,2.85,2.85,0,0,1,1.08.2l3.93,1.57a1.93,1.93,0,0,1,1.21,1.37A2,2,0,0,1,387,356l-1.36,1.44c.26.23.51.46.74.7a1,1,0,0,0,.45.21l4.57-.18a2.53,2.53,0,0,1,2.37,1.74l.68,2.17a2.09,2.09,0,0,1-.2,1.73,2.06,2.06,0,0,1-1.45,1l-4.2.72-.05.07a5.39,5.39,0,0,1-.22.64l2.72,1.36a1.87,1.87,0,0,1,.37,3.19l-2.51,2.08a3.11,3.11,0,0,1-1.95.67,2.69,2.69,0,0,1-.81-.12l-3.82-1.2a1.37,1.37,0,0,0-.21,0,1.4,1.4,0,0,0-.48.08,20.26,20.26,0,0,1-2,.73l.2,1.6a2.22,2.22,0,0,1-2,2.46l-4.91.51Zm-1.3-18a11.09,11.09,0,0,0-6.85,2,2.67,2.67,0,0,0-1.17,2.34c.18,1.1,1.36,2.19,3.17,2.92a13.1,13.1,0,0,0,4.83.87,11.11,11.11,0,0,0,6.86-2,2.66,2.66,0,0,0,1.16-2.33c-.17-1.11-1.35-2.2-3.16-2.92A13.15,13.15,0,0,0,371.44,359.53Z" style="fill:#e0e0e0"></path><path id="freepik--shadow--inject-60" d="M426.23,374.22a2.43,2.43,0,0,1-2.35-2l-.88-4.61a42.32,42.32,0,0,1-5.62-1.34,1.07,1.07,0,0,0-.25,0,1.24,1.24,0,0,0-.41.06l-7.09,3.28a3,3,0,0,1-1.25.26,3.15,3.15,0,0,1-1.53-.38l-7-4a1.94,1.94,0,0,1-1-1.56,1.9,1.9,0,0,1,.84-1.64l5-3.61a14.7,14.7,0,0,1-1.75-2.53.41.41,0,0,0-.2-.14l-9.28-.59a2.27,2.27,0,0,1-2.13-2.27v-5.2a2.28,2.28,0,0,1,2.13-2.27l9.32-.59a.88.88,0,0,0,.17-.14,14.64,14.64,0,0,1,1.74-2.53l-5-3.6a1.86,1.86,0,0,1,.16-3.21l7-4a3.05,3.05,0,0,1,1.53-.39,3,3,0,0,1,1.25.26l7.09,3.29a1.29,1.29,0,0,0,.41,0,1.15,1.15,0,0,0,.25,0,42,42,0,0,1,5.62-1.34l.88-4.61a2.43,2.43,0,0,1,2.35-1.95h10.29a2.43,2.43,0,0,1,2.35,2l.88,4.6a42.32,42.32,0,0,1,5.62,1.34.94.94,0,0,0,.25,0,1.34,1.34,0,0,0,.41,0l7.09-3.29a2.94,2.94,0,0,1,1.25-.26,3.08,3.08,0,0,1,1.53.39l7,4a1.87,1.87,0,0,1,.16,3.21l-5,3.6a15.36,15.36,0,0,1,1.75,2.54.67.67,0,0,0,.19.14l9.29.58a2.28,2.28,0,0,1,2.13,2.27v5.2a2.27,2.27,0,0,1-2.13,2.27L460,356a.88.88,0,0,0-.17.14,14.64,14.64,0,0,1-1.74,2.53l5,3.61a1.87,1.87,0,0,1,.83,1.64,1.91,1.91,0,0,1-1,1.56l-7,4a3.18,3.18,0,0,1-1.53.38,2.94,2.94,0,0,1-1.25-.26L446,366.36a1.24,1.24,0,0,0-.41-.06,1.15,1.15,0,0,0-.25,0,42.32,42.32,0,0,1-5.62,1.34l-.88,4.61a2.43,2.43,0,0,1-2.35,2Zm5.14-32a22.71,22.71,0,0,0-11.14,2.64c-2.72,1.58-4.22,3.58-4.22,5.66s1.5,4.09,4.22,5.66a24.76,24.76,0,0,0,22.29,0c2.72-1.57,4.22-3.58,4.22-5.66s-1.5-4.09-4.22-5.66A22.75,22.75,0,0,0,431.37,342.24Z" style="fill:#e0e0e0"></path><path id="freepik--shadow--inject-60" d="M280.59,352.27l32.23-18.6a1.32,1.32,0,0,0,0-2.5L305,326.63a4.79,4.79,0,0,0-4.33,0L268.4,345.24a1.32,1.32,0,0,0,0,2.5l2.52,1.45-34.39,19.86c-1.2.69-1.52,1.62-.71,2.09a4.17,4.17,0,0,0,3.61-.41l34.4-19.86,2.43,1.4A4.73,4.73,0,0,0,280.59,352.27Z" style="fill:#e0e0e0"></path><ellipse id="freepik--shadow--inject-60" cx="161.42" cy="443.46" rx="39.98" ry="20.84" style="fill:#e0e0e0"></ellipse><ellipse id="freepik--shadow--inject-60" cx="222.12" cy="422.05" rx="18.4" ry="9.59" style="fill:#e0e0e0"></ellipse><path id="freepik--shadow--inject-60" d="M266.12,384.62a18.33,18.33,0,0,1-9.12-2.23l-.42-.26a1.79,1.79,0,0,1-.81-1.89,1.94,1.94,0,0,1,1.78-1.48l9.22-1.36.49-1-2.21-1.3L256,376.41l-.32,0a2.2,2.2,0,0,1-1.85-3.39,9.21,9.21,0,0,1,3.34-3,18.32,18.32,0,0,1,9-2.15,21.69,21.69,0,0,1,3.71.32L308.32,346a5.62,5.62,0,0,1-.07-3,8.09,8.09,0,0,1,4.13-4.85,18.47,18.47,0,0,1,9-2.14,18.27,18.27,0,0,1,9.12,2.23c.15.08.29.17.43.26a1.8,1.8,0,0,1,.81,1.89,2,2,0,0,1-1.77,1.48l-9.23,1.35-.5,1,2.22,1.3,9.06-1.33.33,0a2.19,2.19,0,0,1,1.92,1.14,2.21,2.21,0,0,1-.07,2.25,9.21,9.21,0,0,1-3.34,3,18.32,18.32,0,0,1-9,2.15,21.6,21.6,0,0,1-3.71-.32l-38.5,22.23a5.72,5.72,0,0,1,.07,3,8,8,0,0,1-4.13,4.84A18.4,18.4,0,0,1,266.12,384.62Z" style="fill:#e0e0e0"></path></g><g id="freepik--Panel--inject-60"><g id="freepik--Plan--inject-60"><path d="M337.39,262.34v3.26L85.22,411.18l-1.41-.8A56.48,56.48,0,0,1,55.65,361.6V178.5L307.82,32.92l2.82,1.62V216A53.49,53.49,0,0,0,337.39,262.34Z" style="fill:#FF5346"></path><path d="M337.39,262.34,85.22,407.93A53.49,53.49,0,0,1,58.48,361.6V180.13L310.64,34.54V216A53.49,53.49,0,0,0,337.39,262.34Z" style="fill:#FF5346"></path><path d="M337.39,262.34,85.22,407.93A53.49,53.49,0,0,1,58.48,361.6V180.13L310.64,34.54V216A53.49,53.49,0,0,0,337.39,262.34Z" style="opacity:0.2"></path><polygon points="55.65 178.5 58.48 180.13 310.64 34.54 307.82 32.92 55.65 178.5" style="opacity:0.1"></polygon><path d="M58.48,361.6V180.13l-2.83-1.63V361.6a56.48,56.48,0,0,0,28.16,48.78l1.41.8v-3.25A53.49,53.49,0,0,1,58.48,361.6Z" style="opacity:0.30000000000000004"></path><polygon points="85.22 407.93 85.22 411.18 337.39 265.6 337.39 262.34 85.22 407.93" style="opacity:0.4"></polygon><g id="freepik--Tape--inject-60"><polygon points="307.57 63.07 304.82 64.41 304.69 60.67 301.93 62.01 301.8 58.27 299.04 59.62 298.91 55.87 296.16 57.22 296.03 53.48 293.27 54.82 293.14 51.08 309.71 18.94 312.46 17.6 312.6 21.34 315.35 19.99 315.48 23.74 318.24 22.39 318.37 26.14 321.12 24.79 321.25 28.53 324.01 27.19 324.14 30.93 307.57 63.07" style="fill:#FF5346"></polygon><polygon points="307.57 63.07 304.82 64.41 304.69 60.67 301.93 62.01 301.8 58.27 299.04 59.62 298.91 55.87 296.16 57.22 296.03 53.48 293.27 54.82 293.14 51.08 309.71 18.94 312.46 17.6 312.6 21.34 315.35 19.99 315.48 23.74 318.24 22.39 318.37 26.14 321.12 24.79 321.25 28.53 324.01 27.19 324.14 30.93 307.57 63.07" style="fill:#fff;opacity:0.8"></polygon></g><g id="freepik--tape--inject-60"><polygon points="35.56 173.04 34.82 169.6 37.42 169.15 36.68 165.7 39.29 165.25 38.55 161.8 41.15 161.34 40.41 157.9 43.02 157.45 42.28 154 44.88 153.55 75.57 181 76.31 184.45 73.71 184.9 74.45 188.35 71.84 188.8 72.58 192.25 69.98 192.7 70.72 196.15 68.11 196.6 68.85 200.05 66.25 200.5 35.56 173.04" style="fill:#FF5346"></polygon><polygon points="35.56 173.04 34.82 169.6 37.42 169.15 36.68 165.7 39.29 165.25 38.55 161.8 41.15 161.34 40.41 157.9 43.02 157.45 42.28 154 44.88 153.55 75.57 181 76.31 184.45 73.71 184.9 74.45 188.35 71.84 188.8 72.58 192.25 69.98 192.7 70.72 196.15 68.11 196.6 68.85 200.05 66.25 200.5 35.56 173.04" style="fill:#fff;opacity:0.8"></polygon></g><g id="freepik--Mobile--inject-60"><path d="M95,347a1.29,1.29,0,0,1-.67-.18,1.66,1.66,0,0,1-.74-1.54V212a4.5,4.5,0,0,1,2.06-3.58l55.64-32.12h0a1.51,1.51,0,0,1,2.44,1.4V310.94a4.51,4.51,0,0,1-2.06,3.58L96,346.64A2,2,0,0,1,95,347Zm57.31-170.26a1.3,1.3,0,0,0-.65.21h0L96,209A3.84,3.84,0,0,0,94.3,212V345.23a1,1,0,0,0,.37.9,1,1,0,0,0,1-.13l55.64-32.12a3.85,3.85,0,0,0,1.69-2.94V177.66a1,1,0,0,0-.37-.89A.58.58,0,0,0,152.28,176.69Z" style="fill:#fff"></path><path d="M98.33,333.59a1.06,1.06,0,0,1-.58-.16,1.42,1.42,0,0,1-.64-1.31V224.69a3.81,3.81,0,0,1,1.73-3l49-28.3a1.46,1.46,0,0,1,1.46-.11,1.44,1.44,0,0,1,.63,1.32v108a2.89,2.89,0,0,1-1.73,2.42l-49,28.3A1.72,1.72,0,0,1,98.33,333.59Zm50.41-139.75a1.18,1.18,0,0,0-.52.16l-49,28.3a3.13,3.13,0,0,0-1.37,2.39V332.12a.6.6,0,0,0,1,.58l49-28.3c.95-.55,1.37-1.1,1.37-1.8v-108a.79.79,0,0,0-.27-.7A.51.51,0,0,0,148.74,193.84Z" style="fill:#fff"></path><path d="M122.92,200.23a1,1,0,0,1-.51-.13,1.27,1.27,0,0,1-.55-1.14,3.16,3.16,0,0,1,1.44-2.51h0a1.13,1.13,0,0,1,1.82,1.05,3.16,3.16,0,0,1-1.44,2.51A1.53,1.53,0,0,1,122.92,200.23Zm.76-3.13A2.39,2.39,0,0,0,122.6,199c0,.25.07.43.18.49a.53.53,0,0,0,.52-.09,2.39,2.39,0,0,0,1.08-1.86c0-.25-.07-.43-.18-.49a.53.53,0,0,0-.52.09Z" style="fill:#fff"></path><path d="M116.22,208.63a.9.9,0,0,1-.46-.12,1,1,0,0,1-.47-.94,2.63,2.63,0,0,1,1.24-2.07l13.63-7.87a1.13,1.13,0,0,1,1.14-.09,1,1,0,0,1,.47.94,2.63,2.63,0,0,1-1.23,2.07l-13.64,7.88A1.42,1.42,0,0,1,116.22,208.63Zm.68-2.48a1.92,1.92,0,0,0-.87,1.42.37.37,0,0,0,.1.3c.06,0,.2,0,.4-.09l13.63-7.87a1.91,1.91,0,0,0,.87-1.43c0-.15,0-.26-.1-.29s-.2,0-.39.08Z" style="fill:#fff"></path></g><g id="freepik--Note--inject-60"><polygon points="281.2 102.2 281.2 170.76 337.99 137.97 337.99 69.41 281.2 102.2" style="opacity:0.1"></polygon><path d="M344.52,141.35S311,160.13,306.78,162.46s-7-4.43-7-8.55c-4.21,2.7-12.85,4.38-13.28-1l-3-39.06,56.79-32.79Z" style="fill:#455a64"></path><polygon points="340.27 81.07 283.48 113.86 283.48 103.34 340.27 70.55 340.27 81.07" style="fill:#37474f"></polygon><polygon points="288.28 155.79 303.83 162.65 298.99 149.98 288.28 155.79" style="fill:#37474f"></polygon><path d="M309.45,143.24c-.06-.37-.34-.56-.62-.4-1.27.73-2.53,1.58-3.8,2.36a23,23,0,0,0,2.65-5.83c.34-1.33.4-2.93-.1-3.69s-1.35-.56-2.13.12a4.42,4.42,0,0,0-1.05,1.39,4.24,4.24,0,0,0-.37,2.07c0,.29.29.33.33-.08a3.84,3.84,0,0,1,1.25-2.2,2,2,0,0,1,.84-.49h.23c.1,0,.05,0,.1,0a.09.09,0,0,1,.05,0s0,0,0,0l0,0a.11.11,0,0,0,0,0v0a3.71,3.71,0,0,1,0,1.31,7.71,7.71,0,0,1-.39,1.61A20.7,20.7,0,0,1,305,143c-.63,1.16-1.31,2.26-1.93,3.43-.42.79.08,1.35.5,1.12,1.82-1,3.64-2.28,5.46-3.34A1,1,0,0,0,309.45,143.24Z" style="fill:#fafafa"></path><path d="M315.13,139.53c-.13-.58-.32-1.08-.41-1.7s-.17-1.45-.22-2.21c0-.33,0-.68,0-1a4.59,4.59,0,0,0,.35-1.14,5.69,5.69,0,0,0-.34-2.82c-.2-.6-1.06-.49-1.11.61s-.05,2-.05,3h0l-.27.32c.08-.09-.16.13-.21.17l-.34.26a5.85,5.85,0,0,1-.68.41l-.66.37a7.37,7.37,0,0,0,.08-.78A5.47,5.47,0,0,0,311,133c-.08-.17-.34-.35-.5,0a6.92,6.92,0,0,0-.26,2,6.43,6.43,0,0,1-.42,1.9c-.32.79.3,1.12.65.91a16.25,16.25,0,0,0,2.94-1.75v.17a21.79,21.79,0,0,0,.22,2.35,5,5,0,0,0,.51,1.9.43.43,0,0,0,.72.08A1.13,1.13,0,0,0,315.13,139.53Z" style="fill:#fafafa"></path><path d="M321.73,135.29a2.7,2.7,0,0,0-.45-.59c-.16-.2-.32-.41-.47-.62s-.33-.45-.49-.68l.15-.5L321,131c.18-.61.34-1.23.52-1.84a5.21,5.21,0,0,0,.17-.84c.07-.47-.24-1.2-.59-.64a20.55,20.55,0,0,0-1.8,4.43,12.44,12.44,0,0,0-1.79-1.83c-.36-.27-.57.67-.34,1,.36.49.67,1.07,1,1.61.2.31.39.62.58.94-.3.93-.61,1.87-1,2.79-.21.58-.08,1.12.23,1.23s.79-.07,1-.69.43-1.24.64-1.86a2.33,2.33,0,0,0,.17.26l.41.6a2.18,2.18,0,0,0,.49.58c.24.14.57.16.85-.28A1.18,1.18,0,0,0,321.73,135.29Z" style="fill:#fafafa"></path><path d="M326.41,132.85c0-.06,0-.11,0-.18h0c0-.26,0-.51,0-.77s0-.72,0-1.08c0-.7,0-1.4,0-2.09s-.05-1.56-.13-2.3a5.59,5.59,0,0,0-.17-1c-.18-.55-.34-.85-.74-.95a.27.27,0,0,0-.26.15,3.44,3.44,0,0,0-.26,2.11c0,.29,0,.58,0,.88,0,.65,0,1.31,0,2,0,1.31,0,2.63,0,3.91s1.49.57,1.57-.67Z" style="fill:#fafafa"></path><path d="M332.11,122.53a4.23,4.23,0,0,0-1.73.79.78.78,0,0,1-.19.12v-.1a3.58,3.58,0,0,1,.11-.53.71.71,0,0,0,.05-.16c0-.11.1-.23.15-.33a2.38,2.38,0,0,1,.24-.35,3.05,3.05,0,0,1,1.7-1.09.84.84,0,0,0,.56-.83c0-.47-.23-.73-.5-.71a4.06,4.06,0,0,0-3.33,2.66,5.43,5.43,0,0,0-.44,2.82.85.85,0,0,0,1.27.7,5.21,5.21,0,0,0,.77-.46l.32-.21.15-.09h0l.1,0a1.88,1.88,0,0,1,.3-.12s.15,0,.18,0l.07,0a.67.67,0,0,1,.12.06l.09.07.15.17.07.1a1.86,1.86,0,0,1,.1.2,3.19,3.19,0,0,1,.11.33,3.47,3.47,0,0,1,0,1.13c0-.16,0,.25-.07.32a2.1,2.1,0,0,1-.06.24s-.07.18-.07.19a2,2,0,0,1-.21.44l-.19.27,0,.07s0,0,0,0a6,6,0,0,1-.43.44l-.13.09a2.83,2.83,0,0,1-.28.2l-.14.08-.07,0-.1.05a3.17,3.17,0,0,1-.5.15h-.53l-.07,0a5.34,5.34,0,0,0-1.13-.28.22.22,0,0,0-.18.13c-.55,1.16,0,1.75.34,2l.17.07a1.91,1.91,0,0,0,.41.11,2.39,2.39,0,0,0,.92,0,4.29,4.29,0,0,0,1.85-1,6.35,6.35,0,0,0,2-4.67C334,123.77,333.23,122.43,332.11,122.53Z" style="fill:#fafafa"></path><path d="M308,110.92a2,2,0,0,1-.91,1.6c-.13.08-.22,0-.52.09a5.51,5.51,0,0,0-1.71.67c-1.38.8-3.35,2.45-3.35,4.53,0,1.58,1.53.78,2.85,0l.67-.39c1.07-.61,2.35-1.26,3.34-.87,1.27.48,1.52,2.49,1.52,3.58a11.64,11.64,0,0,1-5.52,9.57c-1.22.71-3,1.32-3.92,0a2.07,2.07,0,0,1-.4-1.14,1.48,1.48,0,0,1,.68-1.22c.43-.24.71-.06.92.34l.06.06c.66.67,1.83.2,2.66-.28a8.84,8.84,0,0,0,3-2.85,7,7,0,0,0,1.15-3.71c0-.91-.29-1.89-.95-2.1a2.12,2.12,0,0,0-1.4.23c-1.1.48-2.13,1.18-3.12,1.62-1.16.51-2.92.84-2.92-2.09a8.71,8.71,0,0,1,3-6.19,11,11,0,0,1,1.89-1.37C305.87,110.48,308,109.37,308,110.92Z" style="fill:#fafafa"></path><path d="M313.67,113.06a2.36,2.36,0,0,1,0,.37l0,4.7c0,.56,0,1.13,0,1.68v1.83c0,.26,0,.49,0,.74v.3a1.7,1.7,0,0,1,0,.24,1.48,1.48,0,0,1-.62,1.3l-.09,0c-.57.33-.79-.18-.79-.8,0-.28,0-.57,0-.83l.05-1.1c0-.8,0-1.61,0-2.41v-.64c0-1.33,0-2.63-.06-3.95v-.29a2.89,2.89,0,0,1,.23-1.3,1.58,1.58,0,0,1,.62-.77C313.41,111.94,313.67,112.3,313.67,113.06Zm.1-5.65a1.38,1.38,0,0,1,.06.47,2.07,2.07,0,0,1-.48,1.35,1.14,1.14,0,0,1-.34.29c-.34.2-.7.13-.76-.45a3,3,0,0,1,0-.31,2.24,2.24,0,0,1,.41-1.39A1.43,1.43,0,0,1,313,107C313.4,106.83,313.67,107,313.77,107.41Z" style="fill:#fafafa"></path><path d="M323,116.87c0,1.17-.8,1.68-1.65,2.16-1.9,1.1-3.05,2.09-3.94,2.6l-.22.13-.08,0a.76.76,0,0,1-.23.28c-.45.25-.82-.2-.82-.81a2.31,2.31,0,0,1,.13-.74c.15-.43,1.06-2.63,1.28-3.19l2.84-7.2-.1.06c-3.79,2.46-2.14,1.46-3,2-.64.37-.94-.06-.94-.77a1.68,1.68,0,0,1,.84-1.48c.13-.08,1-.53,1.45-.8s.66-.4,1-.6c.67-.43,1.9-1.42,2.24-1.62a.74.74,0,0,1,.21-.07c.46-.22.76,0,.76.57a3.42,3.42,0,0,1-.43,1.41c-1.49,3.52-3.08,7.55-4,9.9l0,.14,1.28-.76,1.11-.76c.49-.33,1.73-1.29,1.77-1.32C322.79,115.8,323,116.18,323,116.87Z" style="fill:#fafafa"></path><path d="M332.13,107.2a1.93,1.93,0,0,1-.33.72,3.2,3.2,0,0,1-.95.78c-4.46,3-3.43,2.35-4.5,3.08L326,112c.22,1.63,1.19,2,2.27,1.41a3.77,3.77,0,0,0,1.07-1c.4-.55.73-1.34,1.06-1.53a.67.67,0,0,1,1,.66,2.27,2.27,0,0,1-.4,1.24,7.28,7.28,0,0,1-2.61,2.81,2.3,2.3,0,0,1-2.49,0c-.83-.62-1.23-1.9-1.23-3.52,0-2.91,1.26-6.64,3.16-8.52a5.56,5.56,0,0,1,1-.81c2.37-1.37,3.4,2.18,3.4,3.76A2.41,2.41,0,0,1,332.13,107.2Zm-5.2,2a24.33,24.33,0,0,0,3.54-2.41l0-.06c-.23-1.49-.8-2.28-1.85-1.68a7.06,7.06,0,0,0-2.56,4.62Z" style="fill:#fafafa"></path></g><g id="freepik--Image--inject-60"><path d="M337.1,155.86l-54.89,31.7a2.84,2.84,0,0,0-1.28,2.22v52.3c0,.82.57,1.15,1.28.74l54.89-31.7a2.82,2.82,0,0,0,1.28-2.22V156.6C338.38,155.78,337.81,155.45,337.1,155.86Z" style="opacity:0.1"></path><path d="M339.85,157.45,285,189.15a2.84,2.84,0,0,0-1.28,2.23v52.29a2.81,2.81,0,0,0,1.28,2.22l.82.48a2.87,2.87,0,0,0,2.57,0l54.89-31.7a2.84,2.84,0,0,0,1.28-2.23V160.15a2.84,2.84,0,0,0-1.28-2.23l-.82-.47A2.84,2.84,0,0,0,339.85,157.45Z" style="fill:#e0e0e0"></path><path d="M344.47,159.77c-.16-.54-.65-.71-1.23-.36l-54.89,31.7a2.56,2.56,0,0,0-.91,1l-3.38-2a2.69,2.69,0,0,1,.9-1l54.9-31.7a2.9,2.9,0,0,1,2.57,0l.81.48A2.8,2.8,0,0,1,344.47,159.77Z" style="fill:#fff"></path><path d="M343.24,159.41l-54.89,31.7a2.82,2.82,0,0,0-1.29,2.22v52.29c0,.82.58,1.15,1.29.75l54.89-31.7a2.84,2.84,0,0,0,1.28-2.23V160.15C344.52,159.33,344,159,343.24,159.41Z" style="fill:#f5f5f5"></path><polygon points="290.45 193.8 341.14 164.52 341.14 211.38 290.45 240.66 290.45 193.8" style="fill:#FF5346"></polygon><polygon points="290.45 193.8 341.14 164.52 341.14 211.38 290.45 240.66 290.45 193.8" style="fill:#fff;opacity:0.75"></polygon><polygon points="290.44 225.03 304.86 200.15 324.59 214.87 319.79 209.55 330.26 195.68 341.14 202.59 341.14 211.38 290.45 240.66 290.44 225.03" style="fill:#FF5346"></polygon><path d="M325.91,181.63a7.47,7.47,0,0,0-3.38,5.86c0,2.15,1.51,3,3.38,1.95a7.47,7.47,0,0,0,3.38-5.86C329.29,181.42,327.78,180.55,325.91,181.63Z" style="fill:#FF5346"></path></g><g id="freepik--Colors--inject-60"><g id="freepik--shadow--inject-60"><path d="M255.14,118.21V137a5.59,5.59,0,0,1-2.53,4.38l-16.29,9.41a3.29,3.29,0,0,1-.61.26,2.19,2.19,0,0,1-.33.12h-.07a3.43,3.43,0,0,1-.46.11l.48-.12.36-.12-.17,0-.15,0c-.93.1-1.58-.57-1.58-1.79V130.53a5.08,5.08,0,0,1,.74-2.48,5,5,0,0,1,1.79-1.89l16.29-9.41c1.25-.73,2.28-.28,2.48,1A2.72,2.72,0,0,1,255.14,118.21Z" style="opacity:0.1"></path><path d="M255.14,155.81v18.81a5.59,5.59,0,0,1-2.53,4.39l-16.29,9.4a2.43,2.43,0,0,1-.46.22,2.14,2.14,0,0,1-.34.09l-.15,0c-.93.1-1.58-.57-1.58-1.79V168.14a5.59,5.59,0,0,1,2.53-4.38l16.29-9.41c1.23-.71,2.26-.28,2.47.94a.3.3,0,0,1,0,.1A3.13,3.13,0,0,1,255.14,155.81Z" style="opacity:0.1"></path><path d="M255.14,193.43v18.81a5.58,5.58,0,0,1-2.53,4.38L236.32,226a3.29,3.29,0,0,1-.61.26l-.17.06.15-.06-.17.05-.15,0c-.93.1-1.58-.57-1.58-1.79V205.76a5.11,5.11,0,0,1,.74-2.49,5,5,0,0,1,1.79-1.89L252.61,192c1.25-.72,2.28-.27,2.48,1A2.72,2.72,0,0,1,255.14,193.43Z" style="opacity:0.1"></path><path d="M255.14,231v18.81a5.58,5.58,0,0,1-2.53,4.38l-16.29,9.41a3.33,3.33,0,0,1-.61.27l-.33.11-.07,0a.48.48,0,0,1-.18,0,.76.76,0,0,0,.2-.06l.36-.11a1,1,0,0,1-.17,0l-.15,0c-.93.1-1.58-.57-1.58-1.78V243.36a5.18,5.18,0,0,1,.74-2.49,5.1,5.1,0,0,1,1.79-1.89l16.29-9.41c1.26-.72,2.29-.26,2.48,1A2.49,2.49,0,0,1,255.14,231Z" style="opacity:0.1"></path></g><path d="M266.19,123.56a5.59,5.59,0,0,0-2.53-4.39L261.6,118a5.57,5.57,0,0,0-5.06,0l-16.29,9.4a5.21,5.21,0,0,0-1.79,1.9,5.11,5.11,0,0,0-.74,2.48v18.82a5.59,5.59,0,0,0,2.53,4.38l2.06,1.19a4.45,4.45,0,0,0,.54.25l.21.07.37.11.3.06.31,0,.37,0h.87l.46-.05.13,0,.5-.1.06,0a4.4,4.4,0,0,0,.94-.38l16.29-9.41a5.59,5.59,0,0,0,2.53-4.38Z" style="fill:#FF5346"></path><path d="M266.16,123.13c-.19-1.3-1.23-1.77-2.5-1l-16.29,9.4a5.18,5.18,0,0,0-1.79,1.89l-7.12-4.11a5.26,5.26,0,0,1,1.79-1.89l16.29-9.4a5.57,5.57,0,0,1,5.06,0l2.06,1.18A5.68,5.68,0,0,1,266.16,123.13Z" style="fill:#fff;opacity:0.4"></path><path d="M246.91,156.37l-.15,0c-.13,0-.25.09-.38.12a5.26,5.26,0,0,1-1,.2s0,0,0,0l-.5,0a5.23,5.23,0,0,1-2.53-.6L240.25,155a5.62,5.62,0,0,1-2.53-4.38V131.77a4.7,4.7,0,0,1,.31-1.56,5.8,5.8,0,0,1,.27-.62c.06-.11.1-.21.16-.31l7.12,4.11a5.15,5.15,0,0,0-.74,2.49V154.7c0,1.22.65,1.89,1.58,1.79l.15,0A1.89,1.89,0,0,0,246.91,156.37Z" style="opacity:0.1"></path><path d="M266.19,161.17a5.56,5.56,0,0,0-2.53-4.38l-2.06-1.19a5.57,5.57,0,0,0-5.06,0L240.25,165a5.21,5.21,0,0,0-1.79,1.9,5.11,5.11,0,0,0-.74,2.48V188.2a5.59,5.59,0,0,0,2.53,4.38l2.06,1.19a4.45,4.45,0,0,0,.54.25l.21.07.37.11.3.06.31.05.37,0h.87l.46,0,.13,0a4,4,0,0,0,.5-.1l.06,0a4.4,4.4,0,0,0,.94-.38l16.29-9.41a5.59,5.59,0,0,0,2.53-4.38Z" style="fill:#f28f8f"></path><path d="M266.16,160.74c-.19-1.3-1.23-1.77-2.5-1l-16.29,9.4a5.18,5.18,0,0,0-1.79,1.89l-7.12-4.11a5.26,5.26,0,0,1,1.79-1.89l16.29-9.4a5.57,5.57,0,0,1,5.06,0l2.06,1.19A5.64,5.64,0,0,1,266.16,160.74Z" style="fill:#fff;opacity:0.4"></path><path d="M246.91,194l-.15.05a2.78,2.78,0,0,1-.38.12,5.26,5.26,0,0,1-1,.2h0l-.5,0a5.23,5.23,0,0,1-2.53-.6l-2.06-1.19a5.62,5.62,0,0,1-2.53-4.38V169.39a4.71,4.71,0,0,1,.31-1.57,5.8,5.8,0,0,1,.27-.62c.06-.11.1-.21.16-.31l7.12,4.11a5.18,5.18,0,0,0-.74,2.5v18.81c0,1.22.65,1.89,1.58,1.79l.15,0Z" style="opacity:0.1"></path><path d="M266.19,198.78a5.56,5.56,0,0,0-2.53-4.38l-2.06-1.19a5.57,5.57,0,0,0-5.06,0l-16.29,9.4a5.21,5.21,0,0,0-1.79,1.9,5.11,5.11,0,0,0-.74,2.49v18.81a5.59,5.59,0,0,0,2.53,4.38l2.06,1.19a4.45,4.45,0,0,0,.54.25l.21.07.37.11.3.06.31.06.37,0h.87l.46-.05.13,0,.5-.11.06,0a4.4,4.4,0,0,0,.94-.38L263.66,222a5.59,5.59,0,0,0,2.53-4.38Z" style="fill:#b16668"></path><path d="M266.16,198.35c-.19-1.3-1.23-1.77-2.5-1l-16.29,9.4a5.18,5.18,0,0,0-1.79,1.89l-7.12-4.11a5.15,5.15,0,0,1,1.79-1.88l16.29-9.41a5.57,5.57,0,0,1,5.06,0l2.06,1.19A5.64,5.64,0,0,1,266.16,198.35Z" style="fill:#fff;opacity:0.2"></path><path d="M246.91,231.59l-.15.06-.38.11a4.57,4.57,0,0,1-1,.2s0,0,0,0a4.1,4.1,0,0,1-.5,0,5.12,5.12,0,0,1-2.53-.6l-2.06-1.19a5.62,5.62,0,0,1-2.53-4.38V207a4.71,4.71,0,0,1,.31-1.57,5.8,5.8,0,0,1,.27-.62c.06-.11.1-.21.16-.31l7.12,4.11a5.18,5.18,0,0,0-.74,2.5v18.81c0,1.22.65,1.89,1.58,1.79l.15,0Z" style="opacity:0.30000000000000004"></path><path d="M266.19,236.39a5.58,5.58,0,0,0-2.53-4.38l-2.06-1.19a5.57,5.57,0,0,0-5.06,0l-16.29,9.41a5.59,5.59,0,0,0-2.53,4.38v18.81a5.59,5.59,0,0,0,2.53,4.38l2.06,1.19a3.32,3.32,0,0,0,.54.25l.21.07.37.11.3.06.31.06.37,0h.87l.46-.05.13,0,.5-.11.06,0a4.4,4.4,0,0,0,.94-.38l16.29-9.41a5.56,5.56,0,0,0,2.53-4.38Z" style="fill:#455a64"></path><path d="M266.16,236c-.19-1.3-1.23-1.77-2.5-1l-16.29,9.41a5,5,0,0,0-1.79,1.89l-7.12-4.11a5.11,5.11,0,0,1,1.79-1.89l16.29-9.41a5.57,5.57,0,0,1,5.06,0l2.06,1.19A5.64,5.64,0,0,1,266.16,236Z" style="fill:#fff;opacity:0.1"></path><path d="M246.91,269.2l-.15.06-.38.11a4.57,4.57,0,0,1-1,.2h0a4.1,4.1,0,0,1-.5,0,5.12,5.12,0,0,1-2.53-.6l-2.06-1.19a5.6,5.6,0,0,1-2.53-4.38V244.61A4.71,4.71,0,0,1,238,243c.08-.21.17-.42.27-.62s.1-.2.16-.3l7.12,4.11a5.11,5.11,0,0,0-.74,2.49v18.81c0,1.22.65,1.89,1.58,1.79l.15,0Z" style="opacity:0.4"></path></g><g id="freepik--Text--inject-60"><path d="M158.19,295.24a.34.34,0,0,1-.19-.05.36.36,0,0,1-.13-.51l9.95-17.24a.35.35,0,0,1,.14-.13l43.13-24.9a.35.35,0,0,1,.5.13.36.36,0,0,1-.13.51L168.41,277.9l-9.9,17.16A.38.38,0,0,1,158.19,295.24Z" style="fill:#fff"></path><path d="M174,268.46a3.76,3.76,0,0,1,1.77-2.93l26.32-15.2c1-.57,1.77-.17,1.77.89a3.78,3.78,0,0,1-1.77,2.94l-26.32,15.2C174.81,269.92,174,269.52,174,268.46Z" style="fill:#fafafa"></path><path d="M172.46,279l11.78-6.8c.55-.32,1-.1,1,.5a2.15,2.15,0,0,1-1,1.66l-11.78,6.8c-.55.32-1,.1-1-.5A2.15,2.15,0,0,1,172.46,279Z" style="fill:#fafafa"></path><path d="M187.18,270.45l10.89-6.29c.56-.32,1-.09,1,.51a2.14,2.14,0,0,1-1,1.66l-10.89,6.29c-.55.32-1,.09-1-.51A2.15,2.15,0,0,1,187.18,270.45Z" style="fill:#fafafa"></path><path d="M201.08,262.42l7.77-4.49c.55-.32,1-.09,1,.5a2.17,2.17,0,0,1-1,1.67l-7.77,4.48c-.56.32-1,.1-1-.5A2.11,2.11,0,0,1,201.08,262.42Z" style="fill:#fafafa"></path><path d="M172.46,285.45l22.21-12.82c.55-.32,1-.09,1,.51a2.15,2.15,0,0,1-1,1.66l-22.21,12.82c-.55.32-1,.09-1-.51A2.16,2.16,0,0,1,172.46,285.45Z" style="fill:#fafafa"></path><path d="M197.89,270.77l10.63-6.13c.55-.32,1-.1,1,.5a2.17,2.17,0,0,1-1,1.67l-10.63,6.12c-.55.32-1,.1-1-.5A2.15,2.15,0,0,1,197.89,270.77Z" style="fill:#fafafa"></path><path d="M158.19,203.28a.45.45,0,0,1-.19-.05.36.36,0,0,1-.13-.51l9.95-17.24a.29.29,0,0,1,.14-.13l43.13-24.91a.37.37,0,0,1,.37.65l-43.05,24.85-9.9,17.15A.37.37,0,0,1,158.19,203.28Z" style="fill:#fff"></path><path d="M174,176.5a3.8,3.8,0,0,1,1.77-2.94l26.32-15.19c1-.57,1.77-.17,1.77.89a3.8,3.8,0,0,1-1.77,2.94l-26.32,15.19C174.81,178,174,177.56,174,176.5Z" style="fill:#fafafa"></path><path d="M172.46,187l11.78-6.8c.55-.32,1-.09,1,.51a2.15,2.15,0,0,1-1,1.66l-11.78,6.8c-.55.32-1,.09-1-.5A2.17,2.17,0,0,1,172.46,187Z" style="fill:#fafafa"></path><path d="M187.18,178.49l10.89-6.29c.56-.32,1-.1,1,.5a2.14,2.14,0,0,1-1,1.67l-10.89,6.28c-.55.32-1,.1-1-.5A2.13,2.13,0,0,1,187.18,178.49Z" style="fill:#fafafa"></path><path d="M201.08,170.45l7.77-4.48c.55-.32,1-.1,1,.5a2.15,2.15,0,0,1-1,1.66l-7.77,4.49c-.56.32-1,.09-1-.5A2.14,2.14,0,0,1,201.08,170.45Z" style="fill:#fafafa"></path><path d="M172.46,193.49l22.21-12.82c.55-.32,1-.09,1,.51a2.15,2.15,0,0,1-1,1.66l-22.21,12.82c-.55.32-1,.09-1-.51A2.15,2.15,0,0,1,172.46,193.49Z" style="fill:#fafafa"></path><path d="M197.89,178.8l10.63-6.12c.55-.32,1-.1,1,.5a2.15,2.15,0,0,1-1,1.66L197.89,181c-.55.32-1,.1-1-.5A2.17,2.17,0,0,1,197.89,178.8Z" style="fill:#fafafa"></path><path d="M158.19,249A.45.45,0,0,1,158,249a.36.36,0,0,1-.13-.51l9.95-17.24a.38.38,0,0,1,.14-.14l43.13-24.9a.37.37,0,0,1,.37.65l-43.05,24.85-9.9,17.15A.37.37,0,0,1,158.19,249Z" style="fill:#fff"></path><path d="M174,222.24a3.8,3.8,0,0,1,1.77-2.94l26.32-15.19c1-.57,1.77-.17,1.77.89a3.8,3.8,0,0,1-1.77,2.94l-26.32,15.19C174.81,223.7,174,223.3,174,222.24Z" style="fill:#fafafa"></path><path d="M172.47,233l4.62-2.67c.56-.32,1-.09,1,.5a2.14,2.14,0,0,1-1,1.67l-4.63,2.67c-.55.32-1,.09-1-.51A2.13,2.13,0,0,1,172.47,233Z" style="fill:#fafafa"></path><path d="M180.52,228.31l11.78-6.8c.56-.32,1-.09,1,.51a2.12,2.12,0,0,1-1,1.66l-11.78,6.8c-.55.32-1,.09-1-.5A2.17,2.17,0,0,1,180.52,228.31Z" style="fill:#fafafa"></path><path d="M195.24,219.82l13.29-7.67c.56-.32,1-.1,1,.5a2.11,2.11,0,0,1-1,1.66L195.24,222c-.55.32-1,.1-1-.5A2.13,2.13,0,0,1,195.24,219.82Z" style="fill:#fafafa"></path><path d="M172.46,239.47l11.78-6.8c.55-.32,1-.1,1,.5a2.17,2.17,0,0,1-1,1.67l-11.78,6.8c-.55.32-1,.09-1-.51A2.15,2.15,0,0,1,172.46,239.47Z" style="fill:#fafafa"></path><path d="M187.18,231l10.89-6.29c.56-.32,1-.09,1,.51a2.12,2.12,0,0,1-1,1.66l-10.89,6.29c-.55.32-1,.09-1-.51A2.15,2.15,0,0,1,187.18,231Z" style="fill:#fafafa"></path><path d="M201.08,222.94l7.77-4.49c.55-.32,1-.09,1,.51a2.16,2.16,0,0,1-1,1.66l-7.77,4.49c-.56.32-1,.09-1-.51A2.12,2.12,0,0,1,201.08,222.94Z" style="fill:#fafafa"></path></g><path d="M100.51,179l3.23-10.51c.05-.11.12-.3.23-.55a1.24,1.24,0,0,1,.5-.58l1.16-.67a.24.24,0,0,1,.32,0,.54.54,0,0,1,.14.42V184a1.37,1.37,0,0,1-.14.58.86.86,0,0,1-.32.39l-1.38.8a.25.25,0,0,1-.32,0,.57.57,0,0,1-.14-.42V175.12l-2.21,7.17a5.14,5.14,0,0,1-.24.58,1,1,0,0,1-.39.44l-.89.51a.3.3,0,0,1-.39,0,.93.93,0,0,1-.23-.3l-2.22-4.62v10.25a1.39,1.39,0,0,1-.13.58.82.82,0,0,1-.33.39l-1.37.8a.25.25,0,0,1-.33,0,.54.54,0,0,1-.13-.42V173.56a1.31,1.31,0,0,1,.13-.57.8.8,0,0,1,.33-.4l1.15-.67c.23-.13.4-.13.5,0a2.52,2.52,0,0,1,.23.29Z" style="fill:#fafafa"></path><path d="M112.13,180.53l-3.37-10.06a.72.72,0,0,1,0-.17,1.41,1.41,0,0,1,.14-.58.86.86,0,0,1,.32-.39l1.28-.74a.3.3,0,0,1,.36,0,.62.62,0,0,1,.2.31l2.26,6.78,2.27-9.4a2.13,2.13,0,0,1,.2-.54,1,1,0,0,1,.36-.41l1.27-.74a.25.25,0,0,1,.33,0,.53.53,0,0,1,.13.41,1.27,1.27,0,0,1,0,.2l-4.79,19.84a2.13,2.13,0,0,1-.2.54.92.92,0,0,1-.36.41l-1.27.74a.27.27,0,0,1-.33,0,.57.57,0,0,1-.13-.42,1.27,1.27,0,0,1,0-.2Z" style="fill:#fafafa"></path><path d="M129.78,152.73c1.37-.79,2.43-.91,3.19-.35s1.14,1.8,1.14,3.72a10.76,10.76,0,0,1-1.14,5.06,8.15,8.15,0,0,1-3.19,3.36l-2.73,1.57v5.85a1.31,1.31,0,0,1-.13.57.8.8,0,0,1-.33.4l-1.38.8a.24.24,0,0,1-.32,0,.54.54,0,0,1-.13-.42V156.34a1.39,1.39,0,0,1,.13-.58.86.86,0,0,1,.32-.39Zm-2.73,10.09,2.64-1.52a4.12,4.12,0,0,0,2.13-3.88c0-1-.2-1.54-.58-1.69a1.81,1.81,0,0,0-1.55.33l-2.64,1.52Z" style="fill:#fafafa"></path><path d="M136.1,160.61a15.42,15.42,0,0,1,.29-2.94,14.48,14.48,0,0,1,.84-2.73,10.08,10.08,0,0,1,1.32-2.27,5.81,5.81,0,0,1,1.73-1.54,2.81,2.81,0,0,1,1.72-.47,2.09,2.09,0,0,1,1.32.69,4,4,0,0,1,.84,1.63,8.65,8.65,0,0,1,.3,2.38v1.18a1.37,1.37,0,0,1-.14.58.81.81,0,0,1-.32.39l-5.68,3.29a2.34,2.34,0,0,0,.16,1,1.11,1.11,0,0,0,.43.53,1,1,0,0,0,.63.1,2.12,2.12,0,0,0,.74-.26,4,4,0,0,0,.88-.68,4.23,4.23,0,0,0,.56-.76,3.89,3.89,0,0,1,.31-.46,1.09,1.09,0,0,1,.32-.27l1.36-.79a.27.27,0,0,1,.33,0,.51.51,0,0,1,.13.43,4.41,4.41,0,0,1-.26,1.09,9,9,0,0,1-.74,1.56,11,11,0,0,1-1.22,1.64,6.64,6.64,0,0,1-1.67,1.36,3,3,0,0,1-1.73.49,1.88,1.88,0,0,1-1.32-.69,4.44,4.44,0,0,1-.84-1.76A11.22,11.22,0,0,1,136.1,160.61Zm4.18-6.34a3.07,3.07,0,0,0-.85.71,4.38,4.38,0,0,0-.58.91,4.84,4.84,0,0,0-.37,1,5.09,5.09,0,0,0-.16.92l3.84-2.22a4.88,4.88,0,0,0-.12-.75,1.46,1.46,0,0,0-.31-.61.79.79,0,0,0-.56-.25A1.61,1.61,0,0,0,140.28,154.27Z" style="fill:#fafafa"></path><path d="M151.3,148.17a3.46,3.46,0,0,0-1.47,1.54,6,6,0,0,0-.45,2.53v6.81a1.33,1.33,0,0,1-.14.57.84.84,0,0,1-.32.4l-1.29.75a.25.25,0,0,1-.33,0,.54.54,0,0,1-.13-.42v-12.2a1.33,1.33,0,0,1,.13-.58.9.9,0,0,1,.33-.4l1.29-.74a.23.23,0,0,1,.32,0,.57.57,0,0,1,.14.42v.6a8.52,8.52,0,0,1,.94-1.51,4.66,4.66,0,0,1,1.32-1.1l.77-.45a.24.24,0,0,1,.32,0,.54.54,0,0,1,.14.42v1.72a1.34,1.34,0,0,1-.14.58,1,1,0,0,1-.32.4Z" style="fill:#fafafa"></path><path d="M159.94,149.75a.58.58,0,0,0-.11-.4.55.55,0,0,0-.42-.1,4.57,4.57,0,0,0-.79.14l-1.26.31a3,3,0,0,1-1.24.06,1.37,1.37,0,0,1-.79-.46,2.08,2.08,0,0,1-.42-1,7.13,7.13,0,0,1-.12-1.39,6.54,6.54,0,0,1,.24-1.68,7.86,7.86,0,0,1,.69-1.75,8.8,8.8,0,0,1,1.09-1.59,6.13,6.13,0,0,1,1.48-1.22,4.31,4.31,0,0,1,1.49-.57,2,2,0,0,1,1.12.12,1.53,1.53,0,0,1,.71.67,2.47,2.47,0,0,1,.29,1.08,1.1,1.1,0,0,1-.13.57.8.8,0,0,1-.33.4l-1.31.76c-.17.09-.3.12-.38.07a2.79,2.79,0,0,1-.28-.16.8.8,0,0,0-.41-.09,1.77,1.77,0,0,0-.77.3,3.4,3.4,0,0,0-.9.75,1.6,1.6,0,0,0-.39,1.07.83.83,0,0,0,.09.43.43.43,0,0,0,.36.14,2.8,2.8,0,0,0,.73-.09l1.22-.3c1-.25,1.72-.14,2.14.33a3.4,3.4,0,0,1,.62,2.27,6.09,6.09,0,0,1-.26,1.68,8.41,8.41,0,0,1-1.93,3.4,6.68,6.68,0,0,1-1.59,1.27,4.12,4.12,0,0,1-1.59.59,2,2,0,0,1-1.17-.18,1.66,1.66,0,0,1-.73-.75,2.65,2.65,0,0,1-.27-1.13,1.08,1.08,0,0,1,.13-.57.8.8,0,0,1,.33-.4l1.31-.76c.17-.1.3-.11.38,0l.29.26a.76.76,0,0,0,.45.15,1.84,1.84,0,0,0,.87-.31,6.25,6.25,0,0,0,.53-.36,3.64,3.64,0,0,0,.5-.46,2.78,2.78,0,0,0,.38-.54A1.21,1.21,0,0,0,159.94,149.75Z" style="fill:#fafafa"></path><path d="M168.72,134.7a3.36,3.36,0,0,1,1.7-.53,2,2,0,0,1,1.31.47,3.13,3.13,0,0,1,.88,1.33,6.26,6.26,0,0,1,.39,2c0,.15,0,.34,0,.59V140c0,.24,0,.44,0,.6a13.19,13.19,0,0,1-.39,2.48,11.8,11.8,0,0,1-.88,2.33,9.79,9.79,0,0,1-1.31,2,6.54,6.54,0,0,1-1.7,1.43,3.4,3.4,0,0,1-1.69.53,2.09,2.09,0,0,1-1.31-.46,2.94,2.94,0,0,1-.87-1.32,6.89,6.89,0,0,1-.4-2c0-.15,0-.34,0-.57s0-.47,0-.72,0-.49,0-.73,0-.46,0-.62a12,12,0,0,1,.39-2.48,12.39,12.39,0,0,1,.88-2.34,9.94,9.94,0,0,1,1.31-2A6.62,6.62,0,0,1,168.72,134.7Zm2.06,4.71a3.42,3.42,0,0,0-.24-1.21,1.13,1.13,0,0,0-.49-.57.9.9,0,0,0-.63-.07,2.84,2.84,0,0,0-.7.28,4,4,0,0,0-.69.52,3.49,3.49,0,0,0-.63.8,5.12,5.12,0,0,0-.49,1.13,6.45,6.45,0,0,0-.24,1.49q0,.22,0,.54c0,.21,0,.43,0,.66s0,.45,0,.66,0,.38,0,.5a3.47,3.47,0,0,0,.24,1.21,1.18,1.18,0,0,0,.49.57.9.9,0,0,0,.63.07,2.37,2.37,0,0,0,.69-.29,3.34,3.34,0,0,0,.7-.52,3.42,3.42,0,0,0,.63-.79,4.6,4.6,0,0,0,.49-1.14,6.27,6.27,0,0,0,.24-1.49c0-.13,0-.3,0-.52v-1.32C170.8,139.71,170.79,139.54,170.78,139.41Z" style="fill:#fafafa"></path><path d="M184.11,139a1.34,1.34,0,0,1-.14.58.84.84,0,0,1-.32.4l-1.3.74a.23.23,0,0,1-.32,0,.54.54,0,0,1-.13-.42v-6.65a3.94,3.94,0,0,0-.48-2.24c-.32-.45-.81-.48-1.46-.1a3.48,3.48,0,0,0-1.43,1.76,7.38,7.38,0,0,0-.51,2.82v6.65a1.34,1.34,0,0,1-.14.58,1,1,0,0,1-.32.4l-1.3.74a.23.23,0,0,1-.32,0,.57.57,0,0,1-.14-.42V131.58a1.41,1.41,0,0,1,.14-.58.86.86,0,0,1,.32-.39l1.3-.75a.24.24,0,0,1,.32,0,.53.53,0,0,1,.14.41v.61a9.88,9.88,0,0,1,1-1.73,4.87,4.87,0,0,1,1.42-1.26,2.8,2.8,0,0,1,1.73-.5,1.57,1.57,0,0,1,1.12.68,3.85,3.85,0,0,1,.61,1.61,12.79,12.79,0,0,1,.18,2.24Z" style="fill:#fafafa"></path><path d="M187.22,127.64a7.34,7.34,0,0,1,.32-1.37,8.53,8.53,0,0,1,.69-1.58,8.94,8.94,0,0,1,1.11-1.54,6,6,0,0,1,1.52-1.23,3.62,3.62,0,0,1,1.57-.55,1.72,1.72,0,0,1,1.2.34,2.53,2.53,0,0,1,.77,1.27,7.66,7.66,0,0,1,.27,2.21v7.71a1.31,1.31,0,0,1-.13.57.8.8,0,0,1-.33.4l-1.29.74a.23.23,0,0,1-.32,0,.56.56,0,0,1-.14-.42v-.86a8,8,0,0,1-1,1.89,5.45,5.45,0,0,1-1.71,1.52,3,3,0,0,1-1.31.46,1.39,1.39,0,0,1-1-.29,2.05,2.05,0,0,1-.6-.95,4.81,4.81,0,0,1-.21-1.52,6.7,6.7,0,0,1,.83-3.31,9.4,9.4,0,0,1,2.23-2.67l2.77-2.34c0-.71-.15-1.13-.46-1.25a1.34,1.34,0,0,0-1.14.21,2.2,2.2,0,0,0-.66.57,5.26,5.26,0,0,0-.46.76,2.57,2.57,0,0,1-.28.45,1.23,1.23,0,0,1-.28.24l-1.59.92a.26.26,0,0,1-.28,0C187.23,128,187.2,127.82,187.22,127.64Zm2.84,5.74a4,4,0,0,0,1-.84,5.4,5.4,0,0,0,.76-1.1,5.77,5.77,0,0,0,.46-1.21,4.94,4.94,0,0,0,.15-1.17v-.26l-2.31,2a4.52,4.52,0,0,0-1,1.11,2.31,2.31,0,0,0-.3,1.14q0,.54.36.6A1.41,1.41,0,0,0,190.06,133.38Z" style="fill:#fafafa"></path><path d="M200,129.82a1.24,1.24,0,0,1-.14.58.81.81,0,0,1-.32.39l-1.29.75c-.13.07-.24.07-.32,0a.53.53,0,0,1-.14-.42V113.91a1.2,1.2,0,0,1,.14-.57.74.74,0,0,1,.32-.4l1.29-.75a.25.25,0,0,1,.32,0,.53.53,0,0,1,.14.42Z" style="fill:#fafafa"></path><path d="M205,109a.24.24,0,0,1,.32,0,.57.57,0,0,1,.14.42v2a1.34,1.34,0,0,1-.14.58,1,1,0,0,1-.32.4l-1.47.84a.24.24,0,0,1-.32,0,.57.57,0,0,1-.13-.42v-2a1.33,1.33,0,0,1,.13-.58,1,1,0,0,1,.32-.4Zm.37,17.68a1.31,1.31,0,0,1-.13.57.8.8,0,0,1-.33.4l-1.29.75a.24.24,0,0,1-.32,0,.51.51,0,0,1-.14-.42v-12.2a1.21,1.21,0,0,1,.14-.58.84.84,0,0,1,.32-.4l1.29-.74a.24.24,0,0,1,.33,0,.57.57,0,0,1,.13.42Z" style="fill:#fafafa"></path><path d="M215.54,118.41a.24.24,0,0,1,.32,0,.57.57,0,0,1,.13.42v1.73a1.31,1.31,0,0,1-.13.57.9.9,0,0,1-.32.4l-6.91,4a.27.27,0,0,1-.33,0,.57.57,0,0,1-.13-.42v-1.79a1.84,1.84,0,0,1,.07-.55,3.36,3.36,0,0,1,.17-.47l4.25-9.56L208.8,115a.27.27,0,0,1-.33,0,.57.57,0,0,1-.13-.42V112.8a1.36,1.36,0,0,1,.13-.58.88.88,0,0,1,.33-.39l6.39-3.7a.25.25,0,0,1,.33,0,.53.53,0,0,1,.14.41v1.79a2.05,2.05,0,0,1-.08.51c-.05.19-.11.36-.16.51l-4.26,9.56Z" style="fill:#fafafa"></path><path d="M218.67,109.48a7.15,7.15,0,0,1,.31-1.36,9.34,9.34,0,0,1,.7-1.58,8.5,8.5,0,0,1,1.11-1.55,6.31,6.31,0,0,1,1.52-1.23,3.91,3.91,0,0,1,1.56-.55,1.65,1.65,0,0,1,1.2.35,2.44,2.44,0,0,1,.78,1.26,7.73,7.73,0,0,1,.27,2.22v7.7a1.37,1.37,0,0,1-.14.58.81.81,0,0,1-.32.39l-1.29.75a.25.25,0,0,1-.33,0,.57.57,0,0,1-.13-.42v-.87a7.62,7.62,0,0,1-1,1.89,5.48,5.48,0,0,1-1.71,1.53,3.05,3.05,0,0,1-1.31.45,1.28,1.28,0,0,1-1-.29,2.09,2.09,0,0,1-.61-1,4.74,4.74,0,0,1-.21-1.51,6.65,6.65,0,0,1,.84-3.31,9.54,9.54,0,0,1,2.22-2.68l2.78-2.33c0-.72-.16-1.14-.46-1.26a1.31,1.31,0,0,0-1.14.22,2.22,2.22,0,0,0-.67.56,5.4,5.4,0,0,0-.45.77,3.56,3.56,0,0,1-.29.45.92.92,0,0,1-.28.24l-1.58.91a.24.24,0,0,1-.29,0C218.67,109.79,218.64,109.67,218.67,109.48Zm2.84,5.75a3.8,3.8,0,0,0,1-.85,5.26,5.26,0,0,0,.76-1.1,5.73,5.73,0,0,0,.45-1.21,4.43,4.43,0,0,0,.16-1.16v-.26l-2.32,2a4.31,4.31,0,0,0-1,1.12,2.26,2.26,0,0,0-.31,1.13c0,.37.13.57.37.6A1.35,1.35,0,0,0,221.51,115.23Z" style="fill:#fafafa"></path><path d="M232.14,107a1.72,1.72,0,0,0,.29,1.14c.18.21.53.17,1-.12l1-.6a.25.25,0,0,1,.32,0,.57.57,0,0,1,.14.42v1.73a1.37,1.37,0,0,1-.14.58.86.86,0,0,1-.32.39l-1.26.73c-1.07.62-1.89.69-2.46.23s-.86-1.52-.86-3.16v-5.63l-1.12.65a.24.24,0,0,1-.32,0,.54.54,0,0,1-.14-.42v-1.72a1.34,1.34,0,0,1,.14-.58.84.84,0,0,1,.32-.4l1.12-.65V95.35a1.33,1.33,0,0,1,.14-.57.84.84,0,0,1,.32-.4l1.29-.75a.25.25,0,0,1,.33,0,.54.54,0,0,1,.13.42v4.27l2.2-1.27a.24.24,0,0,1,.32,0,.57.57,0,0,1,.14.42v1.73a1.41,1.41,0,0,1-.14.58.86.86,0,0,1-.32.39l-2.2,1.27Z" style="fill:#fafafa"></path><path d="M239.32,89.22a.25.25,0,0,1,.33,0,.53.53,0,0,1,.13.41v2a1.39,1.39,0,0,1-.13.58.82.82,0,0,1-.33.39l-1.46.85a.24.24,0,0,1-.32,0,.54.54,0,0,1-.14-.42V91a1.33,1.33,0,0,1,.14-.57.84.84,0,0,1,.32-.4Zm.38,17.68a1.37,1.37,0,0,1-.14.58.86.86,0,0,1-.32.39l-1.29.75a.25.25,0,0,1-.33,0,.57.57,0,0,1-.13-.42V96a1.39,1.39,0,0,1,.13-.58A.82.82,0,0,1,238,95l1.29-.75a.25.25,0,0,1,.32,0,.57.57,0,0,1,.14.42Z" style="fill:#fafafa"></path><path d="M246.8,89.63a3.42,3.42,0,0,1,1.69-.54,2,2,0,0,1,1.31.48,3.16,3.16,0,0,1,.88,1.32,6.6,6.6,0,0,1,.39,2c0,.16,0,.35,0,.6V95c0,.24,0,.44,0,.6a12.45,12.45,0,0,1-.4,2.48,11.4,11.4,0,0,1-.87,2.33,10.38,10.38,0,0,1-1.31,2,6.62,6.62,0,0,1-1.69,1.42,3.36,3.36,0,0,1-1.7.53,2,2,0,0,1-1.31-.46,3.06,3.06,0,0,1-.88-1.31,7.25,7.25,0,0,1-.39-2c0-.15,0-.34,0-.57s0-.47,0-.72,0-.49,0-.74,0-.45,0-.62a11.23,11.23,0,0,1,.39-2.47,12.14,12.14,0,0,1,.88-2.34,9.94,9.94,0,0,1,1.31-2A6.5,6.5,0,0,1,246.8,89.63Zm2,4.7a3.41,3.41,0,0,0-.24-1.2,1.16,1.16,0,0,0-.49-.58,1,1,0,0,0-.63-.07,2.68,2.68,0,0,0-.69.29,3.73,3.73,0,0,0-.7.52,3.28,3.28,0,0,0-.63.8,4.53,4.53,0,0,0-.49,1.13,6.9,6.9,0,0,0-.25,1.49c0,.15,0,.33,0,.54s0,.43,0,.66,0,.45,0,.66,0,.38,0,.5a3.62,3.62,0,0,0,.25,1.2,1.11,1.11,0,0,0,.49.58.9.9,0,0,0,.63.06,2.5,2.5,0,0,0,.7-.28,4,4,0,0,0,.69-.52,3.49,3.49,0,0,0,.63-.8,5.12,5.12,0,0,0,.49-1.13,6.36,6.36,0,0,0,.24-1.49c0-.13,0-.3,0-.52V94.85C248.87,94.64,248.86,94.46,248.85,94.33Z" style="fill:#fafafa"></path><path d="M262.18,93.92a1.37,1.37,0,0,1-.14.58,1,1,0,0,1-.32.4l-1.3.74a.24.24,0,0,1-.32,0,.57.57,0,0,1-.14-.42V88.55a4,4,0,0,0-.47-2.24c-.32-.45-.81-.48-1.47-.1A3.51,3.51,0,0,0,256.6,88a7.38,7.38,0,0,0-.51,2.82v6.65A1.41,1.41,0,0,1,256,98a.86.86,0,0,1-.32.39l-1.3.75a.25.25,0,0,1-.32,0,.57.57,0,0,1-.14-.42V86.51a1.41,1.41,0,0,1,.14-.58.86.86,0,0,1,.32-.39l1.3-.75a.25.25,0,0,1,.32,0,.57.57,0,0,1,.14.42v.6a10.17,10.17,0,0,1,1-1.72,4.6,4.6,0,0,1,1.42-1.26,2.89,2.89,0,0,1,1.73-.51,1.62,1.62,0,0,1,1.12.69,3.85,3.85,0,0,1,.61,1.61,12.7,12.7,0,0,1,.18,2.24Z" style="fill:#fafafa"></path></g></g><g id="freepik--paint-tools--inject-60"><g id="freepik--Paint--inject-60"><path d="M380.11,235.38H349.54l1.38,21.74h0c0,2,1.29,4.05,3.94,5.62,5.3,3.13,13.94,3.22,19.31.2,2.7-1.52,4.05-3.55,4.05-5.58Z" style="fill:#37474f"></path><path d="M354.06,228.61c-6,3.39-6.07,9-.13,12.49s15.62,3.62,21.63.24,6.08-9,.14-12.49S360.07,225.23,354.06,228.61Z" style="fill:#455a64"></path><path d="M378.79,235.12a3.63,3.63,0,0,1-.22,1.2,7.37,7.37,0,0,1-3.66,3.86A22.6,22.6,0,0,1,354.6,240a7.39,7.39,0,0,1-3.54-3.86,3.75,3.75,0,0,1-.22-1.28c0-1.86,1.4-3.66,3.88-5A22.64,22.64,0,0,1,375,230C377.47,231.44,378.81,233.26,378.79,235.12Z" style="fill:#263238"></path><path d="M364.89,237.54a20.6,20.6,0,0,0-10.17,2.32c-.05,0-.09.06-.15.08l0,0a22.6,22.6,0,0,0,20.31.22l.15-.09,0,0A20.84,20.84,0,0,0,364.89,237.54Z" style="fill:#FF5346"></path><path d="M370.63,243.55c.6-.34,1.08-.06,1.07.63a2.36,2.36,0,0,1-1.1,1.85c-.6.34-1.08.06-1.07-.63A2.36,2.36,0,0,1,370.63,243.55Z" style="fill:#263238"></path><path d="M349.9,241.45c-1.32,3.38-2.34,8,.61,10.16.16.12.31.22.47.32v1.43c-.39-.24-.79-.51-1.18-.79-4.39-3.25-1.7-10.36,0-13.82Z" style="fill:#e0e0e0"></path><path d="M371.14,245.07c-.17.34-4.39,8.41-11.32,10a10.26,10.26,0,0,1-2.39.28,12,12,0,0,1-6.46-2v-1.43c2.87,2,5.75,2.68,8.57,2,6.4-1.5,10.5-9.35,10.53-9.43a.59.59,0,0,1,.8-.25A.58.58,0,0,1,371.14,245.07Z" style="fill:#e0e0e0"></path></g><g id="freepik--Canvas--inject-60"><path d="M429.11,289.29a1.72,1.72,0,0,0-1-1.41L391,266.43a5.4,5.4,0,0,0-4.89,0l-56.25,32.48a1.72,1.72,0,0,0-1,1.41v4.41a1.72,1.72,0,0,0,1,1.41L367,327.58a5.38,5.38,0,0,0,4.88,0l56.25-32.47a1.72,1.72,0,0,0,1-1.41Z" style="fill:#f0f0f0"></path><path d="M369.41,323.75v4.42a5,5,0,0,1-2.44-.59l-37.15-21.44a1.71,1.71,0,0,1-1-1.41v-4.42a1.72,1.72,0,0,0,1,1.42L367,323.17A4.87,4.87,0,0,0,369.41,323.75Z" style="fill:#ebebeb"></path><path d="M329.82,298.91l56.25-32.48a5.4,5.4,0,0,1,4.89,0l37.14,21.45c1.35.78,1.35,2,0,2.82l-56.25,32.47a5.38,5.38,0,0,1-4.88,0l-37.15-21.44C328.48,301,328.48,299.69,329.82,298.91Z" style="fill:#f5f5f5"></path><path d="M391,266.43a5.4,5.4,0,0,0-4.89,0l-56.25,32.48c-1.34.78-1.34,2,0,2.82l13.31,7.68h0s14,3.37,20-.54,7.3-9.6,14.45-13.25c10.64-5.43,21.09-1.8,33.81-3,14.32-1.3,14.92-5.84,14.92-5.84L414.48,280Z" style="fill:#FF5346"></path><path d="M328.82,300.31v4.42a1.71,1.71,0,0,0,1,1.41l13.31,7.68v-4.41h0l-13.31-7.68A1.72,1.72,0,0,1,328.82,300.31Z" style="fill:#FF5346"></path><path d="M328.82,300.31v4.42a1.71,1.71,0,0,0,1,1.41l13.31,7.68v-4.41h0l-13.31-7.68A1.72,1.72,0,0,1,328.82,300.31Z" style="opacity:0.2"></path></g><g id="freepik--Brush--inject-60"><path d="M421,268.42l-11.89-6.86a.91.91,0,0,1-.38-.83,2.79,2.79,0,0,1,1.28-2.21.86.86,0,0,1,.9-.09l11.9,6.87Z" style="fill:#455a64"></path><polygon points="419.78 263.53 416.17 265.61 421.04 268.43 422.84 265.3 419.78 263.53" style="fill:#37474f"></polygon><path d="M433.29,269.23l-2.42-1.4,2.42-1.4-5-2.88a6,6,0,0,0-5.43,0L418.64,266a2,2,0,0,0-1.13,1.47c0,.06,0,2.46,0,3a1.93,1.93,0,0,0,1.11,1.48l5,2.88Z" style="fill:#37474f"></path><path d="M418.64,266l4.25-2.45a6,6,0,0,1,5.43,0l5,2.89L423.61,272l-5-2.88C417.13,268.27,417.13,266.87,418.64,266Z" style="fill:#455a64"></path><polygon points="423.61 272.02 433.29 266.44 440.56 270.63 430.87 276.22 423.61 272.02" style="fill:#f0f0f0"></polygon><polygon points="423.61 272.02 430.87 276.22 430.87 279.02 423.61 274.82 423.61 272.02" style="fill:#ebebeb"></polygon><polygon points="421.45 270.77 431.13 265.18 430.14 264.61 420.41 270.17 421.45 270.77" style="fill:#FF5346"></polygon><polygon points="421.45 270.77 421.45 273.57 420.41 272.97 420.41 270.17 421.45 270.77" style="fill:#FF5346"></polygon><polygon points="421.45 270.77 421.45 273.57 420.41 272.97 420.41 270.17 421.45 270.77" style="opacity:0.1"></polygon><path d="M428.65,277.74s-1.32-1.71-.61-3.15l2.83,1.63V279Z" style="fill:#FF5346"></path><path d="M428.65,277.74s-1.32-1.71-.61-3.15l2.83,1.63V279Z" style="opacity:0.1"></path><path d="M428,274.59a3.45,3.45,0,0,1,2-2.66c1.32-.57,4.12.59,5.28-1.3a3.5,3.5,0,0,0-.08-3.07l5.33,3.07-9.69,5.59Z" style="fill:#FF5346"></path><polygon points="440.56 270.63 440.56 273.43 430.87 279.02 430.87 276.22 440.56 270.63" style="fill:#FF5346"></polygon><polygon points="440.56 270.63 440.56 273.43 430.87 279.02 430.87 276.22 440.56 270.63" style="fill:#fff;opacity:0.7000000000000001"></polygon></g></g><g id="freepik--light-bulb--inject-60"><g id="freepik--Light--inject-60"><path d="M419.32,192.59a5.49,5.49,0,1,1-5.49-5.48A5.49,5.49,0,0,1,419.32,192.59Z" style="fill:#37474f"></path><path d="M407.26,193c-3.64-2.09-3.64-5.49,0-7.59a14.51,14.51,0,0,1,13.15,0c3.63,2.1,3.63,5.5,0,7.59A14.51,14.51,0,0,1,407.26,193Z" style="fill:#455a64"></path><path d="M407.05,191c-3.74-2.16-3.74-5.66,0-7.82a15,15,0,0,1,13.56,0c3.74,2.16,3.74,5.66,0,7.82A15,15,0,0,1,407.05,191Z" style="fill:#37474f"></path><path d="M406.85,188.93c-3.86-2.22-3.86-5.84,0-8.06a15.42,15.42,0,0,1,14,0c3.86,2.22,3.86,5.84,0,8.06A15.42,15.42,0,0,1,406.85,188.93Z" style="fill:#455a64"></path><path d="M406.63,186.83c-4-2.3-4-6,0-8.31a15.89,15.89,0,0,1,14.4,0c4,2.29,4,6,0,8.31A15.89,15.89,0,0,1,406.63,186.83Z" style="fill:#37474f"></path><path d="M406.48,184.62c-4.05-2.34-4.05-6.14,0-8.48a16.27,16.27,0,0,1,14.7,0c4.06,2.34,4.06,6.14,0,8.48A16.27,16.27,0,0,1,406.48,184.62Z" style="fill:#455a64"></path><path d="M413.83,120.75a26.12,26.12,0,0,0-26.12,26.12c0,20.74,17.11,24.19,17.11,32.54,0,1.34.88,2.67,2.64,3.68a14,14,0,0,0,12.74,0c1.76-1,2.64-2.34,2.64-3.68h0c0-8.35,17.12-11.8,17.12-32.54A26.13,26.13,0,0,0,413.83,120.75Z" style="fill:#ebebeb"></path><path d="M409,182c-2.65-1.53-2.65-4,0-5.53a10.57,10.57,0,0,1,9.58,0c2.65,1.53,2.65,4,0,5.53A10.57,10.57,0,0,1,409,182Z" style="fill:#e0e0e0"></path><path d="M417.32,178.55a.89.89,0,0,1-.89-.87,63.3,63.3,0,0,1,1.83-14.93,33,33,0,0,1,1.3-4.15,11.75,11.75,0,0,1-2.26-1.11,15.37,15.37,0,0,1-3.47-2.91,15.31,15.31,0,0,1-3.46,2.91,11.54,11.54,0,0,1-2.27,1.11,31.39,31.39,0,0,1,1.3,4.15,63.3,63.3,0,0,1,1.83,14.93.9.9,0,0,1-.9.87.89.89,0,0,1-.87-.91,63.23,63.23,0,0,0-1.78-14.47,28.49,28.49,0,0,0-1.32-4.13,5.53,5.53,0,0,1-4.94-1.45,2.84,2.84,0,0,1-.38-3.66,2.34,2.34,0,0,1,2.41-1c1.4.28,2.76,1.71,3.93,4.05a10.29,10.29,0,0,0,2.06-1,13.52,13.52,0,0,0,3.3-2.85c-1.21-1.86-1.65-3.7-1.29-5a2.49,2.49,0,0,1,4.76,0c.37,1.28-.08,3.12-1.29,5a13.59,13.59,0,0,0,3.31,2.85,10.29,10.29,0,0,0,2.06,1c1.17-2.34,2.53-3.77,3.92-4.05a2.38,2.38,0,0,1,2.42,1,2.83,2.83,0,0,1-.39,3.66A5.53,5.53,0,0,1,421.3,159a31.19,31.19,0,0,0-1.32,4.13,63.33,63.33,0,0,0-1.78,14.47.89.89,0,0,1-.87.91ZM403,154.65a.61.61,0,0,0-.51.33c-.43.59.08,1.22.25,1.4a3.53,3.53,0,0,0,2.83,1c-.94-1.74-1.86-2.55-2.44-2.67Zm19.13,2.68a3.56,3.56,0,0,0,2.84-1c.16-.18.68-.81.24-1.4-.24-.34-.45-.36-.63-.32C424,154.78,423.06,155.59,422.11,157.33Zm-8.28-9.16a.6.6,0,0,0-.68.48,4.32,4.32,0,0,0,.68,2.9,4.26,4.26,0,0,0,.68-2.9A.59.59,0,0,0,413.83,148.17Z" style="fill:#fff"></path><path d="M413.83,115.05a1.77,1.77,0,0,1-1.77-1.77V103.07a1.77,1.77,0,0,1,3.54,0v10.21A1.77,1.77,0,0,1,413.83,115.05Z" style="fill:#f0f0f0"></path><path d="M397.72,119.37a1.78,1.78,0,0,1-2.43-.65l-5.1-8.84a1.77,1.77,0,0,1,3.07-1.77l5.11,8.84A1.78,1.78,0,0,1,397.72,119.37Z" style="fill:#f0f0f0"></path><path d="M385.92,131.17a1.77,1.77,0,0,1-2.42.65l-8.85-5.11a1.77,1.77,0,1,1,1.78-3.07l8.84,5.11A1.77,1.77,0,0,1,385.92,131.17Z" style="fill:#f0f0f0"></path><path d="M381.6,147.28a1.78,1.78,0,0,1-1.77,1.78H369.62a1.78,1.78,0,1,1,0-3.55h10.21A1.77,1.77,0,0,1,381.6,147.28Z" style="fill:#f0f0f0"></path><path d="M385.92,163.4a1.77,1.77,0,0,1-.65,2.42l-8.84,5.11a1.77,1.77,0,1,1-1.78-3.07l8.85-5.11A1.77,1.77,0,0,1,385.92,163.4Z" style="fill:#f0f0f0"></path><path d="M441.75,163.4a1.77,1.77,0,0,1,2.42-.65l8.84,5.11a1.77,1.77,0,1,1-1.77,3.07l-8.85-5.11A1.77,1.77,0,0,1,441.75,163.4Z" style="fill:#f0f0f0"></path><path d="M446.06,147.28a1.78,1.78,0,0,1,1.78-1.77h10.21a1.78,1.78,0,0,1,0,3.55H447.84A1.78,1.78,0,0,1,446.06,147.28Z" style="fill:#f0f0f0"></path><path d="M441.75,131.17a1.77,1.77,0,0,1,.64-2.42l8.85-5.11a1.77,1.77,0,1,1,1.77,3.07l-8.84,5.11A1.77,1.77,0,0,1,441.75,131.17Z" style="fill:#f0f0f0"></path><path d="M430,119.37a1.77,1.77,0,0,1-.65-2.42l5.11-8.84a1.77,1.77,0,0,1,3.07,1.77l-5.11,8.84A1.77,1.77,0,0,1,430,119.37Z" style="fill:#f0f0f0"></path></g></g><g id="freepik--Tools--inject-60"><g id="freepik--Screwdriver--inject-60"><path d="M280.7,331.29l6.88,11.92,23.23-13.41a3.34,3.34,0,0,0,1.55-3.21,10.76,10.76,0,0,0-4.87-8.44,3.42,3.42,0,0,0-3.45-.34h0Z" style="fill:#FF5346"></path><path d="M279.32,333.76h0c-.1,1.82-2.67,2.21-2.67,2.21l4.87,8.44s1.63-2,3.25-1.22h0c2.4,1,4.25-.25,4.25-3.12a10.76,10.76,0,0,0-4.87-8.43C281.66,330.19,279.62,331.16,279.32,333.76Z" style="fill:#FF5346"></path><path d="M279.32,333.76h0c-.1,1.82-2.67,2.21-2.67,2.21l4.87,8.44s1.63-2,3.25-1.22h0c2.4,1,4.25-.25,4.25-3.12a10.76,10.76,0,0,0-4.87-8.43C281.66,330.19,279.62,331.16,279.32,333.76Z" style="opacity:0.05"></path><path d="M277.81,335.6a5.32,5.32,0,0,1-1.17.36l4.87,8.44a5,5,0,0,1,.9-.82A10.91,10.91,0,0,0,277.81,335.6Z" style="opacity:0.05"></path><path d="M271.57,336.55l.41.71a5,5,0,0,0-.21,1.51,10.78,10.78,0,0,0,4.87,8.44,5.22,5.22,0,0,0,1.41.57l.41.71,1.62-.94h0a3.41,3.41,0,0,0,1.43-3.15,10.76,10.76,0,0,0-4.87-8.44,3.4,3.4,0,0,0-3.44-.34h0Z" style="fill:#FF5346"></path><path d="M279.89,345.33A10.76,10.76,0,0,0,275,336.9c-2.69-1.56-4.87-.3-4.87,2.81a10.76,10.76,0,0,0,4.87,8.43C277.71,349.7,279.89,348.44,279.89,345.33Z" style="fill:#FF5346"></path><path d="M279.89,345.33A10.76,10.76,0,0,0,275,336.9c-2.69-1.56-4.87-.3-4.87,2.81a10.76,10.76,0,0,0,4.87,8.43C277.71,349.7,279.89,348.44,279.89,345.33Z" style="opacity:0.1"></path><path d="M308.4,323.24h0a1.35,1.35,0,0,1-.49,1.84l-16.59,9.58a1.34,1.34,0,0,1-1.84-.5h0a1.34,1.34,0,0,1,.49-1.83l16.59-9.58A1.35,1.35,0,0,1,308.4,323.24Z" style="opacity:0.2"></path><path d="M305.4,319.68h0a.78.78,0,0,1-.06,1.37l-16.9,9.76a1.83,1.83,0,0,1-1.95-.21h0a.79.79,0,0,1,.06-1.38l16.9-9.76A1.83,1.83,0,0,1,305.4,319.68Z" style="opacity:0.2"></path><path d="M310,327.62h0a.79.79,0,0,0-1.22-.64l-16.9,9.76a1.83,1.83,0,0,0-.79,1.8h0a.79.79,0,0,0,1.22.64l16.9-9.76A1.85,1.85,0,0,0,310,327.62Z" style="opacity:0.2"></path><path d="M232.31,365v3.24l8.11-2.64s1.63-3,3.25-3.92l30.85-17.81,1-2.69-1-.55-30.85,17.81a3.26,3.26,0,0,1-3.25-.18Z" style="fill:#455a64"></path><path d="M233.26,365.56v3.24l8.11-2.64s1.63-3,3.25-3.92l30.85-17.81v-3.24L244.62,359a3.26,3.26,0,0,1-3.25-.18Z" style="fill:#37474f"></path><polygon points="233.26 368.81 232.31 368.25 232.31 365.01 233.26 365.56 233.26 368.81" style="fill:#263238"></polygon><polygon points="232.31 365.01 233.26 365.56 241.37 358.82 240.42 358.27 232.31 365.01" style="fill:#455a64"></polygon></g><g id="freepik--Wrench--inject-60"><path d="M332.36,345.8a.93.93,0,0,1-.14.49,7.68,7.68,0,0,1-2.71,2.39,18.24,18.24,0,0,1-12.14,1.52L277,373.49a.54.54,0,0,1,.07.13l.63-.11v2.29c0,1.73-1.14,3.46-3.46,4.77-4.56,2.6-11.92,2.57-16.43-.07l-.29-.18a.42.42,0,0,1-.17-.31v-2.15l10.51.6,1.53-3.2-.86-.5-3.17-1.86-9.77,1.42a.44.44,0,0,1-.5-.43v-2.41L258,371s8.06-2.38,12.15-1.52l40.34-23.29a4.23,4.23,0,0,1-.7-2.4s0-2.27,0-2.27l.61.22a7.57,7.57,0,0,1,2.85-2.63c4.58-2.6,16.89-1.86,16.89-1.86v2.25a.21.21,0,0,1-.19.21l-10.31,1.51-.67,1.41-.87,1.79,4,2.37,10-3.62.25.43Z" style="fill:#37474f"></path><path d="M269.42,373l-.86,1.8-3.17-1.86-9.77,1.42a.44.44,0,0,1-.5-.43v-2.41l10.27-.88Z" style="fill:#263238"></path><path d="M319.59,338.94l10.5-1.7v2.26a.22.22,0,0,1-.19.22l-10.31,1.51-.67,1.41-.86-.5Z" style="fill:#263238"></path><polygon points="317.37 350.2 317.37 347.91 277.03 371.2 277.03 373.49 317.37 350.2" style="fill:#37474f"></polygon><path d="M258,368.72a7.66,7.66,0,0,0-2.76,2.46.54.54,0,0,0,.53.83l9.65-1.41,4,2.36-1.53,3.21-10.11,1.48c-.38.05-.5.2-.3.33l.36.23c4.51,2.64,11.86,2.67,16.44.07,3.35-1.91,4.26-4.69,2.75-7.08l40.34-23.29a18.24,18.24,0,0,0,12.14-1.52,7.67,7.67,0,0,0,2.76-2.47.55.55,0,0,0-.54-.83l-9.64,1.41-4-2.36,1.53-3.2,10.11-1.48c.36-.06.49-.22.3-.34l-.37-.22c-4.5-2.64-11.86-2.68-16.43-.08-3.35,1.91-4.26,4.69-2.75,7.09L270.11,367.2A18.23,18.23,0,0,0,258,368.72Z" style="fill:#455a64"></path></g><g id="freepik--Gears--inject-60"><path d="M352.1,358h0a.58.58,0,0,0,.36.5L355.6,360a.85.85,0,0,1,.37,1.15,6,6,0,0,0-.33.85,1.44,1.44,0,0,1-1,1l-4.9-2.57v4h0a.69.69,0,0,0,0,.25l.68,2.17a1.2,1.2,0,0,0,1.13.8l4.48-.18a2.13,2.13,0,0,1,1.45.62l.1.09a4.57,4.57,0,0,0-.89.3v4h0a.58.58,0,0,0,.41.53l3.93,1.57a1.83,1.83,0,0,0,1.53-.16l2.64-1.75a2.51,2.51,0,0,1,1.59-.32,23.49,23.49,0,0,0,2.54.31,1.72,1.72,0,0,1,1.27.83l1,1.91a1.35,1.35,0,0,0,1.26.68l4.91-.51a.84.84,0,0,0,.76-.84h0V372.1a1,1,0,0,1,.5-.36,20.65,20.65,0,0,0,2.05-.75,2.72,2.72,0,0,1,1.62-.11l3.82,1.2a1.79,1.79,0,0,0,1.5-.3l2.51-2.08a.62.62,0,0,0,.24-.45h0v-4.06l-3.51,2a.85.85,0,0,1-.36-1.15,5.88,5.88,0,0,0,.32-.85,1.47,1.47,0,0,1,1-1l4.26-.73a.75.75,0,0,0,.64-.71h0v-4.05l-2.74.48-3.6.51a2.21,2.21,0,0,1-1.45-.61,11.18,11.18,0,0,0-1.07-1,.76.76,0,0,1-.11-1.15l1.78-1.89a.68.68,0,0,0,.19-.45h0v-4.07L383.11,353l-1.27-.51a1.85,1.85,0,0,0-1.54.16l-2.64,1.75a2.43,2.43,0,0,1-1.58.32c-.84-.14-1.55-.68-2.41-.75-.48,0-1.18,0-1.4-.39l-1-1.91A1.39,1.39,0,0,0,370,351l-4.9.51a.87.87,0,0,0-.77,1l.23,1.86a1.06,1.06,0,0,1-.73,1.11,20.65,20.65,0,0,0-2.05.75,2.67,2.67,0,0,1-1.63.11l-3.81-1.2a1.81,1.81,0,0,0-1.12.08l-3.14-1.27Zm24.68,1.2c4.25,1.7,5.31,5.07,2.36,7.53s-8.59,2.31-12.85.6-5.51-4.31-2.56-6.77S372.52,357.44,376.78,359.15Z" style="fill:#FF5346"></path><path d="M352.1,358h0a.58.58,0,0,0,.36.5L355.6,360a.85.85,0,0,1,.37,1.15,6,6,0,0,0-.33.85,1.44,1.44,0,0,1-1,1l-4.9-2.57v4h0a.69.69,0,0,0,0,.25l.68,2.17a1.2,1.2,0,0,0,1.13.8l4.48-.18a2.13,2.13,0,0,1,1.45.62l.1.09a4.57,4.57,0,0,0-.89.3v4h0a.58.58,0,0,0,.41.53l3.93,1.57a1.83,1.83,0,0,0,1.53-.16l2.64-1.75a2.51,2.51,0,0,1,1.59-.32,23.49,23.49,0,0,0,2.54.31,1.72,1.72,0,0,1,1.27.83l1,1.91a1.35,1.35,0,0,0,1.26.68l4.91-.51a.84.84,0,0,0,.76-.84h0V372.1a1,1,0,0,1,.5-.36,20.65,20.65,0,0,0,2.05-.75,2.72,2.72,0,0,1,1.62-.11l3.82,1.2a1.79,1.79,0,0,0,1.5-.3l2.51-2.08a.62.62,0,0,0,.24-.45h0v-4.06l-3.51,2a.85.85,0,0,1-.36-1.15,5.88,5.88,0,0,0,.32-.85,1.47,1.47,0,0,1,1-1l4.26-.73a.75.75,0,0,0,.64-.71h0v-4.05l-2.74.48-3.6.51a2.21,2.21,0,0,1-1.45-.61,11.18,11.18,0,0,0-1.07-1,.76.76,0,0,1-.11-1.15l1.78-1.89a.68.68,0,0,0,.19-.45h0v-4.07L383.11,353l-1.27-.51a1.85,1.85,0,0,0-1.54.16l-2.64,1.75a2.43,2.43,0,0,1-1.58.32c-.84-.14-1.55-.68-2.41-.75-.48,0-1.18,0-1.4-.39l-1-1.91A1.39,1.39,0,0,0,370,351l-4.9.51a.87.87,0,0,0-.77,1l.23,1.86a1.06,1.06,0,0,1-.73,1.11,20.65,20.65,0,0,0-2.05.75,2.67,2.67,0,0,1-1.63.11l-3.81-1.2a1.81,1.81,0,0,0-1.12.08l-3.14-1.27Zm24.68,1.2c4.25,1.7,5.31,5.07,2.36,7.53s-8.59,2.31-12.85.6-5.51-4.31-2.56-6.77S372.52,357.44,376.78,359.15Z" style="opacity:0.2"></path><path d="M382.73,370.89l3.78,1.19a1.72,1.72,0,0,0,.95,0v-5l-.2.11a.85.85,0,0,1-.36-1.15h0l-4.17-2.4Z" style="fill:#FF5346"></path><path d="M372,368.52a16.29,16.29,0,0,1-1.82-.19v4.8a1.4,1.4,0,0,1,.42.46l1,1.91a1.31,1.31,0,0,0,.72.6v-7.38Z" style="fill:#FF5346"></path><path d="M352.09,353.92a.57.57,0,0,0,.36.48L355.6,356a.84.84,0,0,1,.36,1.15,5.88,5.88,0,0,0-.32.85,1.42,1.42,0,0,1-1,1l-.79.14-1.35-.68a.59.59,0,0,1-.36-.5h0Z" style="fill:#FF5346"></path><path d="M355.7,361.89l-.06.14a1.44,1.44,0,0,1-1,1l-4.9-2.57v4h0a.69.69,0,0,0,0,.25l.68,2.17a1.2,1.2,0,0,0,1.13.8l4.48-.18a1.78,1.78,0,0,1,.7.14v-5.44Z" style="fill:#FF5346"></path><path d="M362.05,374.72v-5l-4.6-1.45a5.36,5.36,0,0,0-.76.27v4h0a.58.58,0,0,0,.41.53l3.93,1.57A1.84,1.84,0,0,0,362.05,374.72Z" style="fill:#FF5346"></path><path d="M354.85,351.37l-2.5,2.09a.53.53,0,0,0,.1,1L355.6,356a.84.84,0,0,1,.36,1.15,7.35,7.35,0,0,0-.32.85,1.44,1.44,0,0,1-1,1l-4.27.73a.75.75,0,0,0-.6,1l.68,2.17a1.22,1.22,0,0,0,1.14.8l4.48-.18a2.19,2.19,0,0,1,1.45.61,11.33,11.33,0,0,0,1.08,1,.76.76,0,0,1,.11,1.15l-1.78,1.89a.56.56,0,0,0,.21,1l3.92,1.57a1.85,1.85,0,0,0,1.54-.16l2.64-1.75a2.51,2.51,0,0,1,1.59-.32c.83.14,1.68.25,2.54.31a1.72,1.72,0,0,1,1.27.83l1,1.91a1.37,1.37,0,0,0,1.26.68l4.91-.51a.85.85,0,0,0,.76-1l-.22-1.86a1.06,1.06,0,0,1,.73-1.11,21.61,21.61,0,0,0,2.05-.75,2.64,2.64,0,0,1,1.62-.11l3.82,1.2a1.79,1.79,0,0,0,1.5-.3l2.51-2.09a.53.53,0,0,0-.11-.95l-3.15-1.58a.85.85,0,0,1-.36-1.15,5.88,5.88,0,0,0,.32-.85,1.47,1.47,0,0,1,1-1l4.27-.73a.74.74,0,0,0,.6-1l-.68-2.17a1.2,1.2,0,0,0-1.13-.8l-4.49.18a2.21,2.21,0,0,1-1.45-.61,11.18,11.18,0,0,0-1.07-1,.76.76,0,0,1-.11-1.15L386,351a.56.56,0,0,0-.21-1l-3.93-1.57a1.85,1.85,0,0,0-1.54.16l-2.64,1.75a2.49,2.49,0,0,1-1.58.32c-.84-.14-1.69-.25-2.54-.31a1.72,1.72,0,0,1-1.27-.83l-1-1.91A1.37,1.37,0,0,0,370,347l-4.9.51a.86.86,0,0,0-.77,1l.23,1.86a1.07,1.07,0,0,1-.74,1.11,20.46,20.46,0,0,0-2,.75,2.68,2.68,0,0,1-1.63.11l-3.81-1.2A1.81,1.81,0,0,0,354.85,351.37Zm21.93,3.74c4.25,1.7,5.31,5.07,2.36,7.53s-8.8,3.07-13.05,1.36-5.31-5.07-2.36-7.53S372.52,353.4,376.78,355.11Z" style="fill:#FF5346"></path><path d="M354.85,351.37l-2.5,2.09a.53.53,0,0,0,.1,1L355.6,356a.84.84,0,0,1,.36,1.15,7.35,7.35,0,0,0-.32.85,1.44,1.44,0,0,1-1,1l-4.27.73a.75.75,0,0,0-.6,1l.68,2.17a1.22,1.22,0,0,0,1.14.8l4.48-.18a2.19,2.19,0,0,1,1.45.61,11.33,11.33,0,0,0,1.08,1,.76.76,0,0,1,.11,1.15l-1.78,1.89a.56.56,0,0,0,.21,1l3.92,1.57a1.85,1.85,0,0,0,1.54-.16l2.64-1.75a2.51,2.51,0,0,1,1.59-.32c.83.14,1.68.25,2.54.31a1.72,1.72,0,0,1,1.27.83l1,1.91a1.37,1.37,0,0,0,1.26.68l4.91-.51a.85.85,0,0,0,.76-1l-.22-1.86a1.06,1.06,0,0,1,.73-1.11,21.61,21.61,0,0,0,2.05-.75,2.64,2.64,0,0,1,1.62-.11l3.82,1.2a1.79,1.79,0,0,0,1.5-.3l2.51-2.09a.53.53,0,0,0-.11-.95l-3.15-1.58a.85.85,0,0,1-.36-1.15,5.88,5.88,0,0,0,.32-.85,1.47,1.47,0,0,1,1-1l4.27-.73a.74.74,0,0,0,.6-1l-.68-2.17a1.2,1.2,0,0,0-1.13-.8l-4.49.18a2.21,2.21,0,0,1-1.45-.61,11.18,11.18,0,0,0-1.07-1,.76.76,0,0,1-.11-1.15L386,351a.56.56,0,0,0-.21-1l-3.93-1.57a1.85,1.85,0,0,0-1.54.16l-2.64,1.75a2.49,2.49,0,0,1-1.58.32c-.84-.14-1.69-.25-2.54-.31a1.72,1.72,0,0,1-1.27-.83l-1-1.91A1.37,1.37,0,0,0,370,347l-4.9.51a.86.86,0,0,0-.77,1l.23,1.86a1.07,1.07,0,0,1-.74,1.11,20.46,20.46,0,0,0-2,.75,2.68,2.68,0,0,1-1.63.11l-3.81-1.2A1.81,1.81,0,0,0,354.85,351.37Zm21.93,3.74c4.25,1.7,5.31,5.07,2.36,7.53s-8.8,3.07-13.05,1.36-5.31-5.07-2.36-7.53S372.52,353.4,376.78,355.11Z" style="fill:#fff;opacity:0.7000000000000001"></path><path d="M400.2,332.76v4h0a.6.6,0,0,0,.28.47l5.54,4a.74.74,0,0,1,.1,1.14,14,14,0,0,0-2,2.75,1.73,1.73,0,0,1-1.26.83l-9.33.59a1,1,0,0,0-.87.93v5.2a1,1,0,0,0,.87.93l9.33.59a1.71,1.71,0,0,1,1.26.84,13.35,13.35,0,0,0,1,1.52l-4.92,2.84v4h0a.59.59,0,0,0,.33.47l7,4a1.87,1.87,0,0,0,1.55.07l7.09-3.28a2.64,2.64,0,0,1,1.62-.1,42.17,42.17,0,0,0,5.51,1.31,1.34,1.34,0,0,1,1,1l.89,4.67a1.1,1.1,0,0,0,1,.86h10.29a1.1,1.1,0,0,0,1-.86l.89-4.67a1.33,1.33,0,0,1,1-1,42,42,0,0,0,5.5-1.31,2.64,2.64,0,0,1,1.62.1l7.09,3.28a1.87,1.87,0,0,0,1.55-.07l7-4a.58.58,0,0,0,.32-.48h0v-4l-4.65-3.22c.26-.38.5-.76.71-1.14a1.71,1.71,0,0,1,1.26-.84l9.32-.59a1,1,0,0,0,.87-.93v-5.2a1,1,0,0,0-.87-.93l-9.32-.59a1.73,1.73,0,0,1-1.26-.83,14.08,14.08,0,0,0-2-2.75.74.74,0,0,1,.1-1.14l5.54-4a.6.6,0,0,0,.28-.48h0v-4l-7.32-.54a1.9,1.9,0,0,0-1.55-.07l-7.09,3.29a1.56,1.56,0,0,1-1.46-.19,16.54,16.54,0,0,0-6-2.8,1.42,1.42,0,0,1-1-1l-.54-2.87a1.09,1.09,0,0,0-1-.86H426.23a1.09,1.09,0,0,0-1,.86l-.59,3.07a1.46,1.46,0,0,1-1,1,23.26,23.26,0,0,0-5.91,2.67,1.82,1.82,0,0,1-1.53.11l-7.09-3.29a1.9,1.9,0,0,0-1.55.07l-4.7-.81Zm43,10.45c6.53,3.77,6.24,8.62-.28,12.39s-17.22,3.71-23.75-.06-6.13-8.56.4-12.33S436.67,339.44,443.19,343.21Z" style="fill:#FF5346"></path><path d="M400.2,332.76v4h0a.6.6,0,0,0,.28.47l5.54,4a.74.74,0,0,1,.1,1.14,14,14,0,0,0-2,2.75,1.73,1.73,0,0,1-1.26.83l-9.33.59a1,1,0,0,0-.87.93v5.2a1,1,0,0,0,.87.93l9.33.59a1.71,1.71,0,0,1,1.26.84,13.35,13.35,0,0,0,1,1.52l-4.92,2.84v4h0a.59.59,0,0,0,.33.47l7,4a1.87,1.87,0,0,0,1.55.07l7.09-3.28a2.64,2.64,0,0,1,1.62-.1,42.17,42.17,0,0,0,5.51,1.31,1.34,1.34,0,0,1,1,1l.89,4.67a1.1,1.1,0,0,0,1,.86h10.29a1.1,1.1,0,0,0,1-.86l.89-4.67a1.33,1.33,0,0,1,1-1,42,42,0,0,0,5.5-1.31,2.64,2.64,0,0,1,1.62.1l7.09,3.28a1.87,1.87,0,0,0,1.55-.07l7-4a.58.58,0,0,0,.32-.48h0v-4l-4.65-3.22c.26-.38.5-.76.71-1.14a1.71,1.71,0,0,1,1.26-.84l9.32-.59a1,1,0,0,0,.87-.93v-5.2a1,1,0,0,0-.87-.93l-9.32-.59a1.73,1.73,0,0,1-1.26-.83,14.08,14.08,0,0,0-2-2.75.74.74,0,0,1,.1-1.14l5.54-4a.6.6,0,0,0,.28-.48h0v-4l-7.32-.54a1.9,1.9,0,0,0-1.55-.07l-7.09,3.29a1.56,1.56,0,0,1-1.46-.19,16.54,16.54,0,0,0-6-2.8,1.42,1.42,0,0,1-1-1l-.54-2.87a1.09,1.09,0,0,0-1-.86H426.23a1.09,1.09,0,0,0-1,.86l-.59,3.07a1.46,1.46,0,0,1-1,1,23.26,23.26,0,0,0-5.91,2.67,1.82,1.82,0,0,1-1.53.11l-7.09-3.29a1.9,1.9,0,0,0-1.55.07l-4.7-.81Zm43,10.45c6.53,3.77,6.24,8.62-.28,12.39s-17.22,3.71-23.75-.06-6.13-8.56.4-12.33S436.67,339.44,443.19,343.21Z" style="opacity:0.2"></path><path d="M396.65,346.31l-3.09.19a1,1,0,0,0-.87.93v5.2a1,1,0,0,0,.87.93l9.33.59a1.39,1.39,0,0,1,.46.13V347.6Z" style="fill:#FF5346"></path><path d="M445.89,364.46a2.32,2.32,0,0,1,.7.17l7.09,3.28a1.61,1.61,0,0,0,.63.13v-4.51l-8.42-4.93Z" style="fill:#FF5346"></path><path d="M425.33,371.85a1.12,1.12,0,0,0,.9.52h10.29a1,1,0,0,0,.62-.23V367l-11.77-1.33Z" style="fill:#FF5346"></path><path d="M408.6,368v-6.34l-6.23-3.59-2.17,1.25v4h0a.59.59,0,0,0,.33.47l7,4A1.84,1.84,0,0,0,408.6,368Z" style="fill:#FF5346"></path><path d="M407.52,328.25l-7,4a.52.52,0,0,0,0,.94l5.54,4a.74.74,0,0,1,.1,1.14,14.08,14.08,0,0,0-2,2.75,1.73,1.73,0,0,1-1.26.83l-9.32.59a1,1,0,0,0-.87.93v5.2a1,1,0,0,0,.87.93l9.32.59a1.69,1.69,0,0,1,1.26.84,13.73,13.73,0,0,0,2,2.74.74.74,0,0,1-.1,1.14l-5.54,4a.52.52,0,0,0,0,.94l7,4a1.9,1.9,0,0,0,1.55.07l7.09-3.28a2.57,2.57,0,0,1,1.62-.1,42.4,42.4,0,0,0,5.5,1.31,1.34,1.34,0,0,1,1,1l.89,4.68a1.1,1.1,0,0,0,1,.86h10.29a1.1,1.1,0,0,0,1-.86l.89-4.68a1.34,1.34,0,0,1,1-1,42.17,42.17,0,0,0,5.51-1.31,2.57,2.57,0,0,1,1.62.1l7.09,3.28a1.9,1.9,0,0,0,1.55-.07l7-4a.52.52,0,0,0,0-.94l-5.54-4a.74.74,0,0,1-.1-1.14,14.14,14.14,0,0,0,2-2.74,1.69,1.69,0,0,1,1.25-.84l9.33-.59a1,1,0,0,0,.87-.93v-5.2a1,1,0,0,0-.87-.93l-9.33-.59a1.73,1.73,0,0,1-1.26-.83,14.44,14.44,0,0,0-2-2.75.74.74,0,0,1,.1-1.14l5.54-4a.52.52,0,0,0,0-.94l-7-4a1.9,1.9,0,0,0-1.55-.07l-7.09,3.29a2.57,2.57,0,0,1-1.62.09,42.17,42.17,0,0,0-5.51-1.31,1.34,1.34,0,0,1-1-1l-.89-4.67a1.09,1.09,0,0,0-1-.86H426.23a1.09,1.09,0,0,0-1,.86l-.89,4.67a1.34,1.34,0,0,1-1,1,42.4,42.4,0,0,0-5.5,1.31,2.56,2.56,0,0,1-1.62-.09l-7.09-3.29A1.9,1.9,0,0,0,407.52,328.25Zm35.67,11c6.53,3.77,6.53,9.88,0,13.64s-17.11,3.77-23.63,0-6.53-9.87,0-13.64S436.66,335.47,443.19,339.24Z" style="fill:#FF5346"></path><path d="M407.52,328.25l-7,4a.52.52,0,0,0,0,.94l5.54,4a.74.74,0,0,1,.1,1.14,14.08,14.08,0,0,0-2,2.75,1.73,1.73,0,0,1-1.26.83l-9.32.59a1,1,0,0,0-.87.93v5.2a1,1,0,0,0,.87.93l9.32.59a1.69,1.69,0,0,1,1.26.84,13.73,13.73,0,0,0,2,2.74.74.74,0,0,1-.1,1.14l-5.54,4a.52.52,0,0,0,0,.94l7,4a1.9,1.9,0,0,0,1.55.07l7.09-3.28a2.57,2.57,0,0,1,1.62-.1,42.4,42.4,0,0,0,5.5,1.31,1.34,1.34,0,0,1,1,1l.89,4.68a1.1,1.1,0,0,0,1,.86h10.29a1.1,1.1,0,0,0,1-.86l.89-4.68a1.34,1.34,0,0,1,1-1,42.17,42.17,0,0,0,5.51-1.31,2.57,2.57,0,0,1,1.62.1l7.09,3.28a1.9,1.9,0,0,0,1.55-.07l7-4a.52.52,0,0,0,0-.94l-5.54-4a.74.74,0,0,1-.1-1.14,14.14,14.14,0,0,0,2-2.74,1.69,1.69,0,0,1,1.25-.84l9.33-.59a1,1,0,0,0,.87-.93v-5.2a1,1,0,0,0-.87-.93l-9.33-.59a1.73,1.73,0,0,1-1.26-.83,14.44,14.44,0,0,0-2-2.75.74.74,0,0,1,.1-1.14l5.54-4a.52.52,0,0,0,0-.94l-7-4a1.9,1.9,0,0,0-1.55-.07l-7.09,3.29a2.57,2.57,0,0,1-1.62.09,42.17,42.17,0,0,0-5.51-1.31,1.34,1.34,0,0,1-1-1l-.89-4.67a1.09,1.09,0,0,0-1-.86H426.23a1.09,1.09,0,0,0-1,.86l-.89,4.67a1.34,1.34,0,0,1-1,1,42.4,42.4,0,0,0-5.5,1.31,2.56,2.56,0,0,1-1.62-.09l-7.09-3.29A1.9,1.9,0,0,0,407.52,328.25Zm35.67,11c6.53,3.77,6.53,9.88,0,13.64s-17.11,3.77-23.63,0-6.53-9.87,0-13.64S436.66,335.47,443.19,339.24Z" style="fill:#fff;opacity:0.7000000000000001"></path><path d="M400.2,332.76h0a.56.56,0,0,0,.28.48l5.54,4a.73.73,0,0,1,.1,1.13,14.49,14.49,0,0,0-1.45,1.87l-4.19-3a.6.6,0,0,1-.28-.47h0Z" style="fill:#FF5346"></path><path d="M400.2,332.76h0a.56.56,0,0,0,.28.48l5.54,4a.73.73,0,0,1,.1,1.13,14.49,14.49,0,0,0-1.45,1.87l-4.19-3a.6.6,0,0,1-.28-.47h0Z" style="fill:#FF5346"></path></g></g><g id="freepik--Character--inject-60"><g id="freepik--character--inject-60"><path d="M172.5,278.35c4.51,5.4,13.35,16.72,17.58,22,2.22,2.79-1.51,16-4.24,13.34-2.45-2.42-13.34-16.29-13.34-16.29s-4.77-18.85-8.43-20a16.84,16.84,0,0,0-6.21-.83C162.28,275.13,166.77,271.51,172.5,278.35Z" style="fill:#f0997a"></path><path d="M155.68,273.13c6.72-1.45,11.26-1.88,16.13,3.26,3.34,3.53,10.77,12.26,10.77,12.26a18,18,0,0,1-10.08,9.49Z" style="fill:#FF5346"></path><path d="M155.68,273.13c6.72-1.45,11.26-1.88,16.13,3.26,3.34,3.53,10.77,12.26,10.77,12.26a18,18,0,0,1-10.08,9.49Z" style="fill:#fff;opacity:0.7000000000000001"></path><path d="M202.73,392.21l19,28.13a1,1,0,0,0,1.89-.51l2-34.1Z" style="fill:#ffa8a7"></path><path d="M223.69,419.87a1.07,1.07,0,0,1-2,.49L218,414.85h0A5.72,5.72,0,0,0,223.7,413l.38-.45Z" style="fill:#fff"></path><path d="M187.82,247.54l.83,3,1,3.66,36,131.49a15.17,15.17,0,0,1-8.45,7.19c-5.41,2.08-11.61,1.8-14.47-.71L167,261.68l-1.91-7C166.58,259.14,189.26,252,187.82,247.54Z" style="fill:#455a64"></path><path d="M191,259.07l1.84,6.78c.6,1.94-3.24,4.34-8,6.1-6.25,2.34-14,3.54-14.82,1l-1.35-5-.48-1.79c.79,2.57,8.58,1.38,14.83-1,4.51-1.69,8.23-4,8-5.88v0A.35.35,0,0,0,191,259.07Z" style="fill:#FF5346"></path><path d="M191,259.07l1.84,6.78c.6,1.94-3.24,4.34-8,6.1-6.25,2.34-14,3.54-14.82,1l-1.35-5-.48-1.79c.79,2.57,8.58,1.38,14.83-1,4.51-1.69,8.23-4,8-5.88v0A.35.35,0,0,0,191,259.07Z" style="fill:#fff;opacity:0.7000000000000001"></path><path d="M191.46,260.77c1.4,4.51-21.36,11.57-22.76,7.06l-1.87-6.78c1.4,4.52,24.17-2.54,22.76-7.06Z" style="fill:#FF5346"></path><path d="M187.82,247.54l1.84,6.69c1.41,4.42-20.5,11.45-22.66,7.45a1.45,1.45,0,0,1-.11-.25l-1.8-6.75C166.58,259.14,189.26,252,187.82,247.54Z" style="fill:#FF5346"></path><path d="M187.82,247.54l1.84,6.69c1.41,4.42-20.5,11.45-22.66,7.45a1.45,1.45,0,0,1-.11-.25l-1.8-6.75C166.58,259.14,189.26,252,187.82,247.54Z" style="fill:#fff;opacity:0.7000000000000001"></path><path d="M180,219.15l7.8,28.39c.62,1.92-3.17,4.32-7.84,6.08-6.24,2.37-14,3.62-14.89,1.06,0,0,0,0,0,0l-7.5-27.3c-2.27-6.22,9-12.28,16.53-11.77C176.91,215.75,179.17,216.83,180,219.15Z" style="fill:#f28f8f"></path><path d="M221.76,420.34a1,1,0,0,0,.65.43l-11.7-26.46L164.57,217.63c-4.75,2.22-8.38,5.94-7,9.72l7.5,27.3,1.82,6.78a1.45,1.45,0,0,0,.11.25L202.74,392.2h0Z" style="opacity:0.1"></path><path d="M180.13,219.55l-.11-.4c-.85-2.32-3.11-3.4-5.92-3.57-7.16-.48-17.74,5-16.75,10.9.38,1.44,2.22,1.91,4.25,2.22,5.51.83,13.05-1.8,16.63-5.56A6.22,6.22,0,0,0,180.13,219.55Z" style="fill:#ffa8a7"></path><g id="freepik--Botom--inject-60"><polygon points="135.46 436.66 143.12 436.66 144.53 421.59 135.46 422.79 135.46 436.66" style="fill:#ffbda7"></polygon><polygon points="163.65 427.56 172.04 427.85 171.71 413.41 162.43 412.86 163.65 427.56" style="fill:#ffbda7"></polygon><path d="M152.43,450.92a3.57,3.57,0,0,1-.11,2.33c-.3.47-2,1.95-5.18,2.18s-5.68-.19-7.44-1.31a5.17,5.17,0,0,1-2.78-4.06c-.17-1.71,0-3.36-.79-4.68s-2-2.58-2.22-3.24a6.78,6.78,0,0,1,0-3.49Z" style="fill:#37474f"></path><path d="M144.21,436a6.57,6.57,0,0,0,.35,1.91,17,17,0,0,0,1.84,3.76,14.39,14.39,0,0,0,1.25,1.76c.9,1.08,2,2,3,3a6.16,6.16,0,0,1,1.86,3.68c.12,2.35-2.43,3.15-4.4,3.5a14.23,14.23,0,0,1-6.39-.32,5.87,5.87,0,0,1-4.31-4.69c-.1-.65-.06-1.32-.14-2a9.28,9.28,0,0,0-1.83-4.12,12.21,12.21,0,0,1-1.41-2.24c-.61-1.46-.12-3.09.27-4.55.34-1.25.73-2.67,1.17-2.55,0,.65,0,.72.46,1.16s.62,1.39,1.24,1.89a9.15,9.15,0,0,1-.44-1.68.9.9,0,0,1,.14-.66,1.66,1.66,0,0,1,.72-.39,14.48,14.48,0,0,1,2.86-.65,8.43,8.43,0,0,1,2.79,0,1.24,1.24,0,0,1,.7.4,1.44,1.44,0,0,1,.25.81C144.22,434.4,144.19,435.37,144.21,436Z" style="fill:#FF5346"></path><path d="M144.21,436a6.57,6.57,0,0,0,.35,1.91,17,17,0,0,0,1.84,3.76,14.39,14.39,0,0,0,1.25,1.76c.9,1.08,2,2,3,3a6.16,6.16,0,0,1,1.86,3.68c.12,2.35-2.43,3.15-4.4,3.5a14.23,14.23,0,0,1-6.39-.32,5.87,5.87,0,0,1-4.31-4.69c-.1-.65-.06-1.32-.14-2a9.28,9.28,0,0,0-1.83-4.12,12.21,12.21,0,0,1-1.41-2.24c-.61-1.46-.12-3.09.27-4.55.34-1.25.73-2.67,1.17-2.55,0,.65,0,.72.46,1.16s.62,1.39,1.24,1.89a9.15,9.15,0,0,1-.44-1.68.9.9,0,0,1,.14-.66,1.66,1.66,0,0,1,.72-.39,14.48,14.48,0,0,1,2.86-.65,8.43,8.43,0,0,1,2.79,0,1.24,1.24,0,0,1,.7.4,1.44,1.44,0,0,1,.25.81C144.22,434.4,144.19,435.37,144.21,436Z" style="opacity:0.4"></path><path d="M146.71,442.15c-.87-.66-2.84-.67-3.91-.55a6.55,6.55,0,0,0-3.06,1.07.69.69,0,0,1-.89-.07h0a.65.65,0,0,1,.06-1,6.64,6.64,0,0,1,3.44-1.27c2.64-.19,3.42.26,3.42.26S147,441.37,146.71,442.15Z" style="fill:#f5f5f5"></path><path d="M148.73,444.56c-1.1-.65-3.26-.56-4.34-.44a6.07,6.07,0,0,0-3,1.13.7.7,0,0,1-.9-.07h0a.66.66,0,0,1,.07-1,6.91,6.91,0,0,1,3.51-1.38c2.64-.18,3.33.36,3.33.36A2.18,2.18,0,0,1,148.73,444.56Z" style="fill:#f5f5f5"></path><path d="M141.3,437.8a6.45,6.45,0,0,1,3.32.28c.46.26.77,1,.47,1.18a6.14,6.14,0,0,0-2.94-.41,8.82,8.82,0,0,0-2.86.79c-.23.1-.5.24-.73.37a.62.62,0,0,1-.87-.27h0a.58.58,0,0,1,.23-.75A8.38,8.38,0,0,1,141.3,437.8Z" style="fill:#f5f5f5"></path><path d="M188.53,437.34a2.78,2.78,0,0,1-.12,2.09c-.29.62-3.49,2.42-7.81,2.13a17.94,17.94,0,0,1-8.93-3.12,10.41,10.41,0,0,0-5.5-1.42c-2.14-.12-4.95-1.19-5.42-2.19a4.72,4.72,0,0,1,.07-2.72Z" style="fill:#37474f"></path><path d="M171.1,423.86l.34-.07a1.23,1.23,0,0,1,.57,0,1.15,1.15,0,0,1,.54.36,10.58,10.58,0,0,1,1.1,1.73c.9,1.48,2.81,2.7,4.88,3.81,1.41.76,2.79,1.35,4.25,2s3.46,1.07,4.62,1.86a3.11,3.11,0,0,1,0,5.14c-1.67,1-6,2-10.65.74-2.51-.71-5.29-3.39-8.57-3.64-2.09-.17-6-.75-7.39-2.34-.5-.71.17-2.94.71-4.86.6-2.11,1.16-5.39,1.86-5.2a1,1,0,0,0,.36.78c.26.27.61.44.89.68a5.37,5.37,0,0,1,1.15,1.66,1.21,1.21,0,0,0,.6.64c.35.14.61-.09.92-.23a1.8,1.8,0,0,1,1.25-.09,7.38,7.38,0,0,0-.22-1.23.78.78,0,0,1,0-.4.65.65,0,0,1,.27-.3A6.75,6.75,0,0,1,171.1,423.86Z" style="fill:#FF5346"></path><path d="M171.1,423.86l.34-.07a1.23,1.23,0,0,1,.57,0,1.15,1.15,0,0,1,.54.36,10.58,10.58,0,0,1,1.1,1.73c.9,1.48,2.81,2.7,4.88,3.81,1.41.76,2.79,1.35,4.25,2s3.46,1.07,4.62,1.86a3.11,3.11,0,0,1,0,5.14c-1.67,1-6,2-10.65.74-2.51-.71-5.29-3.39-8.57-3.64-2.09-.17-6-.75-7.39-2.34-.5-.71.17-2.94.71-4.86.6-2.11,1.16-5.39,1.86-5.2a1,1,0,0,0,.36.78c.26.27.61.44.89.68a5.37,5.37,0,0,1,1.15,1.66,1.21,1.21,0,0,0,.6.64c.35.14.61-.09.92-.23a1.8,1.8,0,0,1,1.25-.09,7.38,7.38,0,0,0-.22-1.23.78.78,0,0,1,0-.4.65.65,0,0,1,.27-.3A6.75,6.75,0,0,1,171.1,423.86Z" style="opacity:0.4"></path><path d="M176.58,428.53a2,2,0,0,0-1.55-1,5.65,5.65,0,0,0-3.67,1.39.78.78,0,0,0,.11,1.29h0a.79.79,0,0,0,.89-.1A6,6,0,0,1,176.58,428.53Z" style="fill:#f5f5f5"></path><path d="M179.53,430.18a2.24,2.24,0,0,0-1.83-.94,6.94,6.94,0,0,0-4,1.5.76.76,0,0,0,.1,1.25h0a.76.76,0,0,0,.86-.1A6,6,0,0,1,179.53,430.18Z" style="fill:#f5f5f5"></path><path d="M182.78,431.67a2.48,2.48,0,0,0-1.9-.85,6.67,6.67,0,0,0-3.85,1.51.77.77,0,0,0,.11,1.25h0a.74.74,0,0,0,.85-.1A5.71,5.71,0,0,1,182.78,431.67Z" style="fill:#f5f5f5"></path><path d="M135.73,323.9c-.55,16.48.49,54.65.49,54.65-.17,2.05-2.15,5.7-2.3,13.08-.22,10.72,1.06,36.61,1.06,36.61a11.6,11.6,0,0,0,9.16.45s5.08-36.68,6.71-47.24c1.44-9.28,4.26-26.77,4.26-26.77l2.23,22.45s0,8,.43,14.35c.35,4.91,4.83,28,4.83,28a17.81,17.81,0,0,0,9.84-.31s-.43-37.41-.34-41.91c.09-5.13.26-57.76.26-57.76Z" style="fill:#455a64"></path><path d="M155.11,354.68l2.44-13.51s6.76-.59,10.49-4.36c0,0-.67,3.7-9.16,5.91l-2.44,13.67.09,12.64Z" style="fill:#37474f"></path></g><path d="M141.48,274c-3.23.58-5.28,2.27-6,5.48a26.28,26.28,0,0,0-.83,7.88l2.4,19.21L135.15,326c5.21,5.66,26,7.5,37.36-.81,0,0-.12-33.62-.65-39.38-.91-10.07-5.48-13.64-12.18-13.62l-11.45,1Z" style="fill:#FF5346"></path><circle cx="161.05" cy="248.69" r="10.17" transform="translate(-37.76 29.01) rotate(-9.22)" style="fill:#263238"></circle><path d="M147.69,250.66l-2.15-5.84a3.82,3.82,0,0,0-3.16,1.12c-1.36,1.38-.6,5.72,1.09,10,0,0,1.64,7.74,2.31,9a3.53,3.53,0,0,0,2,1.64Z" style="fill:#263238"></path><path d="M147.5,256.28c-.62.37-1.51-.83-2.28-1.63s-3.27-1.9-4.52.73,1.1,6.23,3.08,6.85c3.4,1.07,3.91-1.11,3.91-1.11l.26,12.26a10.93,10.93,0,0,0,8.25,6.27c6,.82,4.79-4.15,2.81-6.59v-3.73a21.69,21.69,0,0,0,4.58.23c2.5-.38,4.08-2.36,4.84-5.06,1.21-4.35,1.68-7.86.64-16.41-1.13-9.37-12-9.47-17.92-5.77S147.5,256.28,147.5,256.28Z" style="fill:#ffbda7"></path><path d="M147.5,257.32c-.31,0-1.5-2-2.28-2.67-1.07-1,.32-9.83.32-9.83a4.17,4.17,0,0,1,1-4.47c1.47-1.62,3.93-1.8,8.13-2.46,2.07-.32,4.51-.48,6.56-.85a20.86,20.86,0,0,0,6.11-1.93,1.92,1.92,0,0,1,1.17-.3,1.12,1.12,0,0,1,.73.62,2.07,2.07,0,0,1,.16,1,3.59,3.59,0,0,1-.18,1c-.06.19-.47.79-.38,1,.21.43,1.83-.29,2.15-.38a.33.33,0,0,1,.24,0,.38.38,0,0,1,.13.15,4,4,0,0,1-.2,3.4,8.94,8.94,0,0,1-3.13,3.36,11,11,0,0,1-4.56,1.52,42.94,42.94,0,0,1-8.78.06c-.73-.07-1.46-.16-2.18-.26-.47-.07-1.09-.31-1.54-.11s-.76,1-.91,1.56c-.22.79-.37,1.6-.54,2.4C149,252.75,148.55,257.3,147.5,257.32Z" style="fill:#263238"></path><path d="M145.54,245.51l-3.76-2a2.07,2.07,0,0,1,2.85-.94A2.23,2.23,0,0,1,145.54,245.51Z" style="fill:#263238"></path><path d="M159,269.33s-5.58-1.13-7.53-2.17a6.41,6.41,0,0,1-2.7-2.66,8.68,8.68,0,0,0,1.53,3.14c1.43,1.83,8.7,3.17,8.7,3.17Z" style="fill:#f0997a"></path><path d="M157.66,254.88a1.12,1.12,0,1,1-2.24,0,1.13,1.13,0,0,1,1.12-1.15A1.14,1.14,0,0,1,157.66,254.88Z" style="fill:#263238"></path><path d="M156.47,250.66,154.08,252a1.45,1.45,0,0,1,.56-1.91A1.33,1.33,0,0,1,156.47,250.66Z" style="fill:#263238"></path><path d="M158,262.2l3.59,1.35a1.88,1.88,0,0,1-2.44,1.19A2,2,0,0,1,158,262.2Z" style="fill:#f0997a"></path><path d="M167.63,251.59l-2.18-1.68a1.32,1.32,0,0,1,1.9-.29A1.44,1.44,0,0,1,167.63,251.59Z" style="fill:#263238"></path><path d="M167,254.56a1.12,1.12,0,1,1-1.12-1.16A1.14,1.14,0,0,1,167,254.56Z" style="fill:#263238"></path><polygon points="161.26 253.5 161.63 260.23 165.14 259.03 161.26 253.5" style="fill:#f0997a"></polygon><path d="M198.43,291.58a11,11,0,0,0-6.18-.78c-1.68.28-1.69,5.89,3.72,7.66,3.52,1.16,5.63.65,6.77,3.54,0,0,2.28-.3,1.76-3.54a18.15,18.15,0,0,0-4.29-9c-1.55-1.83-1.65-3.37-2.41-2.85s-.47,2.29-.47,2.29Z" style="fill:#ffbda7"></path><path d="M98.35,300a6,6,0,0,0-4.22-1.33,15.91,15.91,0,0,1-2.36,0,3,3,0,0,1-2.48-1.57c-.11-.24-.17-.49-.29-.72s-.46-.68-.66-1a2.37,2.37,0,0,1-.22-1.71,1.43,1.43,0,0,0,.1-.67,1.49,1.49,0,0,0-.31-.51,2.42,2.42,0,0,1-.22-2.47,3.6,3.6,0,0,0,.29-.63c.11-.47-.14-1-.16-1.43-.1-2.16,3.49-1.84,4.77-1.55.37.08,2.17.45,3,.64a12.14,12.14,0,0,1,0-3.56c.31-2.28,2.49-3.36,2.74-2,.15.77,0,2.92.92,4.72a9.62,9.62,0,0,1,1.33,2.61c.33,1.21.74,2.07,3.44,4.64,2.52,2.4,12,10,12,10s10.14-17.29,12.44-22c3.72-7.55,13-7.51,13-7.51l-1,12.54s-15.93,25.26-18.66,28.74-6.38,2.42-8.34.66C110.65,313.37,103.29,304.86,98.35,300Z" style="fill:#ffbda7"></path><path d="M142.51,273.84s-6.1-.44-10,2.33-12.25,19.07-12.25,19.07a10,10,0,0,0,3.94,5,18.07,18.07,0,0,0,6.33,2.84l9.78-14.65S143.53,283.3,142.51,273.84Z" style="fill:#FF5346"></path><path d="M142.51,273.84s-6.1-.44-10,2.33-12.25,19.07-12.25,19.07a10,10,0,0,0,3.94,5,18.07,18.07,0,0,0,6.33,2.84l9.78-14.65S143.53,283.3,142.51,273.84Z" style="fill:#fff;opacity:0.7000000000000001"></path><path d="M96.13,287.32c1,.3,1.64,1,1.92,2.74a4.83,4.83,0,0,0,2.21,3.39,2.72,2.72,0,0,1-1.58-.37c-.63-.45-.79-.48-1-.12a2,2,0,0,1-.7.59,1.35,1.35,0,0,1,.41,1.58c-.38,1-2.81,1.45-5,.78,0,0,3.41.43,4-.74S95,293,93.64,292.92c0,0,3.26.18,3.55-.93s-1.14-1.65-3.06-1.79c0,0,2.67,0,3-.95A1.62,1.62,0,0,0,96.13,287.32Z" style="fill:#f0997a"></path></g></g></svg>